<?xml version="1.0" encoding="UTF-8" standalone="no"?>
<!-- Created with Inkscape (http://www.inkscape.org/) -->
<svg
   xmlns:svg="http://www.w3.org/2000/svg"
   xmlns="http://www.w3.org/2000/svg"
   xmlns:xlink="http://www.w3.org/1999/xlink"
   version="1.0"
   width="258"
   height="53"
   id="svg3264">
  <defs
     id="defs3266" />
  <g
     transform="translate(109,-925.86218)"
     id="layer1">
    <g
       style="fill:#000000"
       id="g3496">
      <path
         d="M 12.5,9 L 15.5,12 L 29.5,12 L 32.5,9 L 12.5,9 z "
         transform="translate(-109,925.86218)"
         style="opacity:1;fill:#000000;fill-opacity:1;fill-rule:evenodd;stroke:none;stroke-width:2;stroke-linecap:butt;stroke-linejoin:bevel;stroke-miterlimit:4;stroke-dasharray:none;stroke-dashoffset:0;stroke-opacity:1"
         id="rect3345" />
      <path
         d="M 33,9.5 L 30,12.5 L 30,23.5 L 33,26.5 L 33,9.5 z "
         transform="translate(-109,925.86218)"
         style="opacity:1;fill:#000000;fill-opacity:1;fill-rule:evenodd;stroke:none;stroke-width:2;stroke-linecap:butt;stroke-linejoin:bevel;stroke-miterlimit:4;stroke-dasharray:none;stroke-dashoffset:0;stroke-opacity:1"
         id="path3355" />
      <path
         d="M -97,935.36218 L -94,938.36218 L -94,949.36218 L -97,952.36218 L -97,935.36218 z "
         style="opacity:1;fill:#000000;fill-opacity:1;fill-rule:evenodd;stroke:none;stroke-width:2;stroke-linecap:butt;stroke-linejoin:bevel;stroke-miterlimit:4;stroke-dasharray:none;stroke-dashoffset:0;stroke-opacity:1"
         id="path3360" />
      <path
         d="M -76,952.36218 L -79,955.36218 L -79,966.36218 L -76,969.36218 L -76,952.36218 z "
         style="opacity:1;fill:#000000;fill-opacity:1;fill-rule:evenodd;stroke:none;stroke-width:2;stroke-linecap:butt;stroke-linejoin:bevel;stroke-miterlimit:4;stroke-dasharray:none;stroke-dashoffset:0;stroke-opacity:1"
         id="path3362" />
      <path
         d="M -97,952.36218 L -94,955.36218 L -94,966.36218 L -97,969.36218 L -97,952.36218 z "
         style="opacity:1;fill:#000000;fill-opacity:1;fill-rule:evenodd;stroke:none;stroke-width:2;stroke-linecap:butt;stroke-linejoin:bevel;stroke-miterlimit:4;stroke-dasharray:none;stroke-dashoffset:0;stroke-opacity:1"
         id="path3364" />
      <path
         d="M -96.5,969.86218 L -93.5,966.86218 L -79.5,966.86218 L -76.5,969.86218 L -96.5,969.86218 z "
         style="opacity:1;fill:#000000;fill-opacity:1;fill-rule:evenodd;stroke:none;stroke-width:2;stroke-linecap:butt;stroke-linejoin:bevel;stroke-miterlimit:4;stroke-dasharray:none;stroke-dashoffset:0;stroke-opacity:1"
         id="path3366" />
      <path
         d="M 14.5,25 L 13,26.5 L 14.5,28 L 20.5,28 L 22,26.5 L 20.5,25 L 14.5,25 z "
         transform="translate(-109,925.86218)"
         style="opacity:1;fill:#000000;fill-opacity:1;fill-rule:evenodd;stroke:none;stroke-width:2;stroke-linecap:butt;stroke-linejoin:bevel;stroke-miterlimit:4;stroke-dasharray:none;stroke-dashoffset:0;stroke-opacity:1"
         id="rect3368" />
      <path
         d="M -84.5,950.86218 L -86,952.36218 L -84.5,953.86218 L -78.5,953.86218 L -77,952.36218 L -78.5,950.86218 L -84.5,950.86218 z "
         style="opacity:1;fill:#000000;fill-opacity:1;fill-rule:evenodd;stroke:none;stroke-width:2;stroke-linecap:butt;stroke-linejoin:bevel;stroke-miterlimit:4;stroke-dasharray:none;stroke-dashoffset:0;stroke-opacity:1"
         id="path3382" />
      <path
         d="M 22.5,28 L 21,29.5 L 21,40 L 24,40 L 24,29.5 L 22.5,28 z "
         transform="translate(-109,925.86218)"
         style="opacity:1;fill:#000000;fill-opacity:1;fill-rule:evenodd;stroke:none;stroke-width:2;stroke-linecap:butt;stroke-linejoin:bevel;stroke-miterlimit:4;stroke-dasharray:none;stroke-dashoffset:0;stroke-opacity:1"
         id="rect3388" />
      <path
         d="M -86.5,950.86218 L -88,949.36218 L -88,938.86218 L -85,938.86218 L -85,949.36218 L -86.5,950.86218 z "
         style="opacity:1;fill:#000000;fill-opacity:1;fill-rule:evenodd;stroke:none;stroke-width:2;stroke-linecap:butt;stroke-linejoin:bevel;stroke-miterlimit:4;stroke-dasharray:none;stroke-dashoffset:0;stroke-opacity:1"
         id="path3398" />
      <rect
         width="3.02"
         height="3"
         x="-73"
         y="966.86218"
         style="opacity:1;fill:#000000;fill-opacity:1;fill-rule:evenodd;stroke:none;stroke-width:2;stroke-linecap:butt;stroke-linejoin:bevel;stroke-miterlimit:4;stroke-dasharray:none;stroke-dashoffset:0;stroke-opacity:1"
         id="rect3400" />
      <path
         d="M 29,35 L 25,29 L 25,34 L 29,40 L 29,35 z "
         transform="translate(-109,925.86218)"
         style="opacity:1;fill:#000000;fill-opacity:1;fill-rule:evenodd;stroke:none;stroke-width:2;stroke-linecap:butt;stroke-linejoin:bevel;stroke-miterlimit:4;stroke-dasharray:none;stroke-dashoffset:0;stroke-opacity:1"
         id="rect3404" />
      <path
         d="M -93,960.86218 L -89,954.86218 L -89,959.86218 L -93,965.86218 L -93,960.86218 z "
         style="opacity:1;fill:#000000;fill-opacity:1;fill-rule:evenodd;stroke:none;stroke-width:2;stroke-linecap:butt;stroke-linejoin:bevel;stroke-miterlimit:4;stroke-dasharray:none;stroke-dashoffset:0;stroke-opacity:1"
         id="path3428" />
      <path
         d="M -80,943.86218 L -84,949.86218 L -84,944.86218 L -80,938.86218 L -80,943.86218 z "
         style="opacity:1;fill:#000000;fill-opacity:1;fill-rule:evenodd;stroke:none;stroke-width:2;stroke-linecap:butt;stroke-linejoin:bevel;stroke-miterlimit:4;stroke-dasharray:none;stroke-dashoffset:0;stroke-opacity:1"
         id="path3430" />
      <path
         d="M -93,943.86218 L -89,949.86218 L -89,944.86218 L -93,938.86218 L -93,943.86218 z "
         style="opacity:1;fill:#000000;fill-opacity:1;fill-rule:evenodd;stroke:none;stroke-width:2;stroke-linecap:butt;stroke-linejoin:bevel;stroke-miterlimit:4;stroke-dasharray:none;stroke-dashoffset:0;stroke-opacity:1"
         id="path3432" />
    </g>
    <use
       transform="translate(30,0)"
       id="use3513"
       x="0"
       y="0"
       width="258"
       height="53"
       xlink:href="#g3496" />
    <use
       transform="translate(60,0)"
       id="use3515"
       x="0"
       y="0"
       width="258"
       height="53"
       xlink:href="#g3496" />
    <use
       transform="translate(90,0)"
       id="use3517"
       x="0"
       y="0"
       width="258"
       height="53"
       xlink:href="#g3496" />
    <use
       transform="translate(120,0)"
       id="use3519"
       x="0"
       y="0"
       width="258"
       height="53"
       xlink:href="#g3496" />
    <use
       transform="translate(150,0)"
       id="use3521"
       x="0"
       y="0"
       width="258"
       height="53"
       xlink:href="#g3496" />
    <use
       transform="translate(180,0)"
       id="use3523"
       x="0"
       y="0"
       width="258"
       height="53"
       xlink:href="#g3496" />
    <use
       transform="translate(210,0)"
       id="use3525"
       x="0"
       y="0"
       width="258"
       height="53"
       xlink:href="#g3496" />
  </g>
</svg>
