999
dxflib 2.2.0.0
  0
SECTION
  2
HEADER
  9
$ACADVER
  1
AC1015
  9
$HANDSEED
  5
FFFF
  9
$DIMASZ
 40
2.5
  9
$PLIMMIN
 10
0.0
 20
0.0
  9
$DIMEXE
 40
1.25
  9
$DIMGAP
 40
0.625
  9
$PLIMMAX
 10
210.0
 20
297.0
  9
$INSUNITS
 70
4
  9
$DIMSTYLE
  2
Standard
  9
$DIMEXO
 40
0.625
  9
$DIMTXT
 40
2.5
  0
ENDSEC
  0
SECTION
  2
TABLES
  0
TABLE
  2
VPORT
  5
8
100
AcDbSymbolTable
 70
1
  0
VPORT
  5
30
100
AcDbSymbolTableRecord
100
AcDbViewportTableRecord
  2
*Active
 70
0
 10
0.0
 20
0.0
 11
1.0
 21
1.0
 12
286.3055555555554861
 22
148.5
 13
0.0
 23
0.0
 14
10.0
 24
10.0
 15
10.0
 25
10.0
 16
0.0
 26
0.0
 36
1.0
 17
0.0
 27
0.0
 37
0.0
 40
297.0
 41
1.92798353909465
 42
50.0
 43
0.0
 44
0.0
 50
0.0
 51
0.0
 71
0
 72
100
 73
1
 74
3
 75
1
 76
1
 77
0
 78
0
281
0
 65
1
110
0.0
120
0.0
130
0.0
111
1.0
121
0.0
131
0.0
112
0.0
122
1.0
132
0.0
 79
0
146
0.0
  0
ENDTAB
  0
TABLE
  2
LTYPE
  5
5
100
AcDbSymbolTable
 70
21
  0
LTYPE
  5
14
100
AcDbSymbolTableRecord
100
AcDbLinetypeTableRecord
  2
ByBlock
 70
0
  3

 72
65
 73
0
 40
0.0
  0
LTYPE
  5
15
100
AcDbSymbolTableRecord
100
AcDbLinetypeTableRecord
  2
ByLayer
 70
0
  3

 72
65
 73
0
 40
0.0
  0
LTYPE
  5
16
100
AcDbSymbolTableRecord
100
AcDbLinetypeTableRecord
  2
CONTINUOUS
 70
0
  3
Solid line
 72
65
 73
0
 40
0.0
  0
LTYPE
  5
31
100
AcDbSymbolTableRecord
100
AcDbLinetypeTableRecord
  2
DOT
 70
0
  3
Dot . . . . . . . . . . . . . . . . . . . . . .
 72
65
 73
2
 40
6.3499999999999996
 49
0.0
 74
0
 49
-6.3499999999999996
 74
0
  0
LTYPE
  5
32
100
AcDbSymbolTableRecord
100
AcDbLinetypeTableRecord
  2
DOT2
 70
0
  3
Dot (.5x) .....................................
 72
65
 73
2
 40
3.1749999999999998
 49
0.0
 74
0
 49
-3.1749999999999998
 74
0
  0
LTYPE
  5
33
100
AcDbSymbolTableRecord
100
AcDbLinetypeTableRecord
  2
DOTX2
 70
0
  3
Dot (2x) .  .  .  .  .  .  .  .  .  .  .  .  .
 72
65
 73
2
 40
12.6999999999999993
 49
0.0
 74
0
 49
-12.6999999999999993
 74
0
  0
LTYPE
  5
34
100
AcDbSymbolTableRecord
100
AcDbLinetypeTableRecord
  2
DASHED
 70
0
  3
Dashed __ __ __ __ __ __ __ __ __ __ __ __ __ _
 72
65
 73
2
 40
19.0500000000000007
 49
12.6999999999999993
 74
0
 49
-6.3499999999999996
 74
0
  0
LTYPE
  5
35
100
AcDbSymbolTableRecord
100
AcDbLinetypeTableRecord
  2
DASHED2
 70
0
  3
Dashed (.5x) _ _ _ _ _ _ _ _ _ _ _ _ _ _ _ _ _
 72
65
 73
2
 40
9.5250000000000004
 49
6.3499999999999996
 74
0
 49
-3.1749999999999998
 74
0
  0
LTYPE
  5
36
100
AcDbSymbolTableRecord
100
AcDbLinetypeTableRecord
  2
DASHEDX2
 70
0
  3
Dashed (2x) ____  ____  ____  ____  ____  ___
 72
65
 73
2
 40
38.1000000000000014
 49
25.3999999999999986
 74
0
 49
-12.6999999999999993
 74
0
  0
LTYPE
  5
37
100
AcDbSymbolTableRecord
100
AcDbLinetypeTableRecord
  2
DASHDOT
 70
0
  3
Dash dot __ . __ . __ . __ . __ . __ . __ . __
 72
65
 73
4
 40
25.3999999999999986
 49
12.6999999999999993
 74
0
 49
-6.3499999999999996
 74
0
 49
0.0
 74
0
 49
-6.3499999999999996
 74
0
  0
LTYPE
  5
38
100
AcDbSymbolTableRecord
100
AcDbLinetypeTableRecord
  2
DASHDOT2
 70
0
  3
Dash dot (.5x) _._._._._._._._._._._._._._._.
 72
65
 73
4
 40
12.6999999999999993
 49
6.3499999999999996
 74
0
 49
-3.1749999999999998
 74
0
 49
0.0
 74
0
 49
-3.1749999999999998
 74
0
  0
LTYPE
  5
39
100
AcDbSymbolTableRecord
100
AcDbLinetypeTableRecord
  2
DASHDOTX2
 70
0
  3
Dash dot (2x) ____  .  ____  .  ____  .  ___
 72
65
 73
4
 40
50.7999999999999972
 49
25.3999999999999986
 74
0
 49
-12.6999999999999993
 74
0
 49
0.0
 74
0
 49
-12.6999999999999993
 74
0
  0
LTYPE
  5
3A
100
AcDbSymbolTableRecord
100
AcDbLinetypeTableRecord
  2
DIVIDE
 70
0
  3
Divide ____ . . ____ . . ____ . . ____ . . ____
 72
65
 73
6
 40
31.75
 49
12.6999999999999993
 74
0
 49
-6.3499999999999996
 74
0
 49
0.0
 74
0
 49
-6.3499999999999996
 74
0
 49
0.0
 74
0
 49
-6.3499999999999996
 74
0
  0
LTYPE
  5
3B
100
AcDbSymbolTableRecord
100
AcDbLinetypeTableRecord
  2
DIVIDE2
 70
0
  3
Divide (.5x) __..__..__..__..__..__..__..__.._
 72
65
 73
6
 40
15.875
 49
6.3499999999999996
 74
0
 49
-3.1749999999999998
 74
0
 49
0.0
 74
0
 49
-3.1749999999999998
 74
0
 49
0.0
 74
0
 49
-3.1749999999999998
 74
0
  0
LTYPE
  5
3C
100
AcDbSymbolTableRecord
100
AcDbLinetypeTableRecord
  2
DIVIDEX2
 70
0
  3
Divide (2x) ________  .  .  ________  .  .  _
 72
65
 73
6
 40
63.5
 49
25.3999999999999986
 74
0
 49
-12.6999999999999993
 74
0
 49
0.0
 74
0
 49
-12.6999999999999993
 74
0
 49
0.0
 74
0
 49
-12.6999999999999993
 74
0
  0
LTYPE
  5
3D
100
AcDbSymbolTableRecord
100
AcDbLinetypeTableRecord
  2
CENTER
 70
0
  3
Center ____ _ ____ _ ____ _ ____ _ ____ _ ____
 72
65
 73
4
 40
50.7999999999999972
 49
31.75
 74
0
 49
-6.3499999999999996
 74
0
 49
6.3499999999999996
 74
0
 49
-6.3499999999999996
 74
0
  0
LTYPE
  5
3E
100
AcDbSymbolTableRecord
100
AcDbLinetypeTableRecord
  2
CENTER2
 70
0
  3
Center (.5x) ___ _ ___ _ ___ _ ___ _ ___ _ ___
 72
65
 73
4
 40
28.5749999999999993
 49
19.0500000000000007
 74
0
 49
-3.1749999999999998
 74
0
 49
3.1749999999999998
 74
0
 49
-3.1749999999999998
 74
0
  0
LTYPE
  5
3F
100
AcDbSymbolTableRecord
100
AcDbLinetypeTableRecord
  2
CENTERX2
 70
0
  3
Center (2x) ________  __  ________  __  _____
 72
65
 73
4
 40
101.5999999999999943
 49
63.5
 74
0
 49
-12.6999999999999993
 74
0
 49
12.6999999999999993
 74
0
 49
-12.6999999999999993
 74
0
  0
LTYPE
  5
40
100
AcDbSymbolTableRecord
100
AcDbLinetypeTableRecord
  2
BORDER
 70
0
  3
Border __ __ . __ __ . __ __ . __ __ . __ __ .
 72
65
 73
6
 40
44.4500000000000028
 49
12.6999999999999993
 74
0
 49
-6.3499999999999996
 74
0
 49
12.6999999999999993
 74
0
 49
-6.3499999999999996
 74
0
 49
0.0
 74
0
 49
-6.3499999999999996
 74
0
  0
LTYPE
  5
41
100
AcDbSymbolTableRecord
100
AcDbLinetypeTableRecord
  2
BORDER2
 70
0
  3
Border (.5x) __.__.__.__.__.__.__.__.__.__.__.
 72
65
 73
6
 40
22.2250000000000014
 49
6.3499999999999996
 74
0
 49
-3.1749999999999998
 74
0
 49
6.3499999999999996
 74
0
 49
-3.1749999999999998
 74
0
 49
0.0
 74
0
 49
-3.1749999999999998
 74
0
  0
LTYPE
  5
42
100
AcDbSymbolTableRecord
100
AcDbLinetypeTableRecord
  2
BORDERX2
 70
0
  3
Border (2x) ____  ____  .  ____  ____  .  ___
 72
65
 73
6
 40
88.9000000000000057
 49
25.3999999999999986
 74
0
 49
-12.6999999999999993
 74
0
 49
25.3999999999999986
 74
0
 49
-12.6999999999999993
 74
0
 49
0.0
 74
0
 49
-12.6999999999999993
 74
0
  0
ENDTAB
  0
TABLE
  2
LAYER
  5
2
100
AcDbSymbolTable
 70
5
  0
LAYER
  5
10
100
AcDbSymbolTableRecord
100
AcDbLayerTableRecord
  2
0
 70
0
 62
7
  6
CONTINUOUS
290
1
370
0
390
F
  0
LAYER
  5
43
100
AcDbSymbolTableRecord
100
AcDbLayerTableRecord
  2
strips
 70
0
 62
2
  6
CONTINUOUS
290
1
370
0
390
F
  0
LAYER
  5
44
100
AcDbSymbolTableRecord
100
AcDbLayerTableRecord
  2
corners
 70
5
 62
3
  6
CONTINUOUS
290
1
370
0
390
F
  0
LAYER
  5
45
100
AcDbSymbolTableRecord
100
AcDbLayerTableRecord
  2
wedges
 70
4
 62
1
  6
CONTINUOUS
290
1
370
0
390
F
  0
LAYER
  5
46
100
AcDbSymbolTableRecord
100
AcDbLayerTableRecord
  2
corner bits
 70
0
 62
6
  6
CONTINUOUS
290
1
370
0
390
F
  0
ENDTAB
  0
TABLE
  2
STYLE
  5
3
100
AcDbSymbolTable
 70
1
  0
STYLE
  5
11
100
AcDbSymbolTableRecord
100
AcDbTextStyleTableRecord
  2
Standard
 70
0
 40
0.0
 41
0.75
 50
0.0
 71
0
 42
2.5
  3
txt
  4

  0
ENDTAB
  0
TABLE
  2
VIEW
  5
6
100
AcDbSymbolTable
 70
0
  0
ENDTAB
  0
TABLE
  2
UCS
  5
7
100
AcDbSymbolTable
 70
0
  0
ENDTAB
  0
TABLE
  2
APPID
  5
9
100
AcDbSymbolTable
 70
1
  0
APPID
  5
12
100
AcDbSymbolTableRecord
100
AcDbRegAppTableRecord
  2
ACAD
 70
0
  0
ENDTAB
  0
TABLE
  2
DIMSTYLE
  5
A
100
AcDbSymbolTable
 70
1
100
AcDbDimStyleTable
 71
0
  0
DIMSTYLE
105
27
100
AcDbSymbolTableRecord
100
AcDbDimStyleTableRecord
  2
Standard
 41
2.5
 42
0.625
 43
3.75
 44
1.25
 70
0
 73
0
 74
0
 77
1
 78
8
140
2.5
141
2.5
143
0.03937007874016
147
0.625
171
3
172
1
271
2
272
2
274
3
278
44
283
0
284
8
340
11
  0
ENDTAB
  0
TABLE
  2
BLOCK_RECORD
  5
1
100
AcDbSymbolTable
 70
1
  0
BLOCK_RECORD
  5
1F
100
AcDbSymbolTableRecord
100
AcDbBlockTableRecord
  2
*Model_Space
340
22
  0
BLOCK_RECORD
  5
1B
100
AcDbSymbolTableRecord
100
AcDbBlockTableRecord
  2
*Paper_Space
340
1E
  0
BLOCK_RECORD
  5
23
100
AcDbSymbolTableRecord
100
AcDbBlockTableRecord
  2
*Paper_Space0
340
26
  0
BLOCK_RECORD
  5
47
100
AcDbSymbolTableRecord
100
AcDbBlockTableRecord
  2
horiz 150
340
0
  0
BLOCK_RECORD
  5
48
100
AcDbSymbolTableRecord
100
AcDbBlockTableRecord
  2
vert 200
340
0
  0
BLOCK_RECORD
  5
49
100
AcDbSymbolTableRecord
100
AcDbBlockTableRecord
  2
diag b
340
0
  0
BLOCK_RECORD
  5
4A
100
AcDbSymbolTableRecord
100
AcDbBlockTableRecord
  2
diag a
340
0
  0
ENDTAB
  0
ENDSEC
  0
SECTION
  2
BLOCKS
  0
BLOCK
  5
20
100
AcDbEntity
  8
0
100
AcDbBlockBegin
  2
*Model_Space
 70
0
 10
0.0
 20
0.0
 30
0.0
  3
*Model_Space
  1

  0
ENDBLK
  5
21
100
AcDbEntity
  8
0
100
AcDbBlockEnd
  0
BLOCK
  5
1C
100
AcDbEntity
 67
1
  8
0
100
AcDbBlockBegin
  2
*Paper_Space
 70
0
 10
0.0
 20
0.0
 30
0.0
  3
*Paper_Space
  1

  0
ENDBLK
  5
1D
100
AcDbEntity
 67
1
  8
0
100
AcDbBlockEnd
  0
BLOCK
  5
24
100
AcDbEntity
  8
0
100
AcDbBlockBegin
  2
*Paper_Space0
 70
0
 10
0.0
 20
0.0
 30
0.0
  3
*Paper_Space0
  1

  0
ENDBLK
  5
25
100
AcDbEntity
  8
0
100
AcDbBlockEnd
  0
BLOCK
  5
4B
100
AcDbEntity
  8
0
100
AcDbBlockBegin
  2
horiz 150
 70
0
 10
0.0
 20
0.0
 30
0.0
  3
horiz 150
  1

  0
LINE
  5
4C
100
AcDbEntity
100
AcDbLine
  8
0
 62
256
370
-1
  6
ByLayer
 10
0.0
 20
5.0
 30
0.0
 11
150.0
 21
5.0
 31
0.0
  0
LINE
  5
4D
100
AcDbEntity
100
AcDbLine
  8
0
 62
256
370
-1
  6
ByLayer
 10
150.0
 20
5.0
 30
0.0
 11
150.0
 21
-5.0
 31
0.0
  0
LINE
  5
4E
100
AcDbEntity
100
AcDbLine
  8
0
 62
256
370
-1
  6
ByLayer
 10
150.0
 20
-5.0
 30
0.0
 11
0.0
 21
-5.0
 31
0.0
  0
LINE
  5
4F
100
AcDbEntity
100
AcDbLine
  8
0
 62
256
370
-1
  6
ByLayer
 10
0.0
 20
-5.0
 30
0.0
 11
0.0
 21
5.0
 31
0.0
  0
CIRCLE
  5
50
100
AcDbEntity
100
AcDbCircle
  8
strips
 62
256
370
-1
  6
ByLayer
 10
155.0
 20
0.0
 30
0.0
 40
2.0
  0
CIRCLE
  5
51
100
AcDbEntity
100
AcDbCircle
  8
strips
 62
256
370
-1
  6
ByLayer
 10
-5.0
 20
0.0
 30
0.0
 40
2.0
  0
LINE
  5
52
100
AcDbEntity
100
AcDbLine
  8
strips
 62
256
370
-1
  6
ByLayer
 10
26.9999999999999929
 20
10.0
 30
0.0
 11
123.0
 21
10.0
 31
0.0
  0
LINE
  5
53
100
AcDbEntity
100
AcDbLine
  8
strips
 62
256
370
-1
  6
ByLayer
 10
123.0
 20
-10.0
 30
0.0
 11
26.9999999999999929
 21
-10.0
 31
0.0
  0
ENDBLK
  5
54
100
AcDbEntity
  8
0
100
AcDbBlockEnd
  0
BLOCK
  5
55
100
AcDbEntity
  8
0
100
AcDbBlockBegin
  2
vert 200
 70
0
 10
0.0
 20
0.0
 30
0.0
  3
vert 200
  1

  0
LINE
  5
56
100
AcDbEntity
100
AcDbLine
  8
0
 62
256
370
-1
  6
ByLayer
 10
5.0
 20
0.0
 30
0.0
 11
5.0000000000001137
 21
200.0
 31
0.0
  0
LINE
  5
57
100
AcDbEntity
100
AcDbLine
  8
0
 62
256
370
-1
  6
ByLayer
 10
5.0000000000001137
 20
200.0
 30
0.0
 11
-5.0
 21
200.0000000000000284
 31
0.0
  0
LINE
  5
58
100
AcDbEntity
100
AcDbLine
  8
0
 62
256
370
-1
  6
ByLayer
 10
-5.0
 20
200.0000000000000284
 30
0.0
 11
-5.0
 21
0.0
 31
0.0
  0
LINE
  5
59
100
AcDbEntity
100
AcDbLine
  8
0
 62
256
370
-1
  6
ByLayer
 10
-5.0
 20
0.0
 30
0.0
 11
5.0
 21
0.0
 31
0.0
  0
CIRCLE
  5
5A
100
AcDbEntity
100
AcDbCircle
  8
strips
 62
256
370
-1
  6
ByLayer
 10
0.0
 20
205.0
 30
0.0
 40
2.0
  0
CIRCLE
  5
5B
100
AcDbEntity
100
AcDbCircle
  8
strips
 62
256
370
-1
  6
ByLayer
 10
0.0
 20
-5.0
 30
0.0
 40
2.0
  0
LINE
  5
5C
100
AcDbEntity
100
AcDbLine
  8
strips
 62
256
370
-1
  6
ByLayer
 10
10.0
 20
164.0
 30
0.0
 11
10.0
 21
35.9999999999999929
 31
0.0
  0
LINE
  5
5D
100
AcDbEntity
100
AcDbLine
  8
strips
 62
256
370
-1
  6
ByLayer
 10
-10.0
 20
35.9999999999999929
 30
0.0
 11
-10.0
 21
164.0
 31
0.0
  0
ENDBLK
  5
5E
100
AcDbEntity
  8
0
100
AcDbBlockEnd
  0
BLOCK
  5
5F
100
AcDbEntity
  8
0
100
AcDbBlockBegin
  2
diag b
 70
0
 10
0.0
 20
0.0
 30
0.0
  3
diag b
  1

  0
LINE
  5
60
100
AcDbEntity
100
AcDbLine
  8
0
 62
256
370
-1
  6
ByLayer
 10
145.999999999999801
 20
-203.0000000000000853
 30
0.0
 11
154.0000000000000284
 21
-196.9999999999999716
 31
0.0
  0
LINE
  5
61
100
AcDbEntity
100
AcDbLine
  8
0
 62
256
370
-1
  6
ByLayer
 10
-4.000000000000199
 20
-3.0000000000000568
 30
0.0
 11
4.0000000000000284
 21
3.0000000000000568
 31
0.0
  0
LINE
  5
62
100
AcDbEntity
100
AcDbLine
  8
0
 62
256
370
-1
  6
ByLayer
 10
-4.000000000000199
 20
-3.0000000000000568
 30
0.0
 11
145.999999999999801
 21
-203.0000000000000853
 31
0.0
  0
LINE
  5
63
100
AcDbEntity
100
AcDbLine
  8
0
 62
256
370
-1
  6
ByLayer
 10
154.0000000000000284
 20
-196.9999999999999716
 30
0.0
 11
4.0000000000000284
 21
3.0000000000000568
 31
0.0
  0
ENDBLK
  5
64
100
AcDbEntity
  8
0
100
AcDbBlockEnd
  0
BLOCK
  5
65
100
AcDbEntity
  8
0
100
AcDbBlockBegin
  2
diag a
 70
0
 10
0.0
 20
0.0
 30
0.0
  3
diag a
  1

  0
CIRCLE
  5
66
100
AcDbEntity
100
AcDbCircle
  8
strips
 62
256
370
-1
  6
ByLayer
 10
153.0
 20
204.0
 30
0.0
 40
2.0
  0
CIRCLE
  5
67
100
AcDbEntity
100
AcDbCircle
  8
strips
 62
256
370
-1
  6
ByLayer
 10
-3.0000000000000004
 20
-3.9999999999999996
 30
0.0
 40
2.0
  0
LINE
  5
68
100
AcDbEntity
100
AcDbLine
  8
0
 62
256
370
-1
  6
ByLayer
 10
146.0
 20
203.0
 30
0.0
 11
154.0
 21
197.0
 31
0.0
  0
LINE
  5
69
100
AcDbEntity
100
AcDbLine
  8
0
 62
256
370
-1
  6
ByLayer
 10
-4.0
 20
3.0
 30
0.0
 11
4.0
 21
-3.0
 31
0.0
  0
LINE
  5
6A
100
AcDbEntity
100
AcDbLine
  8
0
 62
256
370
-1
  6
ByLayer
 10
146.0
 20
203.0
 30
0.0
 11
-4.0
 21
3.0
 31
0.0
  0
LINE
  5
6B
100
AcDbEntity
100
AcDbLine
  8
0
 62
256
370
-1
  6
ByLayer
 10
4.0
 20
-3.0
 30
0.0
 11
154.0
 21
197.0
 31
0.0
  0
LINE
  5
6C
100
AcDbEntity
100
AcDbLine
  8
strips
 62
256
370
-1
  6
ByLayer
 10
127.0
 20
186.0
 30
0.0
 11
6.9999999999999964
 21
25.9999999999999964
 31
0.0
  0
LINE
  5
6D
100
AcDbEntity
100
AcDbLine
  8
strips
 62
256
370
-1
  6
ByLayer
 10
22.9999999999999964
 20
13.9999999999999964
 30
0.0
 11
143.0
 21
174.0
 31
0.0
  0
ENDBLK
  5
6E
100
AcDbEntity
  8
0
100
AcDbBlockEnd
  0
ENDSEC
  0
SECTION
  2
ENTITIES
  0
LINE
  5
6F
100
AcDbEntity
100
AcDbLine
  8
corners
 62
256
370
-1
  6
ByLayer
 10
745.0
 20
495.0
 30
0.0
 11
765.0
 21
495.0
 31
0.0
  0
LINE
  5
70
100
AcDbEntity
100
AcDbLine
  8
wedges
 62
256
370
-1
  6
ByLayer
 10
790.0
 20
480.0
 30
0.0
 11
794.0
 21
480.0
 31
0.0
  0
LINE
  5
71
100
AcDbEntity
100
AcDbLine
  8
wedges
 62
256
370
-1
  6
ByLayer
 10
794.0
 20
480.0
 30
0.0
 11
792.0
 21
470.0
 31
0.0
  0
LINE
  5
72
100
AcDbEntity
100
AcDbLine
  8
wedges
 62
256
370
-1
  6
ByLayer
 10
792.0
 20
470.0
 30
0.0
 11
790.0
 21
470.0
 31
0.0
  0
LINE
  5
73
100
AcDbEntity
100
AcDbLine
  8
wedges
 62
256
370
-1
  6
ByLayer
 10
790.0
 20
470.0
 30
0.0
 11
790.0
 21
480.0
 31
0.0
  0
LINE
  5
74
100
AcDbEntity
100
AcDbLine
  8
wedges
 62
256
370
-1
  6
ByLayer
 10
795.0
 20
480.0
 30
0.0
 11
793.0
 21
470.0
 31
0.0
  0
LINE
  5
75
100
AcDbEntity
100
AcDbLine
  8
wedges
 62
256
370
-1
  6
ByLayer
 10
793.0
 20
470.0
 30
0.0
 11
797.0
 21
470.0
 31
0.0
  0
LINE
  5
76
100
AcDbEntity
100
AcDbLine
  8
wedges
 62
256
370
-1
  6
ByLayer
 10
797.0
 20
470.0
 30
0.0
 11
797.0
 21
480.0
 31
0.0
  0
LINE
  5
77
100
AcDbEntity
100
AcDbLine
  8
wedges
 62
256
370
-1
  6
ByLayer
 10
797.0
 20
480.0
 30
0.0
 11
795.0
 21
480.0
 31
0.0
  0
LINE
  5
78
100
AcDbEntity
100
AcDbLine
  8
corners
 62
256
370
-1
  6
ByLayer
 10
766.0
 20
436.0
 30
0.0
 11
770.0
 21
436.0
 31
0.0
  0
LINE
  5
79
100
AcDbEntity
100
AcDbLine
  8
corners
 62
256
370
-1
  6
ByLayer
 10
766.0
 20
430.0
 30
0.0
 11
770.0
 21
430.0
 31
0.0
  0
LINE
  5
7A
100
AcDbEntity
100
AcDbLine
  8
corners
 62
256
370
-1
  6
ByLayer
 10
750.0
 20
436.0
 30
0.0
 11
754.0
 21
436.0
 31
0.0
  0
LINE
  5
7B
100
AcDbEntity
100
AcDbLine
  8
corners
 62
256
370
-1
  6
ByLayer
 10
750.0
 20
430.0
 30
0.0
 11
754.0
 21
430.0
 31
0.0
  0
LINE
  5
7C
100
AcDbEntity
100
AcDbLine
  8
corners
 62
256
370
-1
  6
ByLayer
 10
731.0
 20
474.0
 30
0.0
 11
731.0
 21
470.0
 31
0.0
  0
LINE
  5
7D
100
AcDbEntity
100
AcDbLine
  8
corners
 62
256
370
-1
  6
ByLayer
 10
725.0
 20
474.0
 30
0.0
 11
725.0
 21
470.0
 31
0.0
  0
LINE
  5
7E
100
AcDbEntity
100
AcDbLine
  8
corners
 62
256
370
-1
  6
ByLayer
 10
731.0
 20
490.0
 30
0.0
 11
731.0
 21
486.0
 31
0.0
  0
LINE
  5
7F
100
AcDbEntity
100
AcDbLine
  8
corners
 62
256
370
-1
  6
ByLayer
 10
725.0
 20
490.0
 30
0.0
 11
725.0
 21
486.0
 31
0.0
  0
LINE
  5
80
100
AcDbEntity
100
AcDbLine
  8
corners
 62
256
370
-1
  6
ByLayer
 10
741.4495121738077614
 20
445.2433778553694879
 30
0.0
 11
744.6440542139969239
 21
442.8361177627612619
 31
0.0
  0
LINE
  5
81
100
AcDbEntity
100
AcDbLine
  8
corners
 62
256
370
-1
  6
ByLayer
 10
737.8386220348954794
 20
440.4515647950856874
 30
0.0
 11
741.0331640750846418
 21
438.0443047024775183
 31
0.0
  0
LINE
  5
82
100
AcDbEntity
100
AcDbLine
  8
corners
 62
256
370
-1
  6
ByLayer
 10
728.6713440130511117
 20
454.8724182258022211
 30
0.0
 11
731.8658860532402741
 21
452.465158133194052
 31
0.0
  0
LINE
  5
83
100
AcDbEntity
100
AcDbLine
  8
corners
 62
256
370
-1
  6
ByLayer
 10
725.0604538741388296
 20
450.0806051655184774
 30
0.0
 11
728.2549959143279921
 21
447.6733450729103083
 31
0.0
  0
CIRCLE
  5
84
100
AcDbEntity
100
AcDbCircle
  8
corners
 62
256
370
-1
  6
ByLayer
 10
765.0
 20
485.0
 30
0.0
 40
5.0
  0
INSERT
  5
85
100
AcDbEntity
100
AcDbBlockReference
  8
strips
 62
256
370
-1
  6
ByLayer
  2
vert 200
 10
400.0
 20
20.0
 30
0.0
 44
1.0
 45
1.0
  0
INSERT
  5
86
100
AcDbEntity
100
AcDbBlockReference
  8
strips
 62
256
370
-1
  6
ByLayer
  2
horiz 150
 10
415.0
 20
0.0
 30
0.0
 44
1.0
 45
1.0
  0
INSERT
  5
87
100
AcDbEntity
100
AcDbBlockReference
  8
strips
 62
256
370
-1
  6
ByLayer
  2
horiz 150
 10
415.0
 20
240.0
 30
0.0
 44
1.0
 45
1.0
  0
INSERT
  5
88
100
AcDbEntity
100
AcDbBlockReference
  8
strips
 62
256
370
-1
  6
ByLayer
  2
diag a
 10
415.0
 20
20.0
 30
0.0
 44
1.0
 45
1.0
  0
INSERT
  5
89
100
AcDbEntity
100
AcDbBlockReference
  8
strips
 62
256
370
-1
  6
ByLayer
  2
vert 200
 10
580.0
 20
20.0
 30
0.0
 44
1.0
 45
1.0
  0
INSERT
  5
8A
100
AcDbEntity
100
AcDbBlockReference
  8
strips
 62
256
370
-1
  6
ByLayer
  2
diag a
 10
595.0
 20
260.0
 30
0.0
 44
1.0
 45
1.0
  0
INSERT
  5
8B
100
AcDbEntity
100
AcDbBlockReference
  8
strips
 62
256
370
-1
  6
ByLayer
  2
vert 200
 10
760.0
 20
260.0
 30
0.0
 44
1.0
 45
1.0
  0
INSERT
  5
8C
100
AcDbEntity
100
AcDbBlockReference
  8
strips
 62
256
370
-1
  6
ByLayer
  2
vert 200
 10
580.0
 20
260.0
 30
0.0
 41
1.0
 42
-1.0
 43
1.0
 50
180.0
 44
1.0
 45
1.0
  0
INSERT
  5
8D
100
AcDbEntity
100
AcDbBlockReference
  8
strips
 62
256
370
-1
  6
ByLayer
  2
horiz 150
 10
565.0
 20
480.0
 30
0.0
 41
1.0
 42
-1.0
 43
1.0
 50
180.0
 44
1.0
 45
1.0
  0
INSERT
  5
8E
100
AcDbEntity
100
AcDbBlockReference
  8
strips
 62
256
370
-1
  6
ByLayer
  2
diag a
 10
565.0
 20
260.0
 30
0.0
 41
1.0
 42
-1.0
 43
1.0
 50
180.0
 44
1.0
 45
1.0
  0
INSERT
  5
8F
100
AcDbEntity
100
AcDbBlockReference
  8
strips
 62
256
370
-1
  6
ByLayer
  2
vert 200
 10
400.0
 20
260.0000000000000568
 30
0.0
 41
1.0
 42
-1.0
 43
1.0
 50
180.0
 44
1.0
 45
1.0
  0
INSERT
  5
90
100
AcDbEntity
100
AcDbBlockReference
  8
strips
 62
256
370
-1
  6
ByLayer
  2
vert 200
 10
760.0
 20
20.0
 30
0.0
 41
1.0
 42
-1.0
 43
1.0
 50
180.0
 44
1.0
 45
1.0
  0
INSERT
  5
91
100
AcDbEntity
100
AcDbBlockReference
  8
strips
 62
256
370
-1
  6
ByLayer
  2
horiz 150
 10
745.0
 20
240.0
 30
0.0
 41
1.0
 42
-1.0
 43
1.0
 50
180.0
 44
1.0
 45
1.0
  0
INSERT
  5
92
100
AcDbEntity
100
AcDbBlockReference
  8
strips
 62
256
370
-1
  6
ByLayer
  2
diag a
 10
745.0
 20
20.0
 30
0.0
 41
1.0
 42
-1.0
 43
1.0
 50
180.0
 44
1.0
 45
1.0
  0
INSERT
  5
93
100
AcDbEntity
100
AcDbBlockReference
  8
strips
 62
256
370
-1
  6
ByLayer
  2
horiz 150
 10
745.0
 20
0.0
 30
0.0
 41
1.0
 42
-1.0
 43
1.0
 50
180.0
 44
1.0
 45
1.0
  0
LINE
  5
94
100
AcDbEntity
100
AcDbLine
  8
corners
 62
256
370
-1
  6
ByLayer
 10
774.0
 20
495.0
 30
0.0
 11
765.0
 21
495.0
 31
0.0
  0
ARC
  5
95
100
AcDbEntity
  8
corners
 62
256
370
-1
  6
ByLayer
100
AcDbCircle
 10
774.0
 20
494.0
 30
0.0
 40
1.0
100
AcDbArc
 50
0.0
 51
90.0
  0
LINE
  5
96
100
AcDbEntity
100
AcDbLine
  8
corners
 62
256
370
-1
  6
ByLayer
 10
775.0
 20
426.0
 30
0.0
 11
775.0
 21
494.0
 31
0.0
  0
LINE
  5
97
100
AcDbEntity
100
AcDbLine
  8
corners
 62
256
370
-1
  6
ByLayer
 10
720.0
 20
425.0
 30
0.0
 11
774.0
 21
425.0
 31
0.0
  0
ARC
  5
98
100
AcDbEntity
  8
corners
 62
256
370
-1
  6
ByLayer
100
AcDbCircle
 10
774.0
 20
426.0
 30
0.0
 40
1.0
100
AcDbArc
 50
270.0
 51
0.0
  0
LINE
  5
99
100
AcDbEntity
100
AcDbLine
  8
corners
 62
256
370
-1
  6
ByLayer
 10
745.0
 20
495.0
 30
0.0
 11
721.0
 21
495.0
 31
0.0
  0
LINE
  5
9A
100
AcDbEntity
100
AcDbLine
  8
corners
 62
256
370
-1
  6
ByLayer
 10
720.0
 20
494.0
 30
0.0
 11
720.0
 21
425.0
 31
0.0
  0
ARC
  5
9B
100
AcDbEntity
  8
corners
 62
256
370
-1
  6
ByLayer
100
AcDbCircle
 10
721.0
 20
494.0
 30
0.0
 40
1.0
100
AcDbArc
 50
90.0
 51
180.0
  0
LINE
  5
9C
100
AcDbEntity
100
AcDbLine
  8
strips
 62
256
370
-1
  6
ByLayer
 10
718.0
 20
490.0
 30
0.0
 11
720.0
 21
490.0
 31
0.0
  0
LINE
  5
9D
100
AcDbEntity
100
AcDbLine
  8
strips
 62
256
370
-1
  6
ByLayer
 10
720.0
 20
490.0
 30
0.0
 11
720.0
 21
495.0
 31
0.0
  0
LINE
  5
9E
100
AcDbEntity
100
AcDbLine
  8
strips
 62
256
370
-1
  6
ByLayer
 10
718.0
 20
470.0
 30
0.0
 11
720.0
 21
470.0
 31
0.0
  0
LINE
  5
9F
100
AcDbEntity
100
AcDbLine
  8
strips
 62
256
370
-1
  6
ByLayer
 10
720.0
 20
470.0
 30
0.0
 11
720.0
 21
465.0
 31
0.0
  0
LINE
  5
A0
100
AcDbEntity
100
AcDbLine
  8
strips
 62
256
370
-1
  6
ByLayer
 10
720.0
 20
465.0
 30
0.0
 11
732.0
 21
465.0
 31
0.0
  0
LINE
  5
A1
100
AcDbEntity
100
AcDbLine
  8
strips
 62
256
370
-1
  6
ByLayer
 10
770.0
 20
424.0
 30
0.0
 11
770.0
 21
425.0
 31
0.0
  0
LINE
  5
A2
100
AcDbEntity
100
AcDbLine
  8
strips
 62
256
370
-1
  6
ByLayer
 10
770.0
 20
425.0
 30
0.0
 11
775.0
 21
425.0
 31
0.0
  0
LINE
  5
A3
100
AcDbEntity
100
AcDbLine
  8
strips
 62
256
370
-1
  6
ByLayer
 10
775.0
 20
425.0
 30
0.0
 11
775.0
 21
440.0
 31
0.0
  0
LINE
  5
A4
100
AcDbEntity
100
AcDbLine
  8
strips
 62
256
370
-1
  6
ByLayer
 10
750.0
 20
424.0
 30
0.0
 11
750.0
 21
425.0
 31
0.0
  0
LINE
  5
A5
100
AcDbEntity
100
AcDbLine
  8
strips
 62
256
370
-1
  6
ByLayer
 10
750.0
 20
425.0
 30
0.0
 11
745.0
 21
425.0
 31
0.0
  0
LINE
  5
A6
100
AcDbEntity
100
AcDbLine
  8
strips
 62
256
370
-1
  6
ByLayer
 10
745.0
 20
425.0
 30
0.0
 11
745.0
 21
436.0
 31
0.0
  0
LINE
  5
A7
100
AcDbEntity
100
AcDbLine
  8
strips
 62
256
370
-1
  6
ByLayer
 10
722.2709063702064896
 20
454.6869513013733126
 30
0.0
 11
727.6872415785749126
 21
461.8746708917988144
 31
0.0
  0
LINE
  5
A8
100
AcDbEntity
100
AcDbLine
  8
strips
 62
256
370
-1
  6
ByLayer
 10
722.0
 20
446.0
 30
0.0
 11
722.2709063702064896
 21
454.6869513013733126
 31
0.0
  0
LINE
  5
A9
100
AcDbEntity
100
AcDbLine
  8
strips
 62
256
370
-1
  6
ByLayer
 10
755.0
 20
485.0
 30
0.0
 11
755.0
 21
474.9999999999999432
 31
0.0
  0
LINE
  5
AA
100
AcDbEntity
100
AcDbLine
  8
strips
 62
256
370
-1
  6
ByLayer
 10
745.0
 20
495.0
 30
0.0
 11
755.0
 21
485.0
 31
0.0
  0
LINE
  5
AB
100
AcDbEntity
100
AcDbLine
  8
strips
 62
256
370
-1
  6
ByLayer
 10
755.0
 20
474.9999999999999432
 30
0.0
 11
732.0
 21
465.0
 31
0.0
  0
LINE
  5
AC
100
AcDbEntity
100
AcDbLine
  8
strips
 62
256
370
-1
  6
ByLayer
 10
720.0
 20
495.0
 30
0.0
 11
745.0
 21
495.0
 31
0.0
  0
LINE
  5
AD
100
AcDbEntity
100
AcDbLine
  8
strips
 62
256
370
-1
  6
ByLayer
 10
765.0000000000001137
 20
470.0
 30
0.0
 11
775.0
 21
440.0
 31
0.0
  0
LINE
  5
AE
100
AcDbEntity
100
AcDbLine
  8
strips
 62
256
370
-1
  6
ByLayer
 10
750.0
 20
441.0
 30
0.0
 11
745.0
 21
436.0
 31
0.0
  0
POINT
  5
AF
100
AcDbEntity
100
AcDbPoint
  8
strips
 62
256
370
-1
  6
ByLayer
 10
749.3705088486804016
 20
441.7944389442947113
 30
0.0
  0
POINT
  5
B0
100
AcDbEntity
100
AcDbPoint
  8
strips
 62
256
370
-1
  6
ByLayer
 10
744.3857826257401484
 20
436.7174029764852321
 30
0.0
  0
LINE
  5
B1
100
AcDbEntity
100
AcDbLine
  8
strips
 62
256
370
-1
  6
ByLayer
 10
738.0
 20
434.0
 30
0.0
 11
744.3857826257401484
 21
436.7174029764852321
 31
0.0
  0
LINE
  5
B2
100
AcDbEntity
100
AcDbLine
  8
strips
 62
256
370
-1
  6
ByLayer
 10
744.3857826257401484
 20
436.7174029764852321
 30
0.0
 11
749.3705088486804016
 21
441.7944389442947113
 31
0.0
  0
POINT
  5
B3
100
AcDbEntity
100
AcDbPoint
  8
strips
 62
256
370
-1
  6
ByLayer
 10
754.5398545613592205
 20
460.5333171527551599
 30
0.0
  0
LINE
  5
B4
100
AcDbEntity
100
AcDbLine
  8
strips
 62
256
370
-1
  6
ByLayer
 10
750.0
 20
441.0
 30
0.0
 11
754.5398545613592205
 21
460.5333171527551599
 31
0.0
  0
POINT
  5
B5
100
AcDbEntity
100
AcDbPoint
  8
strips
 62
256
370
-1
  6
ByLayer
 10
754.2075394798308707
 20
464.5764839780295574
 30
0.0
  0
LINE
  5
B6
100
AcDbEntity
100
AcDbLine
  8
corners
 62
256
370
-1
  6
ByLayer
 10
725.0
 20
490.0
 30
0.0
 11
731.0
 21
490.0
 31
0.0
  0
LINE
  5
B7
100
AcDbEntity
100
AcDbLine
  8
corners
 62
256
370
-1
  6
ByLayer
 10
731.0
 20
486.0
 30
0.0
 11
725.0
 21
486.0
 31
0.0
  0
LINE
  5
B8
100
AcDbEntity
100
AcDbLine
  8
corners
 62
256
370
-1
  6
ByLayer
 10
725.0
 20
474.0
 30
0.0
 11
731.0
 21
474.0
 31
0.0
  0
LINE
  5
B9
100
AcDbEntity
100
AcDbLine
  8
corners
 62
256
370
-1
  6
ByLayer
 10
728.6713440130511117
 20
454.8724182258022211
 30
0.0
 11
725.0604538741388296
 21
450.0806051655184774
 31
0.0
  0
LINE
  5
BA
100
AcDbEntity
100
AcDbLine
  8
corners
 62
256
370
-1
  6
ByLayer
 10
728.2549959143279921
 20
447.6733450729103083
 30
0.0
 11
731.8658860532402741
 21
452.465158133194052
 31
0.0
  0
LINE
  5
BB
100
AcDbEntity
100
AcDbLine
  8
corners
 62
256
370
-1
  6
ByLayer
 10
741.4495121738077614
 20
445.2433778553694879
 30
0.0
 11
737.8386220348954794
 21
440.4515647950856874
 31
0.0
  0
LINE
  5
BC
100
AcDbEntity
100
AcDbLine
  8
corners
 62
256
370
-1
  6
ByLayer
 10
741.0331640750846418
 20
438.0443047024775183
 30
0.0
 11
744.6440542139969239
 21
442.8361177627612619
 31
0.0
  0
LINE
  5
BD
100
AcDbEntity
100
AcDbLine
  8
corners
 62
256
370
-1
  6
ByLayer
 10
750.0
 20
436.0
 30
0.0
 11
750.0
 21
430.0
 31
0.0
  0
LINE
  5
BE
100
AcDbEntity
100
AcDbLine
  8
corners
 62
256
370
-1
  6
ByLayer
 10
754.0
 20
430.0
 30
0.0
 11
754.0
 21
436.0
 31
0.0
  0
LINE
  5
BF
100
AcDbEntity
100
AcDbLine
  8
corners
 62
256
370
-1
  6
ByLayer
 10
766.0
 20
436.0
 30
0.0
 11
766.0
 21
430.0
 31
0.0
  0
LINE
  5
C0
100
AcDbEntity
100
AcDbLine
  8
corners
 62
256
370
-1
  6
ByLayer
 10
770.0
 20
436.0
 30
0.0
 11
770.0
 21
430.0
 31
0.0
  0
LINE
  5
C1
100
AcDbEntity
100
AcDbLine
  8
corners
 62
256
370
-1
  6
ByLayer
 10
731.0
 20
470.0
 30
0.0
 11
725.0
 21
470.0
 31
0.0
  0
LINE
  5
C2
100
AcDbEntity
100
AcDbLine
  8
strips
 62
256
370
-1
  6
ByLayer
 10
766.0
 20
436.0
 30
0.0
 11
770.0
 21
436.0
 31
0.0
  0
LINE
  5
C3
100
AcDbEntity
100
AcDbLine
  8
strips
 62
256
370
-1
  6
ByLayer
 10
766.0
 20
430.0
 30
0.0
 11
770.0
 21
430.0
 31
0.0
  0
LINE
  5
C4
100
AcDbEntity
100
AcDbLine
  8
strips
 62
256
370
-1
  6
ByLayer
 10
750.0
 20
436.0
 30
0.0
 11
754.0
 21
436.0
 31
0.0
  0
LINE
  5
C5
100
AcDbEntity
100
AcDbLine
  8
strips
 62
256
370
-1
  6
ByLayer
 10
750.0
 20
430.0
 30
0.0
 11
754.0
 21
430.0
 31
0.0
  0
LINE
  5
C6
100
AcDbEntity
100
AcDbLine
  8
strips
 62
256
370
-1
  6
ByLayer
 10
731.0
 20
474.0
 30
0.0
 11
731.0
 21
470.0
 31
0.0
  0
LINE
  5
C7
100
AcDbEntity
100
AcDbLine
  8
strips
 62
256
370
-1
  6
ByLayer
 10
725.0
 20
474.0
 30
0.0
 11
725.0
 21
470.0
 31
0.0
  0
LINE
  5
C8
100
AcDbEntity
100
AcDbLine
  8
strips
 62
256
370
-1
  6
ByLayer
 10
731.0
 20
490.0
 30
0.0
 11
731.0
 21
486.0
 31
0.0
  0
LINE
  5
C9
100
AcDbEntity
100
AcDbLine
  8
strips
 62
256
370
-1
  6
ByLayer
 10
725.0
 20
490.0
 30
0.0
 11
725.0
 21
486.0
 31
0.0
  0
LINE
  5
CA
100
AcDbEntity
100
AcDbLine
  8
strips
 62
256
370
-1
  6
ByLayer
 10
741.4495121738077614
 20
445.2433778553694879
 30
0.0
 11
744.6440542139969239
 21
442.8361177627612619
 31
0.0
  0
LINE
  5
CB
100
AcDbEntity
100
AcDbLine
  8
strips
 62
256
370
-1
  6
ByLayer
 10
737.8386220348954794
 20
440.4515647950856874
 30
0.0
 11
741.0331640750846418
 21
438.0443047024775183
 31
0.0
  0
LINE
  5
CC
100
AcDbEntity
100
AcDbLine
  8
strips
 62
256
370
-1
  6
ByLayer
 10
728.6713440130511117
 20
454.8724182258022211
 30
0.0
 11
731.8658860532402741
 21
452.465158133194052
 31
0.0
  0
LINE
  5
CD
100
AcDbEntity
100
AcDbLine
  8
strips
 62
256
370
-1
  6
ByLayer
 10
725.0604538741388296
 20
450.0806051655184774
 30
0.0
 11
728.2549959143279921
 21
447.6733450729103083
 31
0.0
  0
LINE
  5
CE
100
AcDbEntity
100
AcDbLine
  8
strips
 62
256
370
-1
  6
ByLayer
 10
725.0
 20
490.0
 30
0.0
 11
731.0
 21
490.0
 31
0.0
  0
LINE
  5
CF
100
AcDbEntity
100
AcDbLine
  8
strips
 62
256
370
-1
  6
ByLayer
 10
731.0
 20
486.0
 30
0.0
 11
725.0
 21
486.0
 31
0.0
  0
LINE
  5
D0
100
AcDbEntity
100
AcDbLine
  8
strips
 62
256
370
-1
  6
ByLayer
 10
725.0
 20
474.0
 30
0.0
 11
731.0
 21
474.0
 31
0.0
  0
LINE
  5
D1
100
AcDbEntity
100
AcDbLine
  8
strips
 62
256
370
-1
  6
ByLayer
 10
728.6713440130511117
 20
454.8724182258022211
 30
0.0
 11
725.0604538741388296
 21
450.0806051655184774
 31
0.0
  0
LINE
  5
D2
100
AcDbEntity
100
AcDbLine
  8
strips
 62
256
370
-1
  6
ByLayer
 10
728.2549959143279921
 20
447.6733450729103083
 30
0.0
 11
731.8658860532402741
 21
452.465158133194052
 31
0.0
  0
LINE
  5
D3
100
AcDbEntity
100
AcDbLine
  8
strips
 62
256
370
-1
  6
ByLayer
 10
741.4495121738077614
 20
445.2433778553694879
 30
0.0
 11
737.8386220348954794
 21
440.4515647950856874
 31
0.0
  0
LINE
  5
D4
100
AcDbEntity
100
AcDbLine
  8
strips
 62
256
370
-1
  6
ByLayer
 10
741.0331640750846418
 20
438.0443047024775183
 30
0.0
 11
744.6440542139969239
 21
442.8361177627612619
 31
0.0
  0
LINE
  5
D5
100
AcDbEntity
100
AcDbLine
  8
strips
 62
256
370
-1
  6
ByLayer
 10
750.0
 20
436.0
 30
0.0
 11
750.0
 21
430.0
 31
0.0
  0
LINE
  5
D6
100
AcDbEntity
100
AcDbLine
  8
strips
 62
256
370
-1
  6
ByLayer
 10
754.0
 20
430.0
 30
0.0
 11
754.0
 21
436.0
 31
0.0
  0
LINE
  5
D7
100
AcDbEntity
100
AcDbLine
  8
strips
 62
256
370
-1
  6
ByLayer
 10
766.0
 20
436.0
 30
0.0
 11
766.0
 21
430.0
 31
0.0
  0
LINE
  5
D8
100
AcDbEntity
100
AcDbLine
  8
strips
 62
256
370
-1
  6
ByLayer
 10
770.0
 20
436.0
 30
0.0
 11
770.0
 21
430.0
 31
0.0
  0
LINE
  5
D9
100
AcDbEntity
100
AcDbLine
  8
strips
 62
256
370
-1
  6
ByLayer
 10
731.0
 20
470.0
 30
0.0
 11
725.0
 21
470.0
 31
0.0
  0
LINE
  5
DA
100
AcDbEntity
100
AcDbLine
  8
corner bits
 62
256
370
-1
  6
ByLayer
 10
755.0
 20
250.0
 30
0.0
 11
765.0
 21
250.0
 31
0.0
  0
LINE
  5
DB
100
AcDbEntity
100
AcDbLine
  8
corner bits
 62
256
370
-1
  6
ByLayer
 10
754.9999999999998863
 20
230.0
 30
0.0
 11
765.0000000000001137
 21
230.0000000000000284
 31
0.0
  0
LINE
  5
DC
100
AcDbEntity
100
AcDbLine
  8
strips
 62
256
370
-1
  6
ByLayer
 10
766.0
 20
266.0
 30
0.0
 11
770.0
 21
266.0
 31
0.0
  0
LINE
  5
DD
100
AcDbEntity
100
AcDbLine
  8
strips
 62
256
370
-1
  6
ByLayer
 10
766.0
 20
260.0
 30
0.0
 11
770.0
 21
260.0
 31
0.0
  0
LINE
  5
DE
100
AcDbEntity
100
AcDbLine
  8
strips
 62
256
370
-1
  6
ByLayer
 10
750.0
 20
266.0
 30
0.0
 11
754.0
 21
266.0
 31
0.0
  0
LINE
  5
DF
100
AcDbEntity
100
AcDbLine
  8
strips
 62
256
370
-1
  6
ByLayer
 10
750.0
 20
260.0
 30
0.0
 11
754.0
 21
260.0
 31
0.0
  0
LINE
  5
E0
100
AcDbEntity
100
AcDbLine
  8
strips
 62
256
370
-1
  6
ByLayer
 10
750.0
 20
266.0
 30
0.0
 11
750.0
 21
260.0
 31
0.0
  0
LINE
  5
E1
100
AcDbEntity
100
AcDbLine
  8
strips
 62
256
370
-1
  6
ByLayer
 10
754.0
 20
260.0
 30
0.0
 11
754.0
 21
266.0
 31
0.0
  0
LINE
  5
E2
100
AcDbEntity
100
AcDbLine
  8
strips
 62
256
370
-1
  6
ByLayer
 10
766.0
 20
266.0
 30
0.0
 11
766.0
 21
260.0
 31
0.0
  0
LINE
  5
E3
100
AcDbEntity
100
AcDbLine
  8
strips
 62
256
370
-1
  6
ByLayer
 10
770.0
 20
266.0
 30
0.0
 11
770.0
 21
260.0
 31
0.0
  0
LINE
  5
E4
100
AcDbEntity
100
AcDbLine
  8
strips
 62
256
370
-1
  6
ByLayer
 10
766.0
 20
220.0
 30
0.0
 11
770.0
 21
220.0
 31
0.0
  0
LINE
  5
E5
100
AcDbEntity
100
AcDbLine
  8
strips
 62
256
370
-1
  6
ByLayer
 10
766.0
 20
214.0
 30
0.0
 11
770.0
 21
214.0
 31
0.0
  0
LINE
  5
E6
100
AcDbEntity
100
AcDbLine
  8
strips
 62
256
370
-1
  6
ByLayer
 10
750.0
 20
220.0
 30
0.0
 11
754.0
 21
220.0
 31
0.0
  0
LINE
  5
E7
100
AcDbEntity
100
AcDbLine
  8
strips
 62
256
370
-1
  6
ByLayer
 10
750.0
 20
214.0
 30
0.0
 11
754.0
 21
214.0
 31
0.0
  0
LINE
  5
E8
100
AcDbEntity
100
AcDbLine
  8
strips
 62
256
370
-1
  6
ByLayer
 10
750.0
 20
220.0
 30
0.0
 11
750.0
 21
214.0
 31
0.0
  0
LINE
  5
E9
100
AcDbEntity
100
AcDbLine
  8
strips
 62
256
370
-1
  6
ByLayer
 10
754.0
 20
214.0
 30
0.0
 11
754.0
 21
220.0
 31
0.0
  0
LINE
  5
EA
100
AcDbEntity
100
AcDbLine
  8
strips
 62
256
370
-1
  6
ByLayer
 10
766.0
 20
220.0
 30
0.0
 11
766.0
 21
214.0
 31
0.0
  0
LINE
  5
EB
100
AcDbEntity
100
AcDbLine
  8
strips
 62
256
370
-1
  6
ByLayer
 10
770.0
 20
220.0
 30
0.0
 11
770.0
 21
214.0
 31
0.0
  0
LINE
  5
EC
100
AcDbEntity
100
AcDbLine
  8
strips
 62
256
370
-1
  6
ByLayer
 10
745.0
 20
246.0
 30
0.0
 11
745.0
 21
250.0
 31
0.0
  0
LINE
  5
ED
100
AcDbEntity
100
AcDbLine
  8
strips
 62
256
370
-1
  6
ByLayer
 10
739.0
 20
230.0
 30
0.0
 11
739.0
 21
234.0
 31
0.0
  0
LINE
  5
EE
100
AcDbEntity
100
AcDbLine
  8
strips
 62
256
370
-1
  6
ByLayer
 10
745.0
 20
230.0
 30
0.0
 11
745.0
 21
234.0
 31
0.0
  0
LINE
  5
EF
100
AcDbEntity
100
AcDbLine
  8
strips
 62
256
370
-1
  6
ByLayer
 10
739.0
 20
230.0
 30
0.0
 11
745.0
 21
230.0
 31
0.0
  0
LINE
  5
F0
100
AcDbEntity
100
AcDbLine
  8
strips
 62
256
370
-1
  6
ByLayer
 10
745.0
 20
234.0
 30
0.0
 11
739.0
 21
234.0
 31
0.0
  0
LINE
  5
F1
100
AcDbEntity
100
AcDbLine
  8
strips
 62
256
370
-1
  6
ByLayer
 10
739.0
 20
246.0
 30
0.0
 11
745.0
 21
246.0
 31
0.0
  0
LINE
  5
F2
100
AcDbEntity
100
AcDbLine
  8
strips
 62
256
370
-1
  6
ByLayer
 10
739.0
 20
250.0
 30
0.0
 11
745.0
 21
250.0
 31
0.0
  0
LINE
  5
F3
100
AcDbEntity
100
AcDbLine
  8
corner bits
 62
256
370
-1
  6
ByLayer
 10
745.0
 20
266.0
 30
0.0
 11
745.0
 21
260.0
 31
0.0
  0
LINE
  5
F4
100
AcDbEntity
100
AcDbLine
  8
corner bits
 62
256
370
-1
  6
ByLayer
 10
775.0
 20
266.0
 30
0.0
 11
775.0
 21
260.0
 31
0.0
  0
LINE
  5
F5
100
AcDbEntity
100
AcDbLine
  8
corner bits
 62
256
370
-1
  6
ByLayer
 10
745.0
 20
220.0
 30
0.0
 11
745.0
 21
214.0
 31
0.0
  0
LINE
  5
F6
100
AcDbEntity
100
AcDbLine
  8
corner bits
 62
256
370
-1
  6
ByLayer
 10
775.0
 20
220.0
 30
0.0
 11
775.0
 21
214.0
 31
0.0
  0
LINE
  5
F7
100
AcDbEntity
100
AcDbLine
  8
corner bits
 62
256
370
-1
  6
ByLayer
 10
754.9999999999998863
 20
230.0
 30
0.0
 11
745.0
 21
220.0
 31
0.0
  0
LINE
  5
F8
100
AcDbEntity
100
AcDbLine
  8
corner bits
 62
256
370
-1
  6
ByLayer
 10
745.0
 20
214.0
 30
0.0
 11
750.0000000000001137
 21
184.0
 31
0.0
  0
LINE
  5
F9
100
AcDbEntity
100
AcDbLine
  8
corner bits
 62
256
370
-1
  6
ByLayer
 10
770.0
 20
184.0
 30
0.0
 11
775.0
 21
214.0
 31
0.0
  0
LINE
  5
FA
100
AcDbEntity
100
AcDbLine
  8
corner bits
 62
256
370
-1
  6
ByLayer
 10
775.0
 20
220.0
 30
0.0
 11
765.0000000000001137
 21
230.0000000000000284
 31
0.0
  0
LINE
  5
FB
100
AcDbEntity
100
AcDbLine
  8
corner bits
 62
256
370
-1
  6
ByLayer
 10
745.0
 20
260.0
 30
0.0
 11
755.0
 21
250.0
 31
0.0
  0
LINE
  5
FC
100
AcDbEntity
100
AcDbLine
  8
corner bits
 62
256
370
-1
  6
ByLayer
 10
765.0
 20
250.0
 30
0.0
 11
775.0
 21
260.0
 31
0.0
  0
LINE
  5
FD
100
AcDbEntity
100
AcDbLine
  8
corner bits
 62
256
370
-1
  6
ByLayer
 10
775.0
 20
266.0
 30
0.0
 11
770.0
 21
296.0
 31
0.0
  0
LINE
  5
FE
100
AcDbEntity
100
AcDbLine
  8
corner bits
 62
256
370
-1
  6
ByLayer
 10
750.0
 20
296.0
 30
0.0
 11
745.0
 21
266.0
 31
0.0
  0
LINE
  5
FF
100
AcDbEntity
100
AcDbLine
  8
strips
 62
256
370
-1
  6
ByLayer
 10
739.0
 20
246.0
 30
0.0
 11
739.0
 21
250.0
 31
0.0
  0
LINE
  5
100
100
AcDbEntity
100
AcDbLine
  8
strips
 62
256
370
-1
  6
ByLayer
 10
755.0
 20
235.0
 30
0.0
 11
755.0
 21
245.0
 31
0.0
  0
LINE
  5
101
100
AcDbEntity
100
AcDbLine
  8
strips
 62
256
370
-1
  6
ByLayer
 10
739.0
 20
225.0
 30
0.0
 11
745.0
 21
225.0
 31
0.0
  0
LINE
  5
102
100
AcDbEntity
100
AcDbLine
  8
strips
 62
256
370
-1
  6
ByLayer
 10
718.0
 20
250.0
 30
0.0
 11
739.0
 21
255.0
 31
0.0
  0
LINE
  5
103
100
AcDbEntity
100
AcDbLine
  8
strips
 62
256
370
-1
  6
ByLayer
 10
739.0
 20
255.0
 30
0.0
 11
745.0
 21
255.0
 31
0.0
  0
LINE
  5
104
100
AcDbEntity
100
AcDbLine
  8
strips
 62
256
370
-1
  6
ByLayer
 10
745.0
 20
255.0
 30
0.0
 11
755.0
 21
245.0
 31
0.0
  0
LINE
  5
105
100
AcDbEntity
100
AcDbLine
  8
strips
 62
256
370
-1
  6
ByLayer
 10
755.0
 20
235.0
 30
0.0
 11
745.0
 21
225.0
 31
0.0
  0
LINE
  5
106
100
AcDbEntity
100
AcDbLine
  8
strips
 62
256
370
-1
  6
ByLayer
 10
739.0
 20
225.0
 30
0.0
 11
718.0
 21
230.0
 31
0.0
  0
LINE
  5
107
100
AcDbEntity
100
AcDbLine
  8
corner bits
 62
256
370
-1
  6
ByLayer
 10
405.0000000000001137
 20
230.0000000000000568
 30
0.0
 11
395.0000000000001137
 21
230.0000000000000568
 31
0.0
  0
LINE
  5
108
100
AcDbEntity
100
AcDbLine
  8
corner bits
 62
256
370
-1
  6
ByLayer
 10
405.0000000000002274
 20
250.0000000000000568
 30
0.0
 11
395.0
 21
250.0000000000000284
 31
0.0
  0
LINE
  5
109
100
AcDbEntity
100
AcDbLine
  8
strips
 62
256
370
-1
  6
ByLayer
 10
394.0000000000001137
 20
214.0000000000000568
 30
0.0
 11
390.0000000000001137
 21
214.0000000000000568
 31
0.0
  0
LINE
  5
10A
100
AcDbEntity
100
AcDbLine
  8
strips
 62
256
370
-1
  6
ByLayer
 10
394.0000000000001137
 20
220.0000000000000568
 30
0.0
 11
390.0000000000001137
 21
220.0000000000000568
 31
0.0
  0
LINE
  5
10B
100
AcDbEntity
100
AcDbLine
  8
strips
 62
256
370
-1
  6
ByLayer
 10
410.0000000000001137
 20
214.0000000000000568
 30
0.0
 11
406.0000000000000568
 21
214.0000000000000568
 31
0.0
  0
LINE
  5
10C
100
AcDbEntity
100
AcDbLine
  8
strips
 62
256
370
-1
  6
ByLayer
 10
410.0000000000001137
 20
220.0000000000000568
 30
0.0
 11
406.0000000000000568
 21
220.0000000000000568
 31
0.0
  0
LINE
  5
10D
100
AcDbEntity
100
AcDbLine
  8
strips
 62
256
370
-1
  6
ByLayer
 10
410.0000000000001137
 20
214.0000000000000568
 30
0.0
 11
410.0000000000001137
 21
220.0000000000000568
 31
0.0
  0
LINE
  5
10E
100
AcDbEntity
100
AcDbLine
  8
strips
 62
256
370
-1
  6
ByLayer
 10
406.0000000000000568
 20
220.0000000000000568
 30
0.0
 11
406.0000000000000568
 21
214.0000000000000568
 31
0.0
  0
LINE
  5
10F
100
AcDbEntity
100
AcDbLine
  8
strips
 62
256
370
-1
  6
ByLayer
 10
394.0000000000001137
 20
214.0000000000000568
 30
0.0
 11
394.0000000000001137
 21
220.0000000000000568
 31
0.0
  0
LINE
  5
110
100
AcDbEntity
100
AcDbLine
  8
strips
 62
256
370
-1
  6
ByLayer
 10
390.0000000000001137
 20
214.0000000000000568
 30
0.0
 11
390.0000000000001137
 21
220.0000000000000568
 31
0.0
  0
LINE
  5
111
100
AcDbEntity
100
AcDbLine
  8
strips
 62
256
370
-1
  6
ByLayer
 10
394.0000000000001137
 20
260.0000000000000568
 30
0.0
 11
390.0000000000001137
 21
260.0000000000000568
 31
0.0
  0
LINE
  5
112
100
AcDbEntity
100
AcDbLine
  8
strips
 62
256
370
-1
  6
ByLayer
 10
394.0000000000001137
 20
266.0000000000000568
 30
0.0
 11
390.0000000000001137
 21
266.0000000000000568
 31
0.0
  0
LINE
  5
113
100
AcDbEntity
100
AcDbLine
  8
strips
 62
256
370
-1
  6
ByLayer
 10
410.0000000000001137
 20
260.0000000000000568
 30
0.0
 11
406.0000000000001137
 21
260.0000000000000568
 31
0.0
  0
LINE
  5
114
100
AcDbEntity
100
AcDbLine
  8
strips
 62
256
370
-1
  6
ByLayer
 10
410.0000000000001137
 20
266.0000000000000568
 30
0.0
 11
406.0000000000001137
 21
266.0000000000000568
 31
0.0
  0
LINE
  5
115
100
AcDbEntity
100
AcDbLine
  8
strips
 62
256
370
-1
  6
ByLayer
 10
410.0000000000001137
 20
260.0000000000000568
 30
0.0
 11
410.0000000000001137
 21
266.0000000000000568
 31
0.0
  0
LINE
  5
116
100
AcDbEntity
100
AcDbLine
  8
strips
 62
256
370
-1
  6
ByLayer
 10
406.0000000000001137
 20
266.0000000000000568
 30
0.0
 11
406.0000000000001137
 21
260.0000000000000568
 31
0.0
  0
LINE
  5
117
100
AcDbEntity
100
AcDbLine
  8
strips
 62
256
370
-1
  6
ByLayer
 10
394.0000000000001137
 20
260.0000000000000568
 30
0.0
 11
394.0000000000001137
 21
266.0000000000000568
 31
0.0
  0
LINE
  5
118
100
AcDbEntity
100
AcDbLine
  8
strips
 62
256
370
-1
  6
ByLayer
 10
390.0000000000001137
 20
260.0000000000000568
 30
0.0
 11
390.0000000000001137
 21
266.0000000000000568
 31
0.0
  0
LINE
  5
119
100
AcDbEntity
100
AcDbLine
  8
strips
 62
256
370
-1
  6
ByLayer
 10
415.0000000000001137
 20
234.0000000000000568
 30
0.0
 11
415.0000000000001137
 21
230.0000000000000568
 31
0.0
  0
LINE
  5
11A
100
AcDbEntity
100
AcDbLine
  8
strips
 62
256
370
-1
  6
ByLayer
 10
421.0000000000001137
 20
250.0000000000000568
 30
0.0
 11
421.0000000000001137
 21
246.0000000000000568
 31
0.0
  0
LINE
  5
11B
100
AcDbEntity
100
AcDbLine
  8
strips
 62
256
370
-1
  6
ByLayer
 10
415.0000000000001137
 20
250.0000000000000568
 30
0.0
 11
415.0000000000001137
 21
246.0000000000000568
 31
0.0
  0
LINE
  5
11C
100
AcDbEntity
100
AcDbLine
  8
strips
 62
256
370
-1
  6
ByLayer
 10
421.0000000000001137
 20
250.0000000000000568
 30
0.0
 11
415.0000000000001137
 21
250.0000000000000568
 31
0.0
  0
LINE
  5
11D
100
AcDbEntity
100
AcDbLine
  8
strips
 62
256
370
-1
  6
ByLayer
 10
415.0000000000001137
 20
246.0000000000000568
 30
0.0
 11
421.0000000000001137
 21
246.0000000000000568
 31
0.0
  0
LINE
  5
11E
100
AcDbEntity
100
AcDbLine
  8
strips
 62
256
370
-1
  6
ByLayer
 10
421.0000000000001137
 20
234.0000000000000568
 30
0.0
 11
415.0000000000001137
 21
234.0000000000000568
 31
0.0
  0
LINE
  5
11F
100
AcDbEntity
100
AcDbLine
  8
strips
 62
256
370
-1
  6
ByLayer
 10
421.0000000000001137
 20
230.0000000000000568
 30
0.0
 11
415.0000000000001137
 21
230.0000000000000568
 31
0.0
  0
LINE
  5
120
100
AcDbEntity
100
AcDbLine
  8
corner bits
 62
256
370
-1
  6
ByLayer
 10
415.0000000000001137
 20
214.0000000000000568
 30
0.0
 11
415.0000000000000568
 21
220.0000000000000568
 31
0.0
  0
LINE
  5
121
100
AcDbEntity
100
AcDbLine
  8
corner bits
 62
256
370
-1
  6
ByLayer
 10
385.0000000000000568
 20
214.0000000000000568
 30
0.0
 11
385.0000000000000568
 21
220.0000000000000568
 31
0.0
  0
LINE
  5
122
100
AcDbEntity
100
AcDbLine
  8
corner bits
 62
256
370
-1
  6
ByLayer
 10
415.0000000000001137
 20
260.0000000000000568
 30
0.0
 11
415.0000000000001137
 21
266.0000000000000568
 31
0.0
  0
LINE
  5
123
100
AcDbEntity
100
AcDbLine
  8
corner bits
 62
256
370
-1
  6
ByLayer
 10
385.0000000000001137
 20
260.0000000000000568
 30
0.0
 11
385.0000000000001137
 21
266.0000000000000568
 31
0.0
  0
LINE
  5
124
100
AcDbEntity
100
AcDbLine
  8
corner bits
 62
256
370
-1
  6
ByLayer
 10
405.0000000000002274
 20
250.0000000000000568
 30
0.0
 11
415.0000000000001137
 21
260.0000000000000568
 31
0.0
  0
LINE
  5
125
100
AcDbEntity
100
AcDbLine
  8
corner bits
 62
256
370
-1
  6
ByLayer
 10
415.0000000000001137
 20
266.0000000000000568
 30
0.0
 11
410.0
 21
296.0000000000000568
 31
0.0
  0
LINE
  5
126
100
AcDbEntity
100
AcDbLine
  8
corner bits
 62
256
370
-1
  6
ByLayer
 10
390.0000000000001137
 20
296.0000000000000568
 30
0.0
 11
385.0000000000001137
 21
266.0000000000000568
 31
0.0
  0
LINE
  5
127
100
AcDbEntity
100
AcDbLine
  8
corner bits
 62
256
370
-1
  6
ByLayer
 10
385.0000000000001137
 20
260.0000000000000568
 30
0.0
 11
395.0
 21
250.0000000000000284
 31
0.0
  0
LINE
  5
128
100
AcDbEntity
100
AcDbLine
  8
corner bits
 62
256
370
-1
  6
ByLayer
 10
415.0000000000000568
 20
220.0000000000000568
 30
0.0
 11
405.0000000000001137
 21
230.0000000000000568
 31
0.0
  0
LINE
  5
129
100
AcDbEntity
100
AcDbLine
  8
corner bits
 62
256
370
-1
  6
ByLayer
 10
395.0000000000001137
 20
230.0000000000000568
 30
0.0
 11
385.0000000000000568
 21
220.0000000000000568
 31
0.0
  0
LINE
  5
12A
100
AcDbEntity
100
AcDbLine
  8
corner bits
 62
256
370
-1
  6
ByLayer
 10
385.0000000000000568
 20
214.0000000000000568
 30
0.0
 11
390.0000000000000568
 21
184.0000000000000568
 31
0.0
  0
LINE
  5
12B
100
AcDbEntity
100
AcDbLine
  8
corner bits
 62
256
370
-1
  6
ByLayer
 10
410.0000000000000568
 20
184.0000000000000568
 30
0.0
 11
415.0000000000001137
 21
214.0000000000000568
 31
0.0
  0
LINE
  5
12C
100
AcDbEntity
100
AcDbLine
  8
strips
 62
256
370
-1
  6
ByLayer
 10
421.0000000000001137
 20
234.0000000000000568
 30
0.0
 11
421.0000000000001137
 21
230.0000000000000568
 31
0.0
  0
LINE
  5
12D
100
AcDbEntity
100
AcDbLine
  8
strips
 62
256
370
-1
  6
ByLayer
 10
405.0000000000001137
 20
245.0000000000000568
 30
0.0
 11
405.0000000000001137
 21
235.0000000000000568
 31
0.0
  0
LINE
  5
12E
100
AcDbEntity
100
AcDbLine
  8
strips
 62
256
370
-1
  6
ByLayer
 10
421.0000000000001137
 20
255.0000000000000568
 30
0.0
 11
415.0000000000001137
 21
255.0000000000000568
 31
0.0
  0
LINE
  5
12F
100
AcDbEntity
100
AcDbLine
  8
strips
 62
256
370
-1
  6
ByLayer
 10
442.0000000000001137
 20
230.0000000000000568
 30
0.0
 11
421.0000000000001137
 21
225.0000000000000568
 31
0.0
  0
LINE
  5
130
100
AcDbEntity
100
AcDbLine
  8
strips
 62
256
370
-1
  6
ByLayer
 10
421.0000000000001137
 20
225.0000000000000568
 30
0.0
 11
415.0000000000001137
 21
225.0000000000000568
 31
0.0
  0
LINE
  5
131
100
AcDbEntity
100
AcDbLine
  8
strips
 62
256
370
-1
  6
ByLayer
 10
415.0000000000001137
 20
225.0000000000000568
 30
0.0
 11
405.0000000000001137
 21
235.0000000000000568
 31
0.0
  0
LINE
  5
132
100
AcDbEntity
100
AcDbLine
  8
strips
 62
256
370
-1
  6
ByLayer
 10
405.0000000000001137
 20
245.0000000000000568
 30
0.0
 11
415.0000000000001137
 21
255.0000000000000568
 31
0.0
  0
LINE
  5
133
100
AcDbEntity
100
AcDbLine
  8
strips
 62
256
370
-1
  6
ByLayer
 10
421.0000000000001137
 20
255.0000000000000568
 30
0.0
 11
442.0000000000001137
 21
250.0000000000000568
 31
0.0
  0
LINE
  5
134
100
AcDbEntity
100
AcDbLine
  8
corner bits
 62
256
370
-1
  6
ByLayer
 10
585.0
 20
-5.0000000000001155
 30
0.0
 11
585.0
 21
5.0000000000001119
 31
0.0
  0
LINE
  5
135
100
AcDbEntity
100
AcDbLine
  8
strips
 62
256
370
-1
  6
ByLayer
 10
595.0
 20
5.9999999999999982
 30
0.0
 11
595.0
 21
9.9999999999999982
 31
0.0
  0
LINE
  5
136
100
AcDbEntity
100
AcDbLine
  8
strips
 62
256
370
-1
  6
ByLayer
 10
601.0
 20
5.9999999999999982
 30
0.0
 11
601.0
 21
9.9999999999999982
 31
0.0
  0
LINE
  5
137
100
AcDbEntity
100
AcDbLine
  8
strips
 62
256
370
-1
  6
ByLayer
 10
595.0
 20
-10.0000000000000018
 30
0.0
 11
595.0
 21
-6.0000000000000018
 31
0.0
  0
LINE
  5
138
100
AcDbEntity
100
AcDbLine
  8
strips
 62
256
370
-1
  6
ByLayer
 10
601.0
 20
-10.0000000000000018
 30
0.0
 11
601.0
 21
-6.0000000000000018
 31
0.0
  0
LINE
  5
139
100
AcDbEntity
100
AcDbLine
  8
strips
 62
256
370
-1
  6
ByLayer
 10
595.0
 20
-10.0000000000000018
 30
0.0
 11
601.0
 21
-10.0000000000000018
 31
0.0
  0
LINE
  5
13A
100
AcDbEntity
100
AcDbLine
  8
strips
 62
256
370
-1
  6
ByLayer
 10
601.0
 20
-6.0000000000000018
 30
0.0
 11
595.0
 21
-6.0000000000000018
 31
0.0
  0
LINE
  5
13B
100
AcDbEntity
100
AcDbLine
  8
strips
 62
256
370
-1
  6
ByLayer
 10
595.0
 20
5.9999999999999982
 30
0.0
 11
601.0
 21
5.9999999999999982
 31
0.0
  0
LINE
  5
13C
100
AcDbEntity
100
AcDbLine
  8
strips
 62
256
370
-1
  6
ByLayer
 10
595.0
 20
9.9999999999999982
 30
0.0
 11
601.0
 21
9.9999999999999982
 31
0.0
  0
LINE
  5
13D
100
AcDbEntity
100
AcDbLine
  8
corner bits
 62
256
370
-1
  6
ByLayer
 10
595.0
 20
-15.0000000000000018
 30
0.0
 11
601.0
 21
-15.0000000000000018
 31
0.0
  0
LINE
  5
13E
100
AcDbEntity
100
AcDbLine
  8
corner bits
 62
256
370
-1
  6
ByLayer
 10
595.0
 20
14.9999999999999982
 30
0.0
 11
601.0
 21
14.9999999999999982
 31
0.0
  0
LINE
  5
13F
100
AcDbEntity
100
AcDbLine
  8
corner bits
 62
256
370
-1
  6
ByLayer
 10
585.0
 20
-5.0000000000001155
 30
0.0
 11
595.0
 21
-15.0000000000000018
 31
0.0
  0
LINE
  5
140
100
AcDbEntity
100
AcDbLine
  8
corner bits
 62
256
370
-1
  6
ByLayer
 10
595.0
 20
14.9999999999999982
 30
0.0
 11
585.0
 21
5.0000000000001119
 31
0.0
  0
LINE
  5
141
100
AcDbEntity
100
AcDbLine
  8
corner bits
 62
256
370
-1
  6
ByLayer
 10
622.0
 20
10.0000000000001297
 30
0.0
 11
601.0
 21
14.9999999999999982
 31
0.0
  0
LINE
  5
142
100
AcDbEntity
100
AcDbLine
  8
corner bits
 62
256
370
-1
  6
ByLayer
 10
622.0
 20
-9.9999999999999591
 30
0.0
 11
601.0
 21
-15.0000000000000018
 31
0.0
  0
LINE
  5
143
100
AcDbEntity
100
AcDbLine
  8
corner bits
 62
256
370
-1
  6
ByLayer
 10
575.0
 20
-4.9999999999999947
 30
0.0
 11
575.0
 21
5.0000000000000053
 31
0.0
  0
LINE
  5
144
100
AcDbEntity
100
AcDbLine
  8
strips
 62
256
370
-1
  6
ByLayer
 10
559.0
 20
6.0000000000000053
 30
0.0
 11
559.0
 21
10.0000000000000053
 31
0.0
  0
LINE
  5
145
100
AcDbEntity
100
AcDbLine
  8
strips
 62
256
370
-1
  6
ByLayer
 10
565.0
 20
6.0000000000000053
 30
0.0
 11
565.0
 21
10.0000000000000053
 31
0.0
  0
LINE
  5
146
100
AcDbEntity
100
AcDbLine
  8
strips
 62
256
370
-1
  6
ByLayer
 10
559.0
 20
-9.9999999999999947
 30
0.0
 11
559.0
 21
-5.9999999999999947
 31
0.0
  0
LINE
  5
147
100
AcDbEntity
100
AcDbLine
  8
strips
 62
256
370
-1
  6
ByLayer
 10
565.0
 20
-9.9999999999999947
 30
0.0
 11
565.0
 21
-5.9999999999999947
 31
0.0
  0
LINE
  5
148
100
AcDbEntity
100
AcDbLine
  8
strips
 62
256
370
-1
  6
ByLayer
 10
559.0
 20
-9.9999999999999947
 30
0.0
 11
565.0
 21
-9.9999999999999947
 31
0.0
  0
LINE
  5
149
100
AcDbEntity
100
AcDbLine
  8
strips
 62
256
370
-1
  6
ByLayer
 10
565.0
 20
-5.9999999999999947
 30
0.0
 11
559.0
 21
-5.9999999999999947
 31
0.0
  0
LINE
  5
14A
100
AcDbEntity
100
AcDbLine
  8
strips
 62
256
370
-1
  6
ByLayer
 10
559.0
 20
6.0000000000000053
 30
0.0
 11
565.0
 21
6.0000000000000053
 31
0.0
  0
LINE
  5
14B
100
AcDbEntity
100
AcDbLine
  8
strips
 62
256
370
-1
  6
ByLayer
 10
559.0
 20
10.0000000000000053
 30
0.0
 11
565.0
 21
10.0000000000000053
 31
0.0
  0
LINE
  5
14C
100
AcDbEntity
100
AcDbLine
  8
corner bits
 62
256
370
-1
  6
ByLayer
 10
559.0
 20
-14.9999999999999947
 30
0.0
 11
565.0
 21
-14.9999999999999947
 31
0.0
  0
LINE
  5
14D
100
AcDbEntity
100
AcDbLine
  8
corner bits
 62
256
370
-1
  6
ByLayer
 10
559.0
 20
15.0000000000000053
 30
0.0
 11
565.0
 21
15.0000000000000053
 31
0.0
  0
LINE
  5
14E
100
AcDbEntity
100
AcDbLine
  8
corner bits
 62
256
370
-1
  6
ByLayer
 10
565.0
 20
-14.9999999999999947
 30
0.0
 11
575.0
 21
-4.9999999999999947
 31
0.0
  0
LINE
  5
14F
100
AcDbEntity
100
AcDbLine
  8
corner bits
 62
256
370
-1
  6
ByLayer
 10
575.0
 20
5.0000000000000053
 30
0.0
 11
565.0
 21
15.0000000000000053
 31
0.0
  0
LINE
  5
150
100
AcDbEntity
100
AcDbLine
  8
corner bits
 62
256
370
-1
  6
ByLayer
 10
538.0
 20
10.0
 30
0.0
 11
559.0
 21
15.0000000000000053
 31
0.0
  0
LINE
  5
151
100
AcDbEntity
100
AcDbLine
  8
corner bits
 62
256
370
-1
  6
ByLayer
 10
559.0
 20
-14.9999999999999947
 30
0.0
 11
538.0
 21
-10.0000000000000053
 31
0.0
  0
LINE
  5
152
100
AcDbEntity
100
AcDbLine
  8
strips
 62
256
370
-1
  6
ByLayer
 10
586.0
 20
20.0
 30
0.0
 11
590.0
 21
20.0
 31
0.0
  0
LINE
  5
153
100
AcDbEntity
100
AcDbLine
  8
strips
 62
256
370
-1
  6
ByLayer
 10
570.0
 20
26.0
 30
0.0
 11
574.0
 21
26.0
 31
0.0
  0
LINE
  5
154
100
AcDbEntity
100
AcDbLine
  8
strips
 62
256
370
-1
  6
ByLayer
 10
570.0
 20
20.0
 30
0.0
 11
574.0
 21
20.0
 31
0.0
  0
LINE
  5
155
100
AcDbEntity
100
AcDbLine
  8
strips
 62
256
370
-1
  6
ByLayer
 10
570.0
 20
26.0
 30
0.0
 11
570.0
 21
20.0
 31
0.0
  0
LINE
  5
156
100
AcDbEntity
100
AcDbLine
  8
strips
 62
256
370
-1
  6
ByLayer
 10
574.0
 20
20.0
 30
0.0
 11
574.0
 21
26.0
 31
0.0
  0
LINE
  5
157
100
AcDbEntity
100
AcDbLine
  8
strips
 62
256
370
-1
  6
ByLayer
 10
586.0
 20
26.0
 30
0.0
 11
586.0
 21
20.0
 31
0.0
  0
LINE
  5
158
100
AcDbEntity
100
AcDbLine
  8
strips
 62
256
370
-1
  6
ByLayer
 10
590.0
 20
26.0
 30
0.0
 11
590.0
 21
20.0
 31
0.0
  0
LINE
  5
159
100
AcDbEntity
100
AcDbLine
  8
strips
 62
256
370
-1
  6
ByLayer
 10
586.0
 20
26.0
 30
0.0
 11
590.0
 21
26.0
 31
0.0
  0
LINE
  5
15A
100
AcDbEntity
100
AcDbLine
  8
strips
 62
256
370
-1
  6
ByLayer
 10
575.0
 20
10.0
 30
0.0
 11
585.0
 21
10.0
 31
0.0
  0
LINE
  5
15B
100
AcDbEntity
100
AcDbLine
  8
strips
 62
256
370
-1
  6
ByLayer
 10
565.0
 20
26.0
 30
0.0
 11
565.0
 21
20.0
 31
0.0
  0
LINE
  5
15C
100
AcDbEntity
100
AcDbLine
  8
strips
 62
256
370
-1
  6
ByLayer
 10
595.0
 20
26.0
 30
0.0
 11
595.0
 21
20.0
 31
0.0
  0
LINE
  5
15D
100
AcDbEntity
100
AcDbLine
  8
strips
 62
256
370
-1
  6
ByLayer
 10
595.0
 20
20.0
 30
0.0
 11
585.0
 21
10.0
 31
0.0
  0
LINE
  5
15E
100
AcDbEntity
100
AcDbLine
  8
strips
 62
256
370
-1
  6
ByLayer
 10
575.0
 20
10.0
 30
0.0
 11
565.0
 21
20.0
 31
0.0
  0
LINE
  5
15F
100
AcDbEntity
100
AcDbLine
  8
corner bits
 62
256
370
-1
  6
ByLayer
 10
570.0
 20
55.9999999999999929
 30
0.0
 11
565.0
 21
26.0
 31
0.0
  0
LINE
  5
160
100
AcDbEntity
100
AcDbLine
  8
corner bits
 62
256
370
-1
  6
ByLayer
 10
590.0
 20
56.0
 30
0.0
 11
595.0
 21
26.0
 31
0.0
  0
INSERT
  5
161
100
AcDbEntity
100
AcDbBlockReference
  8
corner bits
 62
256
370
-1
  6
ByLayer
  2
horiz 150
 10
595.0
 20
480.0
 30
0.0
 44
1.0
 45
1.0
  0
LINE
  5
162
100
AcDbEntity
100
AcDbLine
  8
corner bits
 62
256
370
-1
  6
ByLayer
 10
575.0
 20
485.0000000000001137
 30
0.0
 11
575.0
 21
474.9999999999998863
 31
0.0
  0
LINE
  5
163
100
AcDbEntity
100
AcDbLine
  8
strips
 62
256
370
-1
  6
ByLayer
 10
565.0
 20
474.0
 30
0.0
 11
565.0
 21
470.0
 31
0.0
  0
LINE
  5
164
100
AcDbEntity
100
AcDbLine
  8
strips
 62
256
370
-1
  6
ByLayer
 10
559.0
 20
474.0
 30
0.0
 11
559.0
 21
470.0
 31
0.0
  0
LINE
  5
165
100
AcDbEntity
100
AcDbLine
  8
strips
 62
256
370
-1
  6
ByLayer
 10
565.0
 20
490.0
 30
0.0
 11
565.0
 21
486.0
 31
0.0
  0
LINE
  5
166
100
AcDbEntity
100
AcDbLine
  8
strips
 62
256
370
-1
  6
ByLayer
 10
559.0
 20
490.0
 30
0.0
 11
559.0
 21
486.0
 31
0.0
  0
LINE
  5
167
100
AcDbEntity
100
AcDbLine
  8
strips
 62
256
370
-1
  6
ByLayer
 10
565.0
 20
490.0
 30
0.0
 11
559.0
 21
490.0
 31
0.0
  0
LINE
  5
168
100
AcDbEntity
100
AcDbLine
  8
strips
 62
256
370
-1
  6
ByLayer
 10
559.0
 20
486.0
 30
0.0
 11
565.0
 21
486.0
 31
0.0
  0
LINE
  5
169
100
AcDbEntity
100
AcDbLine
  8
strips
 62
256
370
-1
  6
ByLayer
 10
565.0
 20
474.0
 30
0.0
 11
559.0
 21
474.0
 31
0.0
  0
LINE
  5
16A
100
AcDbEntity
100
AcDbLine
  8
strips
 62
256
370
-1
  6
ByLayer
 10
565.0
 20
470.0
 30
0.0
 11
559.0
 21
470.0
 31
0.0
  0
LINE
  5
16B
100
AcDbEntity
100
AcDbLine
  8
corner bits
 62
256
370
-1
  6
ByLayer
 10
565.0
 20
495.0
 30
0.0
 11
559.0
 21
495.0
 31
0.0
  0
LINE
  5
16C
100
AcDbEntity
100
AcDbLine
  8
corner bits
 62
256
370
-1
  6
ByLayer
 10
565.0
 20
465.0
 30
0.0
 11
559.0
 21
465.0
 31
0.0
  0
LINE
  5
16D
100
AcDbEntity
100
AcDbLine
  8
corner bits
 62
256
370
-1
  6
ByLayer
 10
575.0
 20
485.0000000000001137
 30
0.0
 11
565.0
 21
495.0
 31
0.0
  0
LINE
  5
16E
100
AcDbEntity
100
AcDbLine
  8
corner bits
 62
256
370
-1
  6
ByLayer
 10
565.0
 20
465.0
 30
0.0
 11
575.0
 21
474.9999999999998863
 31
0.0
  0
LINE
  5
16F
100
AcDbEntity
100
AcDbLine
  8
corner bits
 62
256
370
-1
  6
ByLayer
 10
538.0
 20
469.9999999999998863
 30
0.0
 11
559.0
 21
465.0
 31
0.0
  0
LINE
  5
170
100
AcDbEntity
100
AcDbLine
  8
corner bits
 62
256
370
-1
  6
ByLayer
 10
538.0
 20
490.0
 30
0.0
 11
559.0
 21
495.0
 31
0.0
  0
LINE
  5
171
100
AcDbEntity
100
AcDbLine
  8
corner bits
 62
256
370
-1
  6
ByLayer
 10
585.0
 20
485.0
 30
0.0
 11
585.0
 21
475.0
 31
0.0
  0
LINE
  5
172
100
AcDbEntity
100
AcDbLine
  8
strips
 62
256
370
-1
  6
ByLayer
 10
601.0
 20
474.0
 30
0.0
 11
601.0
 21
470.0
 31
0.0
  0
LINE
  5
173
100
AcDbEntity
100
AcDbLine
  8
strips
 62
256
370
-1
  6
ByLayer
 10
595.0
 20
474.0
 30
0.0
 11
595.0
 21
470.0
 31
0.0
  0
LINE
  5
174
100
AcDbEntity
100
AcDbLine
  8
strips
 62
256
370
-1
  6
ByLayer
 10
601.0
 20
490.0
 30
0.0
 11
601.0
 21
486.0
 31
0.0
  0
LINE
  5
175
100
AcDbEntity
100
AcDbLine
  8
strips
 62
256
370
-1
  6
ByLayer
 10
595.0
 20
490.0
 30
0.0
 11
595.0
 21
486.0
 31
0.0
  0
LINE
  5
176
100
AcDbEntity
100
AcDbLine
  8
strips
 62
256
370
-1
  6
ByLayer
 10
601.0
 20
490.0
 30
0.0
 11
595.0
 21
490.0
 31
0.0
  0
LINE
  5
177
100
AcDbEntity
100
AcDbLine
  8
strips
 62
256
370
-1
  6
ByLayer
 10
595.0
 20
486.0
 30
0.0
 11
601.0
 21
486.0
 31
0.0
  0
LINE
  5
178
100
AcDbEntity
100
AcDbLine
  8
strips
 62
256
370
-1
  6
ByLayer
 10
601.0
 20
474.0
 30
0.0
 11
595.0
 21
474.0
 31
0.0
  0
LINE
  5
179
100
AcDbEntity
100
AcDbLine
  8
strips
 62
256
370
-1
  6
ByLayer
 10
601.0
 20
470.0
 30
0.0
 11
595.0
 21
470.0
 31
0.0
  0
LINE
  5
17A
100
AcDbEntity
100
AcDbLine
  8
corner bits
 62
256
370
-1
  6
ByLayer
 10
601.0
 20
495.0
 30
0.0
 11
595.0
 21
495.0
 31
0.0
  0
LINE
  5
17B
100
AcDbEntity
100
AcDbLine
  8
corner bits
 62
256
370
-1
  6
ByLayer
 10
601.0
 20
465.0
 30
0.0
 11
595.0
 21
465.0
 31
0.0
  0
LINE
  5
17C
100
AcDbEntity
100
AcDbLine
  8
corner bits
 62
256
370
-1
  6
ByLayer
 10
595.0
 20
495.0
 30
0.0
 11
585.0
 21
485.0
 31
0.0
  0
LINE
  5
17D
100
AcDbEntity
100
AcDbLine
  8
corner bits
 62
256
370
-1
  6
ByLayer
 10
585.0
 20
475.0
 30
0.0
 11
595.0
 21
465.0
 31
0.0
  0
LINE
  5
17E
100
AcDbEntity
100
AcDbLine
  8
corner bits
 62
256
370
-1
  6
ByLayer
 10
622.0
 20
470.0
 30
0.0
 11
601.0
 21
465.0
 31
0.0
  0
LINE
  5
17F
100
AcDbEntity
100
AcDbLine
  8
corner bits
 62
256
370
-1
  6
ByLayer
 10
601.0
 20
495.0
 30
0.0
 11
622.0
 21
490.0
 31
0.0
  0
LINE
  5
180
100
AcDbEntity
100
AcDbLine
  8
strips
 62
256
370
-1
  6
ByLayer
 10
574.0
 20
460.0
 30
0.0
 11
570.0
 21
460.0
 31
0.0
  0
LINE
  5
181
100
AcDbEntity
100
AcDbLine
  8
strips
 62
256
370
-1
  6
ByLayer
 10
590.0
 20
454.0
 30
0.0
 11
586.0
 21
454.0
 31
0.0
  0
LINE
  5
182
100
AcDbEntity
100
AcDbLine
  8
strips
 62
256
370
-1
  6
ByLayer
 10
590.0
 20
460.0
 30
0.0
 11
586.0
 21
460.0
 31
0.0
  0
LINE
  5
183
100
AcDbEntity
100
AcDbLine
  8
strips
 62
256
370
-1
  6
ByLayer
 10
590.0
 20
454.0
 30
0.0
 11
590.0
 21
460.0
 31
0.0
  0
LINE
  5
184
100
AcDbEntity
100
AcDbLine
  8
strips
 62
256
370
-1
  6
ByLayer
 10
586.0
 20
460.0
 30
0.0
 11
586.0
 21
454.0
 31
0.0
  0
LINE
  5
185
100
AcDbEntity
100
AcDbLine
  8
strips
 62
256
370
-1
  6
ByLayer
 10
574.0
 20
454.0
 30
0.0
 11
574.0
 21
460.0
 31
0.0
  0
LINE
  5
186
100
AcDbEntity
100
AcDbLine
  8
strips
 62
256
370
-1
  6
ByLayer
 10
570.0
 20
454.0
 30
0.0
 11
570.0
 21
460.0
 31
0.0
  0
LINE
  5
187
100
AcDbEntity
100
AcDbLine
  8
strips
 62
256
370
-1
  6
ByLayer
 10
574.0
 20
454.0
 30
0.0
 11
570.0
 21
454.0
 31
0.0
  0
LINE
  5
188
100
AcDbEntity
100
AcDbLine
  8
strips
 62
256
370
-1
  6
ByLayer
 10
585.0
 20
470.0
 30
0.0
 11
575.0
 21
470.0
 31
0.0
  0
LINE
  5
189
100
AcDbEntity
100
AcDbLine
  8
strips
 62
256
370
-1
  6
ByLayer
 10
595.0
 20
454.0
 30
0.0
 11
595.0
 21
460.0
 31
0.0
  0
LINE
  5
18A
100
AcDbEntity
100
AcDbLine
  8
strips
 62
256
370
-1
  6
ByLayer
 10
565.0
 20
454.0
 30
0.0
 11
565.0
 21
460.0
 31
0.0
  0
LINE
  5
18B
100
AcDbEntity
100
AcDbLine
  8
strips
 62
256
370
-1
  6
ByLayer
 10
565.0
 20
460.0
 30
0.0
 11
575.0
 21
470.0
 31
0.0
  0
LINE
  5
18C
100
AcDbEntity
100
AcDbLine
  8
strips
 62
256
370
-1
  6
ByLayer
 10
585.0
 20
470.0
 30
0.0
 11
595.0
 21
460.0
 31
0.0
  0
LINE
  5
18D
100
AcDbEntity
100
AcDbLine
  8
corner bits
 62
256
370
-1
  6
ByLayer
 10
590.0
 20
424.0
 30
0.0
 11
595.0
 21
454.0
 31
0.0
  0
LINE
  5
18E
100
AcDbEntity
100
AcDbLine
  8
corner bits
 62
256
370
-1
  6
ByLayer
 10
570.0
 20
424.0
 30
0.0
 11
565.0
 21
454.0
 31
0.0
  0
LINE
  5
18F
100
AcDbEntity
100
AcDbLine
  8
strips
 62
256
370
-1
  6
ByLayer
 10
441.9999999999999432
 20
-10.0000000000000568
 30
0.0
 11
440.0
 21
-10.0
 31
0.0
  0
LINE
  5
190
100
AcDbEntity
100
AcDbLine
  8
strips
 62
256
370
-1
  6
ByLayer
 10
440.0
 20
-10.0
 30
0.0
 11
439.9999999999999432
 21
-15.0000000000000284
 31
0.0
  0
LINE
  5
191
100
AcDbEntity
100
AcDbLine
  8
strips
 62
256
370
-1
  6
ByLayer
 10
442.0
 20
10.0
 30
0.0
 11
440.0
 21
9.9999999999999716
 31
0.0
  0
LINE
  5
192
100
AcDbEntity
100
AcDbLine
  8
strips
 62
256
370
-1
  6
ByLayer
 10
440.0
 20
9.9999999999999716
 30
0.0
 11
440.0
 21
15.0000000000000142
 31
0.0
  0
LINE
  5
193
100
AcDbEntity
100
AcDbLine
  8
strips
 62
256
370
-1
  6
ByLayer
 10
440.0
 20
15.0000000000000142
 30
0.0
 11
428.0
 21
15.0
 31
0.0
  0
LINE
  5
194
100
AcDbEntity
100
AcDbLine
  8
strips
 62
256
370
-1
  6
ByLayer
 10
390.0
 20
56.0
 30
0.0
 11
390.0
 21
55.0
 31
0.0
  0
LINE
  5
195
100
AcDbEntity
100
AcDbLine
  8
strips
 62
256
370
-1
  6
ByLayer
 10
390.0
 20
55.0
 30
0.0
 11
385.0
 21
55.0
 31
0.0
  0
LINE
  5
196
100
AcDbEntity
100
AcDbLine
  8
strips
 62
256
370
-1
  6
ByLayer
 10
385.0
 20
55.0
 30
0.0
 11
385.0
 21
40.0
 31
0.0
  0
LINE
  5
197
100
AcDbEntity
100
AcDbLine
  8
strips
 62
256
370
-1
  6
ByLayer
 10
410.0
 20
56.0
 30
0.0
 11
410.0
 21
55.0
 31
0.0
  0
LINE
  5
198
100
AcDbEntity
100
AcDbLine
  8
strips
 62
256
370
-1
  6
ByLayer
 10
410.0
 20
55.0
 30
0.0
 11
415.0
 21
55.0000000000000142
 31
0.0
  0
LINE
  5
199
100
AcDbEntity
100
AcDbLine
  8
strips
 62
256
370
-1
  6
ByLayer
 10
415.0
 20
55.0000000000000142
 30
0.0
 11
415.0
 21
44.0
 31
0.0
  0
LINE
  5
19A
100
AcDbEntity
100
AcDbLine
  8
strips
 62
256
370
-1
  6
ByLayer
 10
437.7290936297935104
 20
25.3130486986266874
 30
0.0
 11
432.3127584214250874
 21
18.1253291082011572
 31
0.0
  0
LINE
  5
19B
100
AcDbEntity
100
AcDbLine
  8
strips
 62
256
370
-1
  6
ByLayer
 10
438.0
 20
34.0
 30
0.0
 11
437.7290936297935104
 21
25.3130486986266874
 31
0.0
  0
LINE
  5
19C
100
AcDbEntity
100
AcDbLine
  8
strips
 62
256
370
-1
  6
ByLayer
 10
405.0
 20
-5.0
 30
0.0
 11
405.0
 21
5.0000000000000568
 31
0.0
  0
LINE
  5
19D
100
AcDbEntity
100
AcDbLine
  8
strips
 62
256
370
-1
  6
ByLayer
 10
415.0
 20
-15.0
 30
0.0
 11
405.0
 21
-5.0
 31
0.0
  0
LINE
  5
19E
100
AcDbEntity
100
AcDbLine
  8
strips
 62
256
370
-1
  6
ByLayer
 10
405.0
 20
5.0000000000000568
 30
0.0
 11
428.0
 21
15.0
 31
0.0
  0
LINE
  5
19F
100
AcDbEntity
100
AcDbLine
  8
strips
 62
256
370
-1
  6
ByLayer
 10
439.9999999999999432
 20
-15.0000000000000284
 30
0.0
 11
415.0
 21
-15.0
 31
0.0
  0
LINE
  5
1A0
100
AcDbEntity
100
AcDbLine
  8
strips
 62
256
370
-1
  6
ByLayer
 10
394.9999999999998863
 20
10.0
 30
0.0
 11
385.0
 21
40.0
 31
0.0
  0
LINE
  5
1A1
100
AcDbEntity
100
AcDbLine
  8
strips
 62
256
370
-1
  6
ByLayer
 10
410.0
 20
39.0
 30
0.0
 11
415.0
 21
44.0
 31
0.0
  0
POINT
  5
1A2
100
AcDbEntity
100
AcDbPoint
  8
strips
 62
256
370
-1
  6
ByLayer
 10
410.6294911513195984
 20
38.2055610557052887
 30
0.0
  0
POINT
  5
1A3
100
AcDbEntity
100
AcDbPoint
  8
strips
 62
256
370
-1
  6
ByLayer
 10
415.6142173742598516
 20
43.2825970235147679
 30
0.0
  0
LINE
  5
1A4
100
AcDbEntity
100
AcDbLine
  8
strips
 62
256
370
-1
  6
ByLayer
 10
422.0
 20
46.0000000000000142
 30
0.0
 11
415.6142173742598516
 21
43.2825970235147679
 31
0.0
  0
LINE
  5
1A5
100
AcDbEntity
100
AcDbLine
  8
strips
 62
256
370
-1
  6
ByLayer
 10
415.6142173742598516
 20
43.2825970235147679
 30
0.0
 11
410.6294911513195984
 21
38.2055610557052887
 31
0.0
  0
POINT
  5
1A6
100
AcDbEntity
100
AcDbPoint
  8
strips
 62
256
370
-1
  6
ByLayer
 10
405.4601454386407795
 20
19.4666828472448401
 30
0.0
  0
LINE
  5
1A7
100
AcDbEntity
100
AcDbLine
  8
strips
 62
256
370
-1
  6
ByLayer
 10
410.0
 20
39.0
 30
0.0
 11
405.4601454386407795
 21
19.4666828472448401
 31
0.0
  0
POINT
  5
1A8
100
AcDbEntity
100
AcDbPoint
  8
strips
 62
256
370
-1
  6
ByLayer
 10
405.7924605201691293
 20
15.4235160219704426
 30
0.0
  0
LINE
  5
1A9
100
AcDbEntity
100
AcDbLine
  8
strips
 62
256
370
-1
  6
ByLayer
 10
394.0
 20
44.0
 30
0.0
 11
390.0
 21
44.0
 31
0.0
  0
LINE
  5
1AA
100
AcDbEntity
100
AcDbLine
  8
strips
 62
256
370
-1
  6
ByLayer
 10
394.0
 20
50.0
 30
0.0
 11
390.0
 21
50.0
 31
0.0
  0
LINE
  5
1AB
100
AcDbEntity
100
AcDbLine
  8
strips
 62
256
370
-1
  6
ByLayer
 10
410.0
 20
44.0
 30
0.0
 11
406.0
 21
44.0
 31
0.0
  0
LINE
  5
1AC
100
AcDbEntity
100
AcDbLine
  8
strips
 62
256
370
-1
  6
ByLayer
 10
410.0
 20
50.0
 30
0.0
 11
406.0
 21
50.0
 31
0.0
  0
LINE
  5
1AD
100
AcDbEntity
100
AcDbLine
  8
strips
 62
256
370
-1
  6
ByLayer
 10
429.0
 20
6.0
 30
0.0
 11
429.0
 21
10.0
 31
0.0
  0
LINE
  5
1AE
100
AcDbEntity
100
AcDbLine
  8
strips
 62
256
370
-1
  6
ByLayer
 10
435.0
 20
6.0
 30
0.0
 11
435.0
 21
10.0
 31
0.0
  0
LINE
  5
1AF
100
AcDbEntity
100
AcDbLine
  8
strips
 62
256
370
-1
  6
ByLayer
 10
429.0
 20
-10.0
 30
0.0
 11
429.0
 21
-6.0
 31
0.0
  0
LINE
  5
1B0
100
AcDbEntity
100
AcDbLine
  8
strips
 62
256
370
-1
  6
ByLayer
 10
435.0000000000000568
 20
-10.0
 30
0.0
 11
435.0
 21
-6.0
 31
0.0
  0
LINE
  5
1B1
100
AcDbEntity
100
AcDbLine
  8
strips
 62
256
370
-1
  6
ByLayer
 10
418.5504878261922386
 20
34.7566221446305121
 30
0.0
 11
415.3559457860030761
 21
37.1638822372387239
 31
0.0
  0
LINE
  5
1B2
100
AcDbEntity
100
AcDbLine
  8
strips
 62
256
370
-1
  6
ByLayer
 10
422.1613779651045206
 20
39.5484352049143126
 30
0.0
 11
418.9668359249153582
 21
41.9556952975224817
 31
0.0
  0
LINE
  5
1B3
100
AcDbEntity
100
AcDbLine
  8
strips
 62
256
370
-1
  6
ByLayer
 10
431.3286559869488883
 20
25.1275817741977789
 30
0.0
 11
428.1341139467597259
 21
27.534841866805948
 31
0.0
  0
LINE
  5
1B4
100
AcDbEntity
100
AcDbLine
  8
strips
 62
256
370
-1
  6
ByLayer
 10
434.9395461258611704
 20
29.9193948344815084
 30
0.0
 11
431.7450040856720079
 21
32.3266549270897201
 31
0.0
  0
LINE
  5
1B5
100
AcDbEntity
100
AcDbLine
  8
strips
 62
256
370
-1
  6
ByLayer
 10
435.0000000000000568
 20
-10.0
 30
0.0
 11
429.0
 21
-10.0
 31
0.0
  0
LINE
  5
1B6
100
AcDbEntity
100
AcDbLine
  8
strips
 62
256
370
-1
  6
ByLayer
 10
429.0
 20
-6.0
 30
0.0
 11
435.0
 21
-6.0
 31
0.0
  0
LINE
  5
1B7
100
AcDbEntity
100
AcDbLine
  8
strips
 62
256
370
-1
  6
ByLayer
 10
435.0
 20
6.0
 30
0.0
 11
429.0
 21
6.0
 31
0.0
  0
LINE
  5
1B8
100
AcDbEntity
100
AcDbLine
  8
strips
 62
256
370
-1
  6
ByLayer
 10
431.3286559869488883
 20
25.1275817741977789
 30
0.0
 11
434.9395461258611704
 21
29.9193948344815084
 31
0.0
  0
LINE
  5
1B9
100
AcDbEntity
100
AcDbLine
  8
strips
 62
256
370
-1
  6
ByLayer
 10
431.7450040856720079
 20
32.3266549270897201
 30
0.0
 11
428.1341139467597259
 21
27.534841866805948
 31
0.0
  0
LINE
  5
1BA
100
AcDbEntity
100
AcDbLine
  8
strips
 62
256
370
-1
  6
ByLayer
 10
418.5504878261922386
 20
34.7566221446305121
 30
0.0
 11
422.1613779651045206
 21
39.5484352049143126
 31
0.0
  0
LINE
  5
1BB
100
AcDbEntity
100
AcDbLine
  8
strips
 62
256
370
-1
  6
ByLayer
 10
418.9668359249153582
 20
41.9556952975224817
 30
0.0
 11
415.3559457860030761
 21
37.1638822372387239
 31
0.0
  0
LINE
  5
1BC
100
AcDbEntity
100
AcDbLine
  8
strips
 62
256
370
-1
  6
ByLayer
 10
410.0
 20
44.0
 30
0.0
 11
410.0
 21
50.0
 31
0.0
  0
LINE
  5
1BD
100
AcDbEntity
100
AcDbLine
  8
strips
 62
256
370
-1
  6
ByLayer
 10
406.0
 20
50.0
 30
0.0
 11
406.0
 21
44.0
 31
0.0
  0
LINE
  5
1BE
100
AcDbEntity
100
AcDbLine
  8
strips
 62
256
370
-1
  6
ByLayer
 10
394.0
 20
44.0
 30
0.0
 11
394.0
 21
50.0
 31
0.0
  0
LINE
  5
1BF
100
AcDbEntity
100
AcDbLine
  8
strips
 62
256
370
-1
  6
ByLayer
 10
390.0
 20
44.0
 30
0.0
 11
390.0
 21
50.0
 31
0.0
  0
LINE
  5
1C0
100
AcDbEntity
100
AcDbLine
  8
strips
 62
256
370
-1
  6
ByLayer
 10
429.0
 20
10.0
 30
0.0
 11
435.0
 21
10.0
 31
0.0
  0
LINE
  5
1C1
100
AcDbEntity
100
AcDbLine
  8
strips
 62
256
370
-1
  6
ByLayer
 10
442.0
 20
490.0
 30
0.0
 11
440.0
 21
490.0
 31
0.0
  0
LINE
  5
1C2
100
AcDbEntity
100
AcDbLine
  8
strips
 62
256
370
-1
  6
ByLayer
 10
440.0
 20
490.0
 30
0.0
 11
440.0
 21
495.0
 31
0.0
  0
LINE
  5
1C3
100
AcDbEntity
100
AcDbLine
  8
strips
 62
256
370
-1
  6
ByLayer
 10
442.0
 20
470.0
 30
0.0
 11
440.0
 21
470.0
 31
0.0
  0
LINE
  5
1C4
100
AcDbEntity
100
AcDbLine
  8
strips
 62
256
370
-1
  6
ByLayer
 10
440.0
 20
470.0
 30
0.0
 11
440.0
 21
465.0
 31
0.0
  0
LINE
  5
1C5
100
AcDbEntity
100
AcDbLine
  8
strips
 62
256
370
-1
  6
ByLayer
 10
440.0
 20
465.0
 30
0.0
 11
428.0
 21
465.0
 31
0.0
  0
LINE
  5
1C6
100
AcDbEntity
100
AcDbLine
  8
strips
 62
256
370
-1
  6
ByLayer
 10
390.0
 20
424.0
 30
0.0
 11
390.0
 21
425.0
 31
0.0
  0
LINE
  5
1C7
100
AcDbEntity
100
AcDbLine
  8
strips
 62
256
370
-1
  6
ByLayer
 10
390.0
 20
425.0
 30
0.0
 11
385.0
 21
425.0
 31
0.0
  0
LINE
  5
1C8
100
AcDbEntity
100
AcDbLine
  8
strips
 62
256
370
-1
  6
ByLayer
 10
385.0
 20
425.0
 30
0.0
 11
385.0
 21
440.0
 31
0.0
  0
LINE
  5
1C9
100
AcDbEntity
100
AcDbLine
  8
strips
 62
256
370
-1
  6
ByLayer
 10
410.0
 20
424.0
 30
0.0
 11
410.0
 21
425.0
 31
0.0
  0
LINE
  5
1CA
100
AcDbEntity
100
AcDbLine
  8
strips
 62
256
370
-1
  6
ByLayer
 10
410.0
 20
425.0
 30
0.0
 11
415.0
 21
425.0
 31
0.0
  0
LINE
  5
1CB
100
AcDbEntity
100
AcDbLine
  8
strips
 62
256
370
-1
  6
ByLayer
 10
415.0
 20
425.0
 30
0.0
 11
415.0
 21
436.0
 31
0.0
  0
LINE
  5
1CC
100
AcDbEntity
100
AcDbLine
  8
strips
 62
256
370
-1
  6
ByLayer
 10
437.7290936297935104
 20
454.6869513013733126
 30
0.0
 11
432.3127584214250874
 21
461.8746708917988144
 31
0.0
  0
LINE
  5
1CD
100
AcDbEntity
100
AcDbLine
  8
strips
 62
256
370
-1
  6
ByLayer
 10
438.0
 20
446.0
 30
0.0
 11
437.7290936297935104
 21
454.6869513013733126
 31
0.0
  0
LINE
  5
1CE
100
AcDbEntity
100
AcDbLine
  8
strips
 62
256
370
-1
  6
ByLayer
 10
405.0
 20
485.0
 30
0.0
 11
405.0
 21
474.9999999999999432
 31
0.0
  0
LINE
  5
1CF
100
AcDbEntity
100
AcDbLine
  8
strips
 62
256
370
-1
  6
ByLayer
 10
415.0
 20
495.0
 30
0.0
 11
405.0
 21
485.0
 31
0.0
  0
LINE
  5
1D0
100
AcDbEntity
100
AcDbLine
  8
strips
 62
256
370
-1
  6
ByLayer
 10
405.0
 20
474.9999999999999432
 30
0.0
 11
428.0
 21
465.0
 31
0.0
  0
LINE
  5
1D1
100
AcDbEntity
100
AcDbLine
  8
strips
 62
256
370
-1
  6
ByLayer
 10
440.0
 20
495.0
 30
0.0
 11
415.0
 21
495.0
 31
0.0
  0
LINE
  5
1D2
100
AcDbEntity
100
AcDbLine
  8
strips
 62
256
370
-1
  6
ByLayer
 10
394.9999999999998863
 20
470.0
 30
0.0
 11
385.0
 21
440.0
 31
0.0
  0
LINE
  5
1D3
100
AcDbEntity
100
AcDbLine
  8
strips
 62
256
370
-1
  6
ByLayer
 10
410.0
 20
441.0
 30
0.0
 11
415.0
 21
436.0
 31
0.0
  0
POINT
  5
1D4
100
AcDbEntity
100
AcDbPoint
  8
strips
 62
256
370
-1
  6
ByLayer
 10
410.6294911513195984
 20
441.7944389442947113
 30
0.0
  0
POINT
  5
1D5
100
AcDbEntity
100
AcDbPoint
  8
strips
 62
256
370
-1
  6
ByLayer
 10
415.6142173742598516
 20
436.7174029764852321
 30
0.0
  0
LINE
  5
1D6
100
AcDbEntity
100
AcDbLine
  8
strips
 62
256
370
-1
  6
ByLayer
 10
422.0
 20
434.0
 30
0.0
 11
415.6142173742598516
 21
436.7174029764852321
 31
0.0
  0
LINE
  5
1D7
100
AcDbEntity
100
AcDbLine
  8
strips
 62
256
370
-1
  6
ByLayer
 10
415.6142173742598516
 20
436.7174029764852321
 30
0.0
 11
410.6294911513195984
 21
441.7944389442947113
 31
0.0
  0
POINT
  5
1D8
100
AcDbEntity
100
AcDbPoint
  8
strips
 62
256
370
-1
  6
ByLayer
 10
405.4601454386407795
 20
460.5333171527551599
 30
0.0
  0
LINE
  5
1D9
100
AcDbEntity
100
AcDbLine
  8
strips
 62
256
370
-1
  6
ByLayer
 10
410.0
 20
441.0
 30
0.0
 11
405.4601454386407795
 21
460.5333171527551599
 31
0.0
  0
POINT
  5
1DA
100
AcDbEntity
100
AcDbPoint
  8
strips
 62
256
370
-1
  6
ByLayer
 10
405.7924605201691293
 20
464.5764839780295574
 30
0.0
  0
LINE
  5
1DB
100
AcDbEntity
100
AcDbLine
  8
strips
 62
256
370
-1
  6
ByLayer
 10
394.0
 20
436.0
 30
0.0
 11
390.0
 21
436.0
 31
0.0
  0
LINE
  5
1DC
100
AcDbEntity
100
AcDbLine
  8
strips
 62
256
370
-1
  6
ByLayer
 10
394.0
 20
430.0
 30
0.0
 11
390.0
 21
430.0
 31
0.0
  0
LINE
  5
1DD
100
AcDbEntity
100
AcDbLine
  8
strips
 62
256
370
-1
  6
ByLayer
 10
410.0
 20
436.0
 30
0.0
 11
406.0
 21
436.0
 31
0.0
  0
LINE
  5
1DE
100
AcDbEntity
100
AcDbLine
  8
strips
 62
256
370
-1
  6
ByLayer
 10
410.0
 20
430.0
 30
0.0
 11
406.0
 21
430.0
 31
0.0
  0
LINE
  5
1DF
100
AcDbEntity
100
AcDbLine
  8
strips
 62
256
370
-1
  6
ByLayer
 10
429.0
 20
474.0
 30
0.0
 11
429.0
 21
470.0
 31
0.0
  0
LINE
  5
1E0
100
AcDbEntity
100
AcDbLine
  8
strips
 62
256
370
-1
  6
ByLayer
 10
435.0
 20
474.0
 30
0.0
 11
435.0
 21
470.0
 31
0.0
  0
LINE
  5
1E1
100
AcDbEntity
100
AcDbLine
  8
strips
 62
256
370
-1
  6
ByLayer
 10
429.0
 20
490.0
 30
0.0
 11
429.0
 21
486.0
 31
0.0
  0
LINE
  5
1E2
100
AcDbEntity
100
AcDbLine
  8
strips
 62
256
370
-1
  6
ByLayer
 10
435.0
 20
490.0
 30
0.0
 11
435.0
 21
486.0
 31
0.0
  0
LINE
  5
1E3
100
AcDbEntity
100
AcDbLine
  8
strips
 62
256
370
-1
  6
ByLayer
 10
418.5504878261922386
 20
445.2433778553694879
 30
0.0
 11
415.3559457860030761
 21
442.8361177627612619
 31
0.0
  0
LINE
  5
1E4
100
AcDbEntity
100
AcDbLine
  8
strips
 62
256
370
-1
  6
ByLayer
 10
422.1613779651045206
 20
440.4515647950856874
 30
0.0
 11
418.9668359249153582
 21
438.0443047024775183
 31
0.0
  0
LINE
  5
1E5
100
AcDbEntity
100
AcDbLine
  8
strips
 62
256
370
-1
  6
ByLayer
 10
431.3286559869488883
 20
454.8724182258022211
 30
0.0
 11
428.1341139467597259
 21
452.465158133194052
 31
0.0
  0
LINE
  5
1E6
100
AcDbEntity
100
AcDbLine
  8
strips
 62
256
370
-1
  6
ByLayer
 10
434.9395461258611704
 20
450.0806051655184774
 30
0.0
 11
431.7450040856720079
 21
447.6733450729103083
 31
0.0
  0
LINE
  5
1E7
100
AcDbEntity
100
AcDbLine
  8
strips
 62
256
370
-1
  6
ByLayer
 10
435.0
 20
490.0
 30
0.0
 11
429.0
 21
490.0
 31
0.0
  0
LINE
  5
1E8
100
AcDbEntity
100
AcDbLine
  8
strips
 62
256
370
-1
  6
ByLayer
 10
429.0
 20
486.0
 30
0.0
 11
435.0
 21
486.0
 31
0.0
  0
LINE
  5
1E9
100
AcDbEntity
100
AcDbLine
  8
strips
 62
256
370
-1
  6
ByLayer
 10
435.0
 20
474.0
 30
0.0
 11
429.0
 21
474.0
 31
0.0
  0
LINE
  5
1EA
100
AcDbEntity
100
AcDbLine
  8
strips
 62
256
370
-1
  6
ByLayer
 10
431.3286559869488883
 20
454.8724182258022211
 30
0.0
 11
434.9395461258611704
 21
450.0806051655184774
 31
0.0
  0
LINE
  5
1EB
100
AcDbEntity
100
AcDbLine
  8
strips
 62
256
370
-1
  6
ByLayer
 10
431.7450040856720079
 20
447.6733450729103083
 30
0.0
 11
428.1341139467597259
 21
452.465158133194052
 31
0.0
  0
LINE
  5
1EC
100
AcDbEntity
100
AcDbLine
  8
strips
 62
256
370
-1
  6
ByLayer
 10
418.5504878261922386
 20
445.2433778553694879
 30
0.0
 11
422.1613779651045206
 21
440.4515647950856874
 31
0.0
  0
LINE
  5
1ED
100
AcDbEntity
100
AcDbLine
  8
strips
 62
256
370
-1
  6
ByLayer
 10
418.9668359249153582
 20
438.0443047024775183
 30
0.0
 11
415.3559457860030761
 21
442.8361177627612619
 31
0.0
  0
LINE
  5
1EE
100
AcDbEntity
100
AcDbLine
  8
strips
 62
256
370
-1
  6
ByLayer
 10
410.0
 20
436.0
 30
0.0
 11
410.0
 21
430.0
 31
0.0
  0
LINE
  5
1EF
100
AcDbEntity
100
AcDbLine
  8
strips
 62
256
370
-1
  6
ByLayer
 10
406.0
 20
430.0
 30
0.0
 11
406.0
 21
436.0
 31
0.0
  0
LINE
  5
1F0
100
AcDbEntity
100
AcDbLine
  8
strips
 62
256
370
-1
  6
ByLayer
 10
394.0
 20
436.0
 30
0.0
 11
394.0
 21
430.0
 31
0.0
  0
LINE
  5
1F1
100
AcDbEntity
100
AcDbLine
  8
strips
 62
256
370
-1
  6
ByLayer
 10
390.0
 20
436.0
 30
0.0
 11
390.0
 21
430.0
 31
0.0
  0
LINE
  5
1F2
100
AcDbEntity
100
AcDbLine
  8
strips
 62
256
370
-1
  6
ByLayer
 10
429.0
 20
470.0
 30
0.0
 11
435.0
 21
470.0
 31
0.0
  0
LINE
  5
1F3
100
AcDbEntity
100
AcDbLine
  8
strips
 62
256
370
-1
  6
ByLayer
 10
718.0
 20
-10.0000000000000497
 30
0.0
 11
720.0
 21
-9.9999999999999929
 31
0.0
  0
LINE
  5
1F4
100
AcDbEntity
100
AcDbLine
  8
strips
 62
256
370
-1
  6
ByLayer
 10
720.0
 20
-9.9999999999999929
 30
0.0
 11
720.0
 21
-15.0000000000000178
 31
0.0
  0
LINE
  5
1F5
100
AcDbEntity
100
AcDbLine
  8
strips
 62
256
370
-1
  6
ByLayer
 10
718.0
 20
10.0000000000000071
 30
0.0
 11
720.0
 21
9.9999999999999787
 31
0.0
  0
LINE
  5
1F6
100
AcDbEntity
100
AcDbLine
  8
strips
 62
256
370
-1
  6
ByLayer
 10
720.0
 20
9.9999999999999787
 30
0.0
 11
720.0
 21
15.0000000000000213
 31
0.0
  0
LINE
  5
1F7
100
AcDbEntity
100
AcDbLine
  8
strips
 62
256
370
-1
  6
ByLayer
 10
720.0
 20
15.0000000000000213
 30
0.0
 11
732.0
 21
15.0000000000000071
 31
0.0
  0
LINE
  5
1F8
100
AcDbEntity
100
AcDbLine
  8
strips
 62
256
370
-1
  6
ByLayer
 10
770.0
 20
55.9999999999999858
 30
0.0
 11
770.0
 21
54.9999999999999929
 31
0.0
  0
LINE
  5
1F9
100
AcDbEntity
100
AcDbLine
  8
strips
 62
256
370
-1
  6
ByLayer
 10
770.0
 20
54.9999999999999929
 30
0.0
 11
775.0
 21
54.9999999999999929
 31
0.0
  0
LINE
  5
1FA
100
AcDbEntity
100
AcDbLine
  8
strips
 62
256
370
-1
  6
ByLayer
 10
775.0
 20
54.9999999999999929
 30
0.0
 11
775.0
 21
40.0
 31
0.0
  0
LINE
  5
1FB
100
AcDbEntity
100
AcDbLine
  8
strips
 62
256
370
-1
  6
ByLayer
 10
750.0
 20
55.9999999999999929
 30
0.0
 11
750.0
 21
54.9999999999999787
 31
0.0
  0
LINE
  5
1FC
100
AcDbEntity
100
AcDbLine
  8
strips
 62
256
370
-1
  6
ByLayer
 10
750.0
 20
54.9999999999999787
 30
0.0
 11
745.0
 21
55.0000000000000142
 31
0.0
  0
LINE
  5
1FD
100
AcDbEntity
100
AcDbLine
  8
strips
 62
256
370
-1
  6
ByLayer
 10
745.0
 20
55.0000000000000142
 30
0.0
 11
745.0
 21
43.9999999999999929
 31
0.0
  0
LINE
  5
1FE
100
AcDbEntity
100
AcDbLine
  8
strips
 62
256
370
-1
  6
ByLayer
 10
722.2709063702064896
 20
25.3130486986266945
 30
0.0
 11
727.6872415785749126
 21
18.1253291082011643
 31
0.0
  0
LINE
  5
1FF
100
AcDbEntity
100
AcDbLine
  8
strips
 62
256
370
-1
  6
ByLayer
 10
722.0
 20
34.0000000000000071
 30
0.0
 11
722.2709063702064896
 21
25.3130486986266945
 31
0.0
  0
LINE
  5
200
100
AcDbEntity
100
AcDbLine
  8
strips
 62
256
370
-1
  6
ByLayer
 10
755.0
 20
-5.0000000000000053
 30
0.0
 11
755.0
 21
5.0000000000000702
 31
0.0
  0
LINE
  5
201
100
AcDbEntity
100
AcDbLine
  8
strips
 62
256
370
-1
  6
ByLayer
 10
745.0
 20
-14.9999999999999929
 30
0.0
 11
755.0
 21
-5.0000000000000053
 31
0.0
  0
LINE
  5
202
100
AcDbEntity
100
AcDbLine
  8
strips
 62
256
370
-1
  6
ByLayer
 10
755.0
 20
5.0000000000000702
 30
0.0
 11
732.0
 21
15.0000000000000071
 31
0.0
  0
LINE
  5
203
100
AcDbEntity
100
AcDbLine
  8
strips
 62
256
370
-1
  6
ByLayer
 10
720.0
 20
-15.0000000000000178
 30
0.0
 11
745.0
 21
-14.9999999999999929
 31
0.0
  0
LINE
  5
204
100
AcDbEntity
100
AcDbLine
  8
strips
 62
256
370
-1
  6
ByLayer
 10
765.0000000000001137
 20
9.9999999999999964
 30
0.0
 11
775.0
 21
40.0
 31
0.0
  0
LINE
  5
205
100
AcDbEntity
100
AcDbLine
  8
strips
 62
256
370
-1
  6
ByLayer
 10
750.0
 20
39.0000000000000071
 30
0.0
 11
745.0
 21
43.9999999999999929
 31
0.0
  0
POINT
  5
206
100
AcDbEntity
100
AcDbPoint
  8
strips
 62
256
370
-1
  6
ByLayer
 10
749.3705088486804016
 20
38.2055610557052816
 30
0.0
  0
POINT
  5
207
100
AcDbEntity
100
AcDbPoint
  8
strips
 62
256
370
-1
  6
ByLayer
 10
744.3857826257401484
 20
43.2825970235147821
 30
0.0
  0
LINE
  5
208
100
AcDbEntity
100
AcDbLine
  8
strips
 62
256
370
-1
  6
ByLayer
 10
738.0
 20
46.0000000000000142
 30
0.0
 11
744.3857826257401484
 21
43.2825970235147821
 31
0.0
  0
LINE
  5
209
100
AcDbEntity
100
AcDbLine
  8
strips
 62
256
370
-1
  6
ByLayer
 10
744.3857826257401484
 20
43.2825970235147821
 30
0.0
 11
749.3705088486804016
 21
38.2055610557052816
 31
0.0
  0
POINT
  5
20A
100
AcDbEntity
100
AcDbPoint
  8
strips
 62
256
370
-1
  6
ByLayer
 10
754.5398545613592205
 20
19.466682847244833
 30
0.0
  0
LINE
  5
20B
100
AcDbEntity
100
AcDbLine
  8
strips
 62
256
370
-1
  6
ByLayer
 10
750.0
 20
39.0000000000000071
 30
0.0
 11
754.5398545613592205
 21
19.466682847244833
 31
0.0
  0
POINT
  5
20C
100
AcDbEntity
100
AcDbPoint
  8
strips
 62
256
370
-1
  6
ByLayer
 10
754.2075394798308707
 20
15.4235160219704159
 30
0.0
  0
LINE
  5
20D
100
AcDbEntity
100
AcDbLine
  8
strips
 62
256
370
-1
  6
ByLayer
 10
766.0
 20
43.9999999999999858
 30
0.0
 11
770.0
 21
43.9999999999999574
 31
0.0
  0
LINE
  5
20E
100
AcDbEntity
100
AcDbLine
  8
strips
 62
256
370
-1
  6
ByLayer
 10
766.0
 20
49.9999999999999787
 30
0.0
 11
770.0
 21
50.0000000000000142
 31
0.0
  0
LINE
  5
20F
100
AcDbEntity
100
AcDbLine
  8
strips
 62
256
370
-1
  6
ByLayer
 10
750.0
 20
43.9999999999999787
 30
0.0
 11
754.0
 21
43.9999999999999787
 31
0.0
  0
LINE
  5
210
100
AcDbEntity
100
AcDbLine
  8
strips
 62
256
370
-1
  6
ByLayer
 10
750.0
 20
50.0
 30
0.0
 11
754.0
 21
49.9999999999999858
 31
0.0
  0
LINE
  5
211
100
AcDbEntity
100
AcDbLine
  8
strips
 62
256
370
-1
  6
ByLayer
 10
731.0
 20
6.0000000000000044
 30
0.0
 11
731.0
 21
10.0000000000000036
 31
0.0
  0
LINE
  5
212
100
AcDbEntity
100
AcDbLine
  8
strips
 62
256
370
-1
  6
ByLayer
 10
725.0
 20
6.0000000000000089
 30
0.0
 11
725.0
 21
10.0000000000000053
 31
0.0
  0
LINE
  5
213
100
AcDbEntity
100
AcDbLine
  8
strips
 62
256
370
-1
  6
ByLayer
 10
731.0
 20
-10.0000000000000036
 30
0.0
 11
731.0
 21
-5.9999999999999964
 31
0.0
  0
LINE
  5
214
100
AcDbEntity
100
AcDbLine
  8
strips
 62
256
370
-1
  6
ByLayer
 10
725.0
 20
-10.0
 30
0.0
 11
725.0
 21
-5.9999999999999929
 31
0.0
  0
LINE
  5
215
100
AcDbEntity
100
AcDbLine
  8
strips
 62
256
370
-1
  6
ByLayer
 10
741.4495121738077614
 20
34.7566221446305192
 30
0.0
 11
744.6440542139969239
 21
37.163882237238731
 31
0.0
  0
LINE
  5
216
100
AcDbEntity
100
AcDbLine
  8
strips
 62
256
370
-1
  6
ByLayer
 10
728.6713440130511117
 20
25.1275817741977754
 30
0.0
 11
731.8658860532402741
 21
27.5348418668059409
 31
0.0
  0
LINE
  5
217
100
AcDbEntity
100
AcDbLine
  8
strips
 62
256
370
-1
  6
ByLayer
 10
725.0604538741388296
 20
29.9193948344815155
 30
0.0
 11
728.2549959143279921
 21
32.326654927089713
 31
0.0
  0
LINE
  5
218
100
AcDbEntity
100
AcDbLine
  8
strips
 62
256
370
-1
  6
ByLayer
 10
725.0
 20
-10.0
 30
0.0
 11
731.0
 21
-10.0000000000000036
 31
0.0
  0
LINE
  5
219
100
AcDbEntity
100
AcDbLine
  8
strips
 62
256
370
-1
  6
ByLayer
 10
731.0
 20
-5.9999999999999964
 30
0.0
 11
725.0
 21
-5.9999999999999929
 31
0.0
  0
LINE
  5
21A
100
AcDbEntity
100
AcDbLine
  8
strips
 62
256
370
-1
  6
ByLayer
 10
725.0
 20
6.0000000000000089
 30
0.0
 11
731.0
 21
6.0000000000000044
 31
0.0
  0
LINE
  5
21B
100
AcDbEntity
100
AcDbLine
  8
strips
 62
256
370
-1
  6
ByLayer
 10
728.6713440130511117
 20
25.1275817741977754
 30
0.0
 11
725.0604538741388296
 21
29.9193948344815155
 31
0.0
  0
LINE
  5
21C
100
AcDbEntity
100
AcDbLine
  8
strips
 62
256
370
-1
  6
ByLayer
 10
728.2549959143279921
 20
32.326654927089713
 30
0.0
 11
731.8658860532402741
 21
27.5348418668059409
 31
0.0
  0
LINE
  5
21D
100
AcDbEntity
100
AcDbLine
  8
strips
 62
256
370
-1
  6
ByLayer
 10
741.4495121738077614
 20
34.7566221446305192
 30
0.0
 11
737.8386220348954794
 21
39.5484352049143055
 31
0.0
  0
LINE
  5
21E
100
AcDbEntity
100
AcDbLine
  8
strips
 62
256
370
-1
  6
ByLayer
 10
741.0331640750846418
 20
41.9556952975224817
 30
0.0
 11
744.6440542139969239
 21
37.163882237238731
 31
0.0
  0
LINE
  5
21F
100
AcDbEntity
100
AcDbLine
  8
strips
 62
256
370
-1
  6
ByLayer
 10
750.0
 20
43.9999999999999787
 30
0.0
 11
750.0
 21
50.0
 31
0.0
  0
LINE
  5
220
100
AcDbEntity
100
AcDbLine
  8
strips
 62
256
370
-1
  6
ByLayer
 10
754.0
 20
49.9999999999999858
 30
0.0
 11
754.0
 21
43.9999999999999787
 31
0.0
  0
LINE
  5
221
100
AcDbEntity
100
AcDbLine
  8
strips
 62
256
370
-1
  6
ByLayer
 10
766.0
 20
43.9999999999999858
 30
0.0
 11
766.0
 21
49.9999999999999787
 31
0.0
  0
LINE
  5
222
100
AcDbEntity
100
AcDbLine
  8
strips
 62
256
370
-1
  6
ByLayer
 10
770.0
 20
43.9999999999999574
 30
0.0
 11
770.0
 21
50.0000000000000142
 31
0.0
  0
LINE
  5
223
100
AcDbEntity
100
AcDbLine
  8
strips
 62
256
370
-1
  6
ByLayer
 10
731.0
 20
10.0000000000000036
 30
0.0
 11
725.0
 21
10.0000000000000053
 31
0.0
  0
LINE
  5
224
100
AcDbEntity
100
AcDbLine
  8
strips
 62
256
370
-1
  6
ByLayer
 10
754.5398545613592205
 20
19.466682847244833
 30
0.0
 11
754.951450488828641
 21
10.9988207771993025
 31
0.0
  0
LINE
  5
225
100
AcDbEntity
100
AcDbLine
  8
strips
 62
256
370
-1
  6
ByLayer
 10
765.0000000000001137
 20
9.9999999999999964
 30
0.0
 11
756.0
 21
9.9999999999999982
 31
0.0
  0
LINE
  5
226
100
AcDbEntity
100
AcDbLine
  8
corner bits
 62
256
370
-1
  6
ByLayer
 10
754.951450488828641
 20
10.9988207771993025
 30
0.0
 11
756.0
 21
9.9999999999999982
 31
0.0
  0
LINE
  5
227
100
AcDbEntity
100
AcDbLine
  8
strips
 62
256
370
-1
  6
ByLayer
 10
727.6872415785749126
 20
18.1253291082011643
 30
0.0
 11
746.0958492696388475
 21
9.4272135962107466
 31
0.0
  0
LINE
  5
228
100
AcDbEntity
100
AcDbLine
  8
corner bits
 62
256
370
-1
  6
ByLayer
 10
747.7465438955530317
 20
9.6653361646659892
 30
0.0
 11
746.0958492696388475
 21
9.4272135962107466
 31
0.0
  0
LINE
  5
229
100
AcDbEntity
100
AcDbLine
  8
strips
 62
256
370
-1
  6
ByLayer
 10
747.7465438955530317
 20
9.6653361646659892
 30
0.0
 11
753.460995584277839
 21
14.7581798573044303
 31
0.0
  0
LINE
  5
22A
100
AcDbEntity
100
AcDbLine
  8
strips
 62
256
370
-1
  6
ByLayer
 10
753.9998513792671702
 20
16.4017111215718394
 30
0.0
 11
749.3705088486804016
 21
38.2055610557052816
 31
0.0
  0
LINE
  5
22B
100
AcDbEntity
100
AcDbLine
  8
corner bits
 62
256
370
-1
  6
ByLayer
 10
753.460995584277839
 20
14.7581798573044303
 30
0.0
 11
753.9998513792671702
 21
16.4017111215718394
 31
0.0
  0
LINE
  5
22C
100
AcDbEntity
100
AcDbLine
  8
strips
 62
256
370
-1
  6
ByLayer
 10
432.3127584214250874
 20
18.1253291082011572
 30
0.0
 11
413.9041507303612093
 21
9.4272135962107448
 31
0.0
  0
LINE
  5
22D
100
AcDbEntity
100
AcDbLine
  8
corner bits
 62
256
370
-1
  6
ByLayer
 10
413.9041507303612093
 20
9.4272135962107448
 30
0.0
 11
412.2534561044469115
 21
9.6653361646659892
 31
0.0
  0
LINE
  5
22E
100
AcDbEntity
100
AcDbLine
  8
strips
 62
256
370
-1
  6
ByLayer
 10
406.0001486207328298
 20
16.4017111215718643
 30
0.0
 11
410.6294911513195984
 21
38.2055610557052887
 31
0.0
  0
LINE
  5
22F
100
AcDbEntity
100
AcDbLine
  8
strips
 62
256
370
-1
  6
ByLayer
 10
412.2534561044469115
 20
9.6653361646659892
 30
0.0
 11
406.5390044157222178
 21
14.7581798573044516
 31
0.0
  0
LINE
  5
230
100
AcDbEntity
100
AcDbLine
  8
corner bits
 62
256
370
-1
  6
ByLayer
 10
406.0001486207328298
 20
16.4017111215718643
 30
0.0
 11
406.5390044157222178
 21
14.7581798573044516
 31
0.0
  0
LINE
  5
231
100
AcDbEntity
100
AcDbLine
  8
strips
 62
256
370
-1
  6
ByLayer
 10
405.4601454386407795
 20
19.4666828472448401
 30
0.0
 11
405.048549511171359
 21
10.9988207771993043
 31
0.0
  0
LINE
  5
232
100
AcDbEntity
100
AcDbLine
  8
strips
 62
256
370
-1
  6
ByLayer
 10
394.9999999999998863
 20
10.0
 30
0.0
 11
404.0
 21
10.0
 31
0.0
  0
LINE
  5
233
100
AcDbEntity
100
AcDbLine
  8
corner bits
 62
256
370
-1
  6
ByLayer
 10
405.048549511171359
 20
10.9988207771993043
 30
0.0
 11
404.0
 21
10.0
 31
0.0
  0
LINE
  5
234
100
AcDbEntity
100
AcDbLine
  8
strips
 62
256
370
-1
  6
ByLayer
 10
394.9999999999998863
 20
470.0
 30
0.0
 11
404.0
 21
470.0
 31
0.0
  0
LINE
  5
235
100
AcDbEntity
100
AcDbLine
  8
strips
 62
256
370
-1
  6
ByLayer
 10
405.4601454386407795
 20
460.5333171527551599
 30
0.0
 11
405.048549511171359
 21
469.0011792228007153
 31
0.0
  0
LINE
  5
236
100
AcDbEntity
100
AcDbLine
  8
corner bits
 62
256
370
-1
  6
ByLayer
 10
404.0
 20
470.0
 30
0.0
 11
405.048549511171359
 21
469.0011792228007153
 31
0.0
  0
LINE
  5
237
100
AcDbEntity
100
AcDbLine
  8
strips
 62
256
370
-1
  6
ByLayer
 10
406.0001486207328298
 20
463.5982888784281499
 30
0.0
 11
410.6294911513195984
 21
441.7944389442947113
 31
0.0
  0
LINE
  5
238
100
AcDbEntity
100
AcDbLine
  8
corner bits
 62
256
370
-1
  6
ByLayer
 10
406.5390044157222178
 20
465.2418201426955306
 30
0.0
 11
406.0001486207328298
 21
463.5982888784281499
 31
0.0
  0
LINE
  5
239
100
AcDbEntity
100
AcDbLine
  8
strips
 62
256
370
-1
  6
ByLayer
 10
432.3127584214250874
 20
461.8746708917988144
 30
0.0
 11
413.9041507303612093
 21
470.57278640378928
 31
0.0
  0
LINE
  5
23A
100
AcDbEntity
100
AcDbLine
  8
strips
 62
256
370
-1
  6
ByLayer
 10
412.2534561044469115
 20
470.3346638353340268
 30
0.0
 11
406.5390044157222178
 21
465.2418201426955306
 31
0.0
  0
LINE
  5
23B
100
AcDbEntity
100
AcDbLine
  8
corner bits
 62
256
370
-1
  6
ByLayer
 10
413.9041507303612093
 20
470.57278640378928
 30
0.0
 11
412.2534561044469115
 21
470.3346638353340268
 31
0.0
  0
LINE
  5
23C
100
AcDbEntity
100
AcDbLine
  8
strips
 62
256
370
-1
  6
ByLayer
 10
727.6872415785749126
 20
461.8746708917988144
 30
0.0
 11
746.0958492696388475
 21
470.57278640378928
 31
0.0
  0
LINE
  5
23D
100
AcDbEntity
100
AcDbLine
  8
corner bits
 62
256
370
-1
  6
ByLayer
 10
746.0958492696388475
 20
470.57278640378928
 30
0.0
 11
747.7465438955530317
 21
470.3346638353340268
 31
0.0
  0
LINE
  5
23E
100
AcDbEntity
100
AcDbLine
  8
strips
 62
256
370
-1
  6
ByLayer
 10
753.9998513792671702
 20
463.5982888784281499
 30
0.0
 11
749.3705088486804016
 21
441.7944389442947113
 31
0.0
  0
LINE
  5
23F
100
AcDbEntity
100
AcDbLine
  8
strips
 62
256
370
-1
  6
ByLayer
 10
747.7465438955530317
 20
470.3346638353340268
 30
0.0
 11
753.460995584277839
 21
465.2418201426955306
 31
0.0
  0
LINE
  5
240
100
AcDbEntity
100
AcDbLine
  8
corner bits
 62
256
370
-1
  6
ByLayer
 10
753.9998513792671702
 20
463.5982888784281499
 30
0.0
 11
753.460995584277839
 21
465.2418201426955306
 31
0.0
  0
LINE
  5
241
100
AcDbEntity
100
AcDbLine
  8
strips
 62
256
370
-1
  6
ByLayer
 10
754.5398545613592205
 20
460.5333171527551599
 30
0.0
 11
754.951450488828641
 21
469.0011792228007153
 31
0.0
  0
LINE
  5
242
100
AcDbEntity
100
AcDbLine
  8
strips
 62
256
370
-1
  6
ByLayer
 10
765.0000000000001137
 20
470.0
 30
0.0
 11
756.0
 21
470.0
 31
0.0
  0
LINE
  5
243
100
AcDbEntity
100
AcDbLine
  8
corner bits
 62
256
370
-1
  6
ByLayer
 10
754.951450488828641
 20
469.0011792228007153
 30
0.0
 11
756.0
 21
470.0
 31
0.0
  0
LINE
  5
244
100
AcDbEntity
100
AcDbLine
  8
strips
 62
256
370
-1
  6
ByLayer
 10
605.0
 20
234.0
 30
0.0
 11
605.0
 21
230.0
 31
0.0
  0
LINE
  5
245
100
AcDbEntity
100
AcDbLine
  8
strips
 62
256
370
-1
  6
ByLayer
 10
611.0
 20
250.0
 30
0.0
 11
611.0
 21
246.0
 31
0.0
  0
LINE
  5
246
100
AcDbEntity
100
AcDbLine
  8
strips
 62
256
370
-1
  6
ByLayer
 10
605.0
 20
250.0
 30
0.0
 11
605.0
 21
246.0
 31
0.0
  0
LINE
  5
247
100
AcDbEntity
100
AcDbLine
  8
strips
 62
256
370
-1
  6
ByLayer
 10
611.0
 20
250.0
 30
0.0
 11
605.0
 21
250.0
 31
0.0
  0
LINE
  5
248
100
AcDbEntity
100
AcDbLine
  8
strips
 62
256
370
-1
  6
ByLayer
 10
605.0
 20
246.0
 30
0.0
 11
611.0
 21
246.0
 31
0.0
  0
LINE
  5
249
100
AcDbEntity
100
AcDbLine
  8
strips
 62
256
370
-1
  6
ByLayer
 10
611.0
 20
234.0
 30
0.0
 11
605.0
 21
234.0
 31
0.0
  0
LINE
  5
24A
100
AcDbEntity
100
AcDbLine
  8
strips
 62
256
370
-1
  6
ByLayer
 10
611.0
 20
230.0
 30
0.0
 11
605.0
 21
230.0
 31
0.0
  0
LINE
  5
24B
100
AcDbEntity
100
AcDbLine
  8
strips
 62
256
370
-1
  6
ByLayer
 10
611.0
 20
234.0
 30
0.0
 11
611.0
 21
230.0
 31
0.0
  0
LINE
  5
24C
100
AcDbEntity
100
AcDbLine
  8
strips
 62
256
370
-1
  6
ByLayer
 10
548.0
 20
234.0
 30
0.0
 11
548.0
 21
230.0
 31
0.0
  0
LINE
  5
24D
100
AcDbEntity
100
AcDbLine
  8
strips
 62
256
370
-1
  6
ByLayer
 10
554.0
 20
250.0
 30
0.0
 11
554.0
 21
246.0
 31
0.0
  0
LINE
  5
24E
100
AcDbEntity
100
AcDbLine
  8
strips
 62
256
370
-1
  6
ByLayer
 10
548.0
 20
250.0
 30
0.0
 11
548.0
 21
246.0
 31
0.0
  0
LINE
  5
24F
100
AcDbEntity
100
AcDbLine
  8
strips
 62
256
370
-1
  6
ByLayer
 10
554.0
 20
250.0
 30
0.0
 11
548.0
 21
250.0
 31
0.0
  0
LINE
  5
250
100
AcDbEntity
100
AcDbLine
  8
strips
 62
256
370
-1
  6
ByLayer
 10
548.0
 20
246.0
 30
0.0
 11
554.0
 21
246.0
 31
0.0
  0
LINE
  5
251
100
AcDbEntity
100
AcDbLine
  8
strips
 62
256
370
-1
  6
ByLayer
 10
554.0
 20
234.0
 30
0.0
 11
548.0
 21
234.0
 31
0.0
  0
LINE
  5
252
100
AcDbEntity
100
AcDbLine
  8
strips
 62
256
370
-1
  6
ByLayer
 10
554.0
 20
230.0
 30
0.0
 11
548.0
 21
230.0
 31
0.0
  0
LINE
  5
253
100
AcDbEntity
100
AcDbLine
  8
strips
 62
256
370
-1
  6
ByLayer
 10
554.0
 20
234.0
 30
0.0
 11
554.0
 21
230.0
 31
0.0
  0
LINE
  5
254
100
AcDbEntity
100
AcDbLine
  8
corner bits
 62
256
370
-1
  6
ByLayer
 10
554.0
 20
255.0
 30
0.0
 11
548.0
 21
255.0
 31
0.0
  0
LINE
  5
255
100
AcDbEntity
100
AcDbLine
  8
corner bits
 62
256
370
-1
  6
ByLayer
 10
554.0
 20
225.0
 30
0.0
 11
548.0
 21
225.0
 31
0.0
  0
LINE
  5
256
100
AcDbEntity
100
AcDbLine
  8
corner bits
 62
256
370
-1
  6
ByLayer
 10
611.0
 20
225.0
 30
0.0
 11
605.0
 21
225.0
 31
0.0
  0
LINE
  5
257
100
AcDbEntity
100
AcDbLine
  8
corner bits
 62
256
370
-1
  6
ByLayer
 10
611.0
 20
255.0
 30
0.0
 11
605.0
 21
255.0
 31
0.0
  0
LINE
  5
258
100
AcDbEntity
100
AcDbLine
  8
corner bits
 62
256
370
-1
  6
ByLayer
 10
538.0
 20
250.0
 30
0.0
 11
548.0
 21
255.0
 31
0.0
  0
LINE
  5
259
100
AcDbEntity
100
AcDbLine
  8
corner bits
 62
256
370
-1
  6
ByLayer
 10
548.0
 20
225.0
 30
0.0
 11
538.0
 21
230.0
 31
0.0
  0
LINE
  5
25A
100
AcDbEntity
100
AcDbLine
  8
corner bits
 62
256
370
-1
  6
ByLayer
 10
611.0
 20
225.0
 30
0.0
 11
622.0
 21
230.0000000000000284
 31
0.0
  0
LINE
  5
25B
100
AcDbEntity
100
AcDbLine
  8
corner bits
 62
256
370
-1
  6
ByLayer
 10
622.0
 20
250.0000000000001421
 30
0.0
 11
611.0
 21
255.0
 31
0.0
  0
LINE
  5
25C
100
AcDbEntity
100
AcDbLine
  8
strips
 62
256
370
-1
  6
ByLayer
 10
574.0
 20
281.0
 30
0.0
 11
570.0
 21
281.0
 31
0.0
  0
LINE
  5
25D
100
AcDbEntity
100
AcDbLine
  8
strips
 62
256
370
-1
  6
ByLayer
 10
590.0
 20
275.0
 30
0.0
 11
586.0
 21
275.0
 31
0.0
  0
LINE
  5
25E
100
AcDbEntity
100
AcDbLine
  8
strips
 62
256
370
-1
  6
ByLayer
 10
590.0
 20
281.0
 30
0.0
 11
586.0
 21
281.0
 31
0.0
  0
LINE
  5
25F
100
AcDbEntity
100
AcDbLine
  8
strips
 62
256
370
-1
  6
ByLayer
 10
590.0
 20
275.0
 30
0.0
 11
590.0
 21
281.0
 31
0.0
  0
LINE
  5
260
100
AcDbEntity
100
AcDbLine
  8
strips
 62
256
370
-1
  6
ByLayer
 10
586.0
 20
281.0
 30
0.0
 11
586.0
 21
275.0
 31
0.0
  0
LINE
  5
261
100
AcDbEntity
100
AcDbLine
  8
strips
 62
256
370
-1
  6
ByLayer
 10
574.0
 20
275.0
 30
0.0
 11
574.0
 21
281.0
 31
0.0
  0
LINE
  5
262
100
AcDbEntity
100
AcDbLine
  8
strips
 62
256
370
-1
  6
ByLayer
 10
570.0
 20
275.0
 30
0.0
 11
570.0
 21
281.0
 31
0.0
  0
LINE
  5
263
100
AcDbEntity
100
AcDbLine
  8
strips
 62
256
370
-1
  6
ByLayer
 10
574.0
 20
275.0
 30
0.0
 11
570.0
 21
275.0
 31
0.0
  0
LINE
  5
264
100
AcDbEntity
100
AcDbLine
  8
strips
 62
256
370
-1
  6
ByLayer
 10
574.0
 20
205.0
 30
0.0
 11
570.0
 21
205.0
 31
0.0
  0
LINE
  5
265
100
AcDbEntity
100
AcDbLine
  8
strips
 62
256
370
-1
  6
ByLayer
 10
590.0
 20
199.0
 30
0.0
 11
586.0
 21
199.0
 31
0.0
  0
LINE
  5
266
100
AcDbEntity
100
AcDbLine
  8
strips
 62
256
370
-1
  6
ByLayer
 10
590.0
 20
205.0
 30
0.0
 11
586.0
 21
205.0
 31
0.0
  0
LINE
  5
267
100
AcDbEntity
100
AcDbLine
  8
strips
 62
256
370
-1
  6
ByLayer
 10
590.0
 20
199.0
 30
0.0
 11
590.0
 21
205.0
 31
0.0
  0
LINE
  5
268
100
AcDbEntity
100
AcDbLine
  8
strips
 62
256
370
-1
  6
ByLayer
 10
586.0
 20
205.0
 30
0.0
 11
586.0
 21
199.0
 31
0.0
  0
LINE
  5
269
100
AcDbEntity
100
AcDbLine
  8
strips
 62
256
370
-1
  6
ByLayer
 10
574.0
 20
199.0
 30
0.0
 11
574.0
 21
205.0
 31
0.0
  0
LINE
  5
26A
100
AcDbEntity
100
AcDbLine
  8
strips
 62
256
370
-1
  6
ByLayer
 10
570.0
 20
199.0
 30
0.0
 11
570.0
 21
205.0
 31
0.0
  0
LINE
  5
26B
100
AcDbEntity
100
AcDbLine
  8
strips
 62
256
370
-1
  6
ByLayer
 10
574.0
 20
199.0
 30
0.0
 11
570.0
 21
199.0
 31
0.0
  0
LINE
  5
26C
100
AcDbEntity
100
AcDbLine
  8
corner bits
 62
256
370
-1
  6
ByLayer
 10
565.0
 20
275.0
 30
0.0
 11
565.0
 21
281.0
 31
0.0
  0
LINE
  5
26D
100
AcDbEntity
100
AcDbLine
  8
corner bits
 62
256
370
-1
  6
ByLayer
 10
595.0
 20
275.0
 30
0.0
 11
595.0
 21
281.0
 31
0.0
  0
LINE
  5
26E
100
AcDbEntity
100
AcDbLine
  8
corner bits
 62
256
370
-1
  6
ByLayer
 10
595.0
 20
199.0
 30
0.0
 11
595.0
 21
205.0
 31
0.0
  0
LINE
  5
26F
100
AcDbEntity
100
AcDbLine
  8
corner bits
 62
256
370
-1
  6
ByLayer
 10
565.0
 20
199.0
 30
0.0
 11
565.0
 21
205.0
 31
0.0
  0
LINE
  5
270
100
AcDbEntity
100
AcDbLine
  8
corner bits
 62
256
370
-1
  6
ByLayer
 10
565.0
 20
199.0
 30
0.0
 11
570.0
 21
184.0
 31
0.0
  0
LINE
  5
271
100
AcDbEntity
100
AcDbLine
  8
corner bits
 62
256
370
-1
  6
ByLayer
 10
590.0
 20
184.0
 30
0.0
 11
595.0
 21
199.0
 31
0.0
  0
LINE
  5
272
100
AcDbEntity
100
AcDbLine
  8
corner bits
 62
256
370
-1
  6
ByLayer
 10
590.0
 20
296.0
 30
0.0
 11
595.0
 21
281.0
 31
0.0
  0
LINE
  5
273
100
AcDbEntity
100
AcDbLine
  8
corner bits
 62
256
370
-1
  6
ByLayer
 10
570.0
 20
296.0
 30
0.0
 11
565.0
 21
281.0
 31
0.0
  0
LINE
  5
274
100
AcDbEntity
100
AcDbLine
  8
strips
 62
256
370
-1
  6
ByLayer
 10
737.8386220348954794
 20
39.5484352049142842
 30
0.0
 11
741.0331640750846418
 21
41.9556952975224817
 31
0.0
  0
LINE
  5
275
100
AcDbEntity
100
AcDbLine
  8
strips
 62
256
370
-1
  6
ByLayer
 10
558.3890582996689318
 20
278.8372273101490464
 30
0.0
 11
561.5836003398580942
 21
281.2444874027572155
 31
0.0
  0
LINE
  5
276
100
AcDbEntity
100
AcDbLine
  8
strips
 62
256
370
-1
  6
ByLayer
 10
554.7781681607566497
 20
283.62904037043279
 30
0.0
 11
557.9727102009458122
 21
286.0363004630409591
 31
0.0
  0
LINE
  5
277
100
AcDbEntity
100
AcDbLine
  8
strips
 62
256
370
-1
  6
ByLayer
 10
542.0
 20
274.0
 30
0.0
 11
545.1945420401891624
 21
276.4072600926081691
 31
0.0
  0
LINE
  5
278
100
AcDbEntity
100
AcDbLine
  8
strips
 62
256
370
-1
  6
ByLayer
 10
545.6108901389122821
 20
269.2081869397162563
 30
0.0
 11
548.8054321791014445
 21
271.6154470323244254
 31
0.0
  0
LINE
  5
279
100
AcDbEntity
100
AcDbLine
  8
strips
 62
256
370
-1
  6
ByLayer
 10
542.0
 20
274.0
 30
0.0
 11
545.6108901389122821
 21
269.2081869397162563
 31
0.0
  0
LINE
  5
27A
100
AcDbEntity
100
AcDbLine
  8
strips
 62
256
370
-1
  6
ByLayer
 10
548.8054321791014445
 20
271.6154470323244254
 30
0.0
 11
545.1945420401891624
 21
276.4072600926081691
 31
0.0
  0
LINE
  5
27B
100
AcDbEntity
100
AcDbLine
  8
strips
 62
256
370
-1
  6
ByLayer
 10
554.7781681607566497
 20
283.62904037043279
 30
0.0
 11
558.3890582996689318
 21
278.8372273101490464
 31
0.0
  0
LINE
  5
27C
100
AcDbEntity
100
AcDbLine
  8
strips
 62
256
370
-1
  6
ByLayer
 10
561.5836003398580942
 20
281.2444874027572155
 30
0.0
 11
557.9727102009458122
 21
286.0363004630409591
 31
0.0
  0
LINE
  5
27D
100
AcDbEntity
100
AcDbLine
  8
corner bits
 62
256
370
-1
  6
ByLayer
 10
572.0
 20
259.0
 30
0.0
 11
564.0
 21
253.0
 31
0.0
  0
LINE
  5
27E
100
AcDbEntity
100
AcDbLine
  8
corner bits
 62
256
370
-1
  6
ByLayer
 10
570.0
 20
245.0
 30
0.0
 11
570.0
 21
234.9999999999999716
 31
0.0
  0
LINE
  5
27F
100
AcDbEntity
100
AcDbLine
  8
corner bits
 62
256
370
-1
  6
ByLayer
 10
564.0
 20
227.0000000000000284
 30
0.0
 11
572.0
 21
221.0
 31
0.0
  0
LINE
  5
280
100
AcDbEntity
100
AcDbLine
  8
corner bits
 62
256
370
-1
  6
ByLayer
 10
585.0000000000001137
 20
225.0
 30
0.0
 11
575.0
 21
225.0000000000000568
 31
0.0
  0
LINE
  5
281
100
AcDbEntity
100
AcDbLine
  8
corner bits
 62
256
370
-1
  6
ByLayer
 10
595.9999999999998863
 20
226.9999999999999432
 30
0.0
 11
587.9999999999998863
 21
220.9999999999999432
 31
0.0
  0
LINE
  5
282
100
AcDbEntity
100
AcDbLine
  8
corner bits
 62
256
370
-1
  6
ByLayer
 10
590.0
 20
245.0000000000000568
 30
0.0
 11
590.0
 21
235.0000000000000284
 31
0.0
  0
LINE
  5
283
100
AcDbEntity
100
AcDbLine
  8
corner bits
 62
256
370
-1
  6
ByLayer
 10
588.0
 20
259.0
 30
0.0
 11
596.0
 21
253.0
 31
0.0
  0
LINE
  5
284
100
AcDbEntity
100
AcDbLine
  8
corner bits
 62
256
370
-1
  6
ByLayer
 10
585.0
 20
255.0
 30
0.0
 11
575.0
 21
255.0
 31
0.0
  0
LINE
  5
285
100
AcDbEntity
100
AcDbLine
  8
corner bits
 62
256
370
-1
  6
ByLayer
 10
554.0
 20
255.0
 30
0.0
 11
570.0
 21
245.0
 31
0.0
  0
LINE
  5
286
100
AcDbEntity
100
AcDbLine
  8
corner bits
 62
256
370
-1
  6
ByLayer
 10
570.0
 20
234.9999999999999716
 30
0.0
 11
554.0
 21
225.0
 31
0.0
  0
LINE
  5
287
100
AcDbEntity
100
AcDbLine
  8
corner bits
 62
256
370
-1
  6
ByLayer
 10
565.0
 20
205.0
 30
0.0
 11
575.0
 21
225.0000000000000568
 31
0.0
  0
LINE
  5
288
100
AcDbEntity
100
AcDbLine
  8
corner bits
 62
256
370
-1
  6
ByLayer
 10
585.0000000000001137
 20
225.0
 30
0.0
 11
595.0
 21
205.0
 31
0.0
  0
LINE
  5
289
100
AcDbEntity
100
AcDbLine
  8
corner bits
 62
256
370
-1
  6
ByLayer
 10
605.0
 20
225.0
 30
0.0
 11
590.0
 21
235.0000000000000284
 31
0.0
  0
LINE
  5
28A
100
AcDbEntity
100
AcDbLine
  8
corner bits
 62
256
370
-1
  6
ByLayer
 10
605.0
 20
255.0
 30
0.0
 11
590.0
 21
245.0000000000000568
 31
0.0
  0
LINE
  5
28B
100
AcDbEntity
100
AcDbLine
  8
corner bits
 62
256
370
-1
  6
ByLayer
 10
585.0
 20
255.0
 30
0.0
 11
595.0
 21
275.0
 31
0.0
  0
LINE
  5
28C
100
AcDbEntity
100
AcDbLine
  8
corner bits
 62
256
370
-1
  6
ByLayer
 10
575.0
 20
255.0
 30
0.0
 11
565.0
 21
275.0
 31
0.0
  0
LINE
  5
28D
100
AcDbEntity
100
AcDbLine
  8
strips
 62
256
370
-1
  6
ByLayer
 10
660.4163480987231196
 20
212.8009268471080873
 30
0.0
 11
663.6108901389122821
 21
215.2081869397162563
 31
0.0
  0
LINE
  5
28E
100
AcDbEntity
100
AcDbLine
  8
strips
 62
256
370
-1
  6
ByLayer
 10
656.8054579598108376
 20
217.5927399073918025
 30
0.0
 11
660.0
 21
220.0
 31
0.0
  0
LINE
  5
28F
100
AcDbEntity
100
AcDbLine
  8
strips
 62
256
370
-1
  6
ByLayer
 10
644.0272897990541878
 20
207.9636995369590409
 30
0.0
 11
647.2218318392433503
 21
210.37095962956721
 31
0.0
  0
LINE
  5
290
100
AcDbEntity
100
AcDbLine
  8
strips
 62
256
370
-1
  6
ByLayer
 10
647.6381799379664699
 20
203.1718864766752972
 30
0.0
 11
650.8327219781556323
 21
205.5791465692834663
 31
0.0
  0
LINE
  5
291
100
AcDbEntity
100
AcDbLine
  8
strips
 62
256
370
-1
  6
ByLayer
 10
644.0272897990541878
 20
207.9636995369590409
 30
0.0
 11
647.6381799379664699
 21
203.1718864766752972
 31
0.0
  0
LINE
  5
292
100
AcDbEntity
100
AcDbLine
  8
strips
 62
256
370
-1
  6
ByLayer
 10
650.8327219781556323
 20
205.5791465692834663
 30
0.0
 11
647.2218318392433503
 21
210.37095962956721
 31
0.0
  0
LINE
  5
293
100
AcDbEntity
100
AcDbLine
  8
strips
 62
256
370
-1
  6
ByLayer
 10
656.8054579598108376
 20
217.5927399073918025
 30
0.0
 11
660.4163480987231196
 21
212.8009268471080588
 31
0.0
  0
LINE
  5
294
100
AcDbEntity
100
AcDbLine
  8
strips
 62
256
370
-1
  6
ByLayer
 10
663.6108901389122821
 20
215.2081869397162563
 30
0.0
 11
660.0
 21
220.0
 31
0.0
  0
LINE
  5
295
100
AcDbEntity
100
AcDbLine
  8
corner bits
 62
256
370
-1
  6
ByLayer
 10
602.0000000000001137
 20
194.0000000000000568
 30
0.0
 11
618.0000000000001137
 21
206.0000000000000568
 31
0.0
  0
LINE
  5
296
100
AcDbEntity
100
AcDbLine
  8
corner bits
 62
256
370
-1
  6
ByLayer
 10
618.0000000000001137
 20
206.0000000000000568
 30
0.0
 11
606.0000000000001137
 21
222.0000000000000568
 31
0.0
  0
LINE
  5
297
100
AcDbEntity
100
AcDbLine
  8
corner bits
 62
256
370
-1
  6
ByLayer
 10
606.0000000000001137
 20
222.0000000000000568
 30
0.0
 11
590.0000000000001137
 21
210.0000000000000568
 31
0.0
  0
LINE
  5
298
100
AcDbEntity
100
AcDbLine
  8
corner bits
 62
256
370
-1
  6
ByLayer
 10
590.0000000000001137
 20
210.0000000000000568
 30
0.0
 11
602.0000000000001137
 21
194.0000000000000568
 31
0.0
  0
ENDSEC
  0
SECTION
  2
OBJECTS
  0
DICTIONARY
  5
C
100
AcDbDictionary
280
0
281
1
  3
ACAD_GROUP
350
D
  3
ACAD_LAYOUT
350
1A
  3
ACAD_MLINESTYLE
350
17
  3
ACAD_PLOTSETTINGS
350
19
  3
ACAD_PLOTSTYLENAME
350
E
  3
AcDbVariableDictionary
350
299
  0
DICTIONARY
  5
D
100
AcDbDictionary
280
0
281
1
  0
ACDBDICTIONARYWDFLT
  5
E
100
AcDbDictionary
281
1
  3
Normal
350
F
100
AcDbDictionaryWithDefault
340
F
  0
ACDBPLACEHOLDER
  5
F
  0
DICTIONARY
  5
17
100
AcDbDictionary
280
0
281
1
  3
Standard
350
18
  0
MLINESTYLE
  5
18
100
AcDbMlineStyle
  2
STANDARD
 70
0
  3

 62
256
 51
90.0
 52
90.0
 71
2
 49
0.5
 62
256
  6
BYLAYER
 49
-0.5
 62
256
  6
BYLAYER
  0
DICTIONARY
  5
19
100
AcDbDictionary
280
0
281
1
  0
DICTIONARY
  5
1A
100
AcDbDictionary
281
1
  3
Layout1
350
1E
  3
Layout2
350
26
  3
Model
350
22
  0
LAYOUT
  5
1E
100
AcDbPlotSettings
  1

  2
C:\Program Files\AutoCAD 2002\plotters\DWF ePlot (optimized for plotting).pc3
  4

  6

 40
0.0
 41
0.0
 42
0.0
 43
0.0
 44
0.0
 45
0.0
 46
0.0
 47
0.0
 48
0.0
 49
0.0
140
0.0
141
0.0
142
1.0
143
1.0
 70
688
 72
0
 73
0
 74
5
  7

 75
16
147
1.0
148
0.0
149
0.0
100
AcDbLayout
  1
Layout1
 70
1
 71
1
 10
0.0
 20
0.0
 11
420.0
 21
297.0
 12
0.0
 22
0.0
 32
0.0
 14
100000000000000000000.0
 24
100000000000000000000.0
 34
100000000000000000000.0
 15
-100000000000000000000.0
 25
-100000000000000000000.0
 35
-100000000000000000000.0
146
0.0
 13
0.0
 23
0.0
 33
0.0
 16
1.0
 26
0.0
 36
0.0
 17
0.0
 27
1.0
 37
0.0
 76
0
330
1B
  0
LAYOUT
  5
22
100
AcDbPlotSettings
  1

  2
C:\Program Files\AutoCAD 2002\plotters\DWF ePlot (optimized for plotting).pc3
  4

  6

 40
0.0
 41
0.0
 42
0.0
 43
0.0
 44
0.0
 45
0.0
 46
0.0
 47
0.0
 48
0.0
 49
0.0
140
0.0
141
0.0
142
1.0
143
1.0
 70
1712
 72
0
 73
0
 74
0
  7

 75
0
147
1.0
148
0.0
149
0.0
100
AcDbLayout
  1
Model
 70
1
 71
0
 10
0.0
 20
0.0
 11
12.0
 21
9.0
 12
0.0
 22
0.0
 32
0.0
 14
0.0
 24
0.0
 34
0.0
 15
0.0
 25
0.0
 35
0.0
146
0.0
 13
0.0
 23
0.0
 33
0.0
 16
1.0
 26
0.0
 36
0.0
 17
0.0
 27
1.0
 37
0.0
 76
0
330
1F
  0
LAYOUT
  5
26
100
AcDbPlotSettings
  1

  2
C:\Program Files\AutoCAD 2002\plotters\DWF ePlot (optimized for plotting).pc3
  4

  6

 40
0.0
 41
0.0
 42
0.0
 43
0.0
 44
0.0
 45
0.0
 46
0.0
 47
0.0
 48
0.0
 49
0.0
140
0.0
141
0.0
142
1.0
143
1.0
 70
688
 72
0
 73
0
 74
5
  7

 75
16
147
1.0
148
0.0
149
0.0
100
AcDbLayout
  1
Layout2
 70
1
 71
2
 10
0.0
 20
0.0
 11
12.0
 21
9.0
 12
0.0
 22
0.0
 32
0.0
 14
0.0
 24
0.0
 34
0.0
 15
0.0
 25
0.0
 35
0.0
146
0.0
 13
0.0
 23
0.0
 33
0.0
 16
1.0
 26
0.0
 36
0.0
 17
0.0
 27
1.0
 37
0.0
 76
0
330
23
  0
DICTIONARY
  5
299
100
AcDbDictionary
281
1
  3
DIMASSOC
350
29B
  3
HIDETEXT
350
29A
  0
DICTIONARYVAR
  5
29A
100
DictionaryVariables
280
0
  1
2
  0
DICTIONARYVAR
  5
29B
100
DictionaryVariables
280
0
  1
1
  0
ENDSEC
  0
EOF
