999
dxflib 2.2.0.0
  0
SECTION
  2
HEADER
  9
$ACADVER
  1
AC1015
  9
$HANDSEED
  5
FFFF
  9
$DIMASZ
 40
2.5
  9
$GRIDMODE
 70
1
  9
$PLIMMIN
 10
0.0
 20
0.0
  9
$DIMEXE
 40
1.25
  9
$DIMGAP
 40
0.625
  9
$PLIMMAX
 10
210.0
 20
297.0
  9
$INSUNITS
 70
4
  9
$DIMSTYLE
  2
Standard
  9
$DIMEXO
 40
0.625
  9
$DIMTXT
 40
2.5
  0
ENDSEC
  0
SECTION
  2
TABLES
  0
TABLE
  2
VPORT
  5
8
100
AcDbSymbolTable
 70
1
  0
VPORT
  5
30
100
AcDbSymbolTableRecord
100
AcDbViewportTableRecord
  2
*Active
 70
0
 10
0.0
 20
0.0
 11
1.0
 21
1.0
 12
286.3055555555554861
 22
148.5
 13
0.0
 23
0.0
 14
10.0
 24
10.0
 15
10.0
 25
10.0
 16
0.0
 26
0.0
 36
1.0
 17
0.0
 27
0.0
 37
0.0
 40
297.0
 41
1.92798353909465
 42
50.0
 43
0.0
 44
0.0
 50
0.0
 51
0.0
 71
0
 72
100
 73
1
 74
3
 75
1
 76
1
 77
0
 78
0
281
0
 65
1
110
0.0
120
0.0
130
0.0
111
1.0
121
0.0
131
0.0
112
0.0
122
1.0
132
0.0
 79
0
146
0.0
  0
ENDTAB
  0
TABLE
  2
LTYPE
  5
5
100
AcDbSymbolTable
 70
21
  0
LTYPE
  5
14
100
AcDbSymbolTableRecord
100
AcDbLinetypeTableRecord
  2
ByBlock
 70
0
  3

 72
65
 73
0
 40
0.0
  0
LTYPE
  5
15
100
AcDbSymbolTableRecord
100
AcDbLinetypeTableRecord
  2
ByLayer
 70
0
  3

 72
65
 73
0
 40
0.0
  0
LTYPE
  5
16
100
AcDbSymbolTableRecord
100
AcDbLinetypeTableRecord
  2
CONTINUOUS
 70
0
  3
Solid line
 72
65
 73
0
 40
0.0
  0
LTYPE
  5
31
100
AcDbSymbolTableRecord
100
AcDbLinetypeTableRecord
  2
DOT
 70
0
  3
Dot . . . . . . . . . . . . . . . . . . . . . .
 72
65
 73
2
 40
6.3499999999999996
 49
0.0
 74
0
 49
-6.3499999999999996
 74
0
  0
LTYPE
  5
32
100
AcDbSymbolTableRecord
100
AcDbLinetypeTableRecord
  2
DOT2
 70
0
  3
Dot (.5x) .....................................
 72
65
 73
2
 40
3.1749999999999998
 49
0.0
 74
0
 49
-3.1749999999999998
 74
0
  0
LTYPE
  5
33
100
AcDbSymbolTableRecord
100
AcDbLinetypeTableRecord
  2
DOTX2
 70
0
  3
Dot (2x) .  .  .  .  .  .  .  .  .  .  .  .  .
 72
65
 73
2
 40
12.6999999999999993
 49
0.0
 74
0
 49
-12.6999999999999993
 74
0
  0
LTYPE
  5
34
100
AcDbSymbolTableRecord
100
AcDbLinetypeTableRecord
  2
DASHED
 70
0
  3
Dashed __ __ __ __ __ __ __ __ __ __ __ __ __ _
 72
65
 73
2
 40
19.0500000000000007
 49
12.6999999999999993
 74
0
 49
-6.3499999999999996
 74
0
  0
LTYPE
  5
35
100
AcDbSymbolTableRecord
100
AcDbLinetypeTableRecord
  2
DASHED2
 70
0
  3
Dashed (.5x) _ _ _ _ _ _ _ _ _ _ _ _ _ _ _ _ _
 72
65
 73
2
 40
9.5250000000000004
 49
6.3499999999999996
 74
0
 49
-3.1749999999999998
 74
0
  0
LTYPE
  5
36
100
AcDbSymbolTableRecord
100
AcDbLinetypeTableRecord
  2
DASHEDX2
 70
0
  3
Dashed (2x) ____  ____  ____  ____  ____  ___
 72
65
 73
2
 40
38.1000000000000014
 49
25.3999999999999986
 74
0
 49
-12.6999999999999993
 74
0
  0
LTYPE
  5
37
100
AcDbSymbolTableRecord
100
AcDbLinetypeTableRecord
  2
DASHDOT
 70
0
  3
Dash dot __ . __ . __ . __ . __ . __ . __ . __
 72
65
 73
4
 40
25.3999999999999986
 49
12.6999999999999993
 74
0
 49
-6.3499999999999996
 74
0
 49
0.0
 74
0
 49
-6.3499999999999996
 74
0
  0
LTYPE
  5
38
100
AcDbSymbolTableRecord
100
AcDbLinetypeTableRecord
  2
DASHDOT2
 70
0
  3
Dash dot (.5x) _._._._._._._._._._._._._._._.
 72
65
 73
4
 40
12.6999999999999993
 49
6.3499999999999996
 74
0
 49
-3.1749999999999998
 74
0
 49
0.0
 74
0
 49
-3.1749999999999998
 74
0
  0
LTYPE
  5
39
100
AcDbSymbolTableRecord
100
AcDbLinetypeTableRecord
  2
DASHDOTX2
 70
0
  3
Dash dot (2x) ____  .  ____  .  ____  .  ___
 72
65
 73
4
 40
50.7999999999999972
 49
25.3999999999999986
 74
0
 49
-12.6999999999999993
 74
0
 49
0.0
 74
0
 49
-12.6999999999999993
 74
0
  0
LTYPE
  5
3A
100
AcDbSymbolTableRecord
100
AcDbLinetypeTableRecord
  2
DIVIDE
 70
0
  3
Divide ____ . . ____ . . ____ . . ____ . . ____
 72
65
 73
6
 40
31.75
 49
12.6999999999999993
 74
0
 49
-6.3499999999999996
 74
0
 49
0.0
 74
0
 49
-6.3499999999999996
 74
0
 49
0.0
 74
0
 49
-6.3499999999999996
 74
0
  0
LTYPE
  5
3B
100
AcDbSymbolTableRecord
100
AcDbLinetypeTableRecord
  2
DIVIDE2
 70
0
  3
Divide (.5x) __..__..__..__..__..__..__..__.._
 72
65
 73
6
 40
15.875
 49
6.3499999999999996
 74
0
 49
-3.1749999999999998
 74
0
 49
0.0
 74
0
 49
-3.1749999999999998
 74
0
 49
0.0
 74
0
 49
-3.1749999999999998
 74
0
  0
LTYPE
  5
3C
100
AcDbSymbolTableRecord
100
AcDbLinetypeTableRecord
  2
DIVIDEX2
 70
0
  3
Divide (2x) ________  .  .  ________  .  .  _
 72
65
 73
6
 40
63.5
 49
25.3999999999999986
 74
0
 49
-12.6999999999999993
 74
0
 49
0.0
 74
0
 49
-12.6999999999999993
 74
0
 49
0.0
 74
0
 49
-12.6999999999999993
 74
0
  0
LTYPE
  5
3D
100
AcDbSymbolTableRecord
100
AcDbLinetypeTableRecord
  2
CENTER
 70
0
  3
Center ____ _ ____ _ ____ _ ____ _ ____ _ ____
 72
65
 73
4
 40
50.7999999999999972
 49
31.75
 74
0
 49
-6.3499999999999996
 74
0
 49
6.3499999999999996
 74
0
 49
-6.3499999999999996
 74
0
  0
LTYPE
  5
3E
100
AcDbSymbolTableRecord
100
AcDbLinetypeTableRecord
  2
CENTER2
 70
0
  3
Center (.5x) ___ _ ___ _ ___ _ ___ _ ___ _ ___
 72
65
 73
4
 40
28.5749999999999993
 49
19.0500000000000007
 74
0
 49
-3.1749999999999998
 74
0
 49
3.1749999999999998
 74
0
 49
-3.1749999999999998
 74
0
  0
LTYPE
  5
3F
100
AcDbSymbolTableRecord
100
AcDbLinetypeTableRecord
  2
CENTERX2
 70
0
  3
Center (2x) ________  __  ________  __  _____
 72
65
 73
4
 40
101.5999999999999943
 49
63.5
 74
0
 49
-12.6999999999999993
 74
0
 49
12.6999999999999993
 74
0
 49
-12.6999999999999993
 74
0
  0
LTYPE
  5
40
100
AcDbSymbolTableRecord
100
AcDbLinetypeTableRecord
  2
BORDER
 70
0
  3
Border __ __ . __ __ . __ __ . __ __ . __ __ .
 72
65
 73
6
 40
44.4500000000000028
 49
12.6999999999999993
 74
0
 49
-6.3499999999999996
 74
0
 49
12.6999999999999993
 74
0
 49
-6.3499999999999996
 74
0
 49
0.0
 74
0
 49
-6.3499999999999996
 74
0
  0
LTYPE
  5
41
100
AcDbSymbolTableRecord
100
AcDbLinetypeTableRecord
  2
BORDER2
 70
0
  3
Border (.5x) __.__.__.__.__.__.__.__.__.__.__.
 72
65
 73
6
 40
22.2250000000000014
 49
6.3499999999999996
 74
0
 49
-3.1749999999999998
 74
0
 49
6.3499999999999996
 74
0
 49
-3.1749999999999998
 74
0
 49
0.0
 74
0
 49
-3.1749999999999998
 74
0
  0
LTYPE
  5
42
100
AcDbSymbolTableRecord
100
AcDbLinetypeTableRecord
  2
BORDERX2
 70
0
  3
Border (2x) ____  ____  .  ____  ____  .  ___
 72
65
 73
6
 40
88.9000000000000057
 49
25.3999999999999986
 74
0
 49
-12.6999999999999993
 74
0
 49
25.3999999999999986
 74
0
 49
-12.6999999999999993
 74
0
 49
0.0
 74
0
 49
-12.6999999999999993
 74
0
  0
ENDTAB
  0
TABLE
  2
LAYER
  5
2
100
AcDbSymbolTable
 70
5
  0
LAYER
  5
10
100
AcDbSymbolTableRecord
100
AcDbLayerTableRecord
  2
0
 70
0
 62
7
  6
CONTINUOUS
290
1
370
0
390
F
  0
LAYER
  5
43
100
AcDbSymbolTableRecord
100
AcDbLayerTableRecord
  2
strips
 70
0
 62
2
  6
CONTINUOUS
290
1
370
0
390
F
  0
LAYER
  5
44
100
AcDbSymbolTableRecord
100
AcDbLayerTableRecord
  2
corners
 70
0
 62
3
  6
CONTINUOUS
290
1
370
0
390
F
  0
LAYER
  5
45
100
AcDbSymbolTableRecord
100
AcDbLayerTableRecord
  2
wedges
 70
0
 62
1
  6
CONTINUOUS
290
1
370
0
390
F
  0
LAYER
  5
46
100
AcDbSymbolTableRecord
100
AcDbLayerTableRecord
  2
corner bits
 70
0
 62
6
  6
CONTINUOUS
290
1
370
0
390
F
  0
ENDTAB
  0
TABLE
  2
STYLE
  5
3
100
AcDbSymbolTable
 70
1
  0
STYLE
  5
11
100
AcDbSymbolTableRecord
100
AcDbTextStyleTableRecord
  2
Standard
 70
0
 40
0.0
 41
0.75
 50
0.0
 71
0
 42
2.5
  3
txt
  4

  0
ENDTAB
  0
TABLE
  2
VIEW
  5
6
100
AcDbSymbolTable
 70
0
  0
ENDTAB
  0
TABLE
  2
UCS
  5
7
100
AcDbSymbolTable
 70
0
  0
ENDTAB
  0
TABLE
  2
APPID
  5
9
100
AcDbSymbolTable
 70
1
  0
APPID
  5
12
100
AcDbSymbolTableRecord
100
AcDbRegAppTableRecord
  2
ACAD
 70
0
  0
ENDTAB
  0
TABLE
  2
DIMSTYLE
  5
A
100
AcDbSymbolTable
 70
1
100
AcDbDimStyleTable
 71
0
  0
DIMSTYLE
105
27
100
AcDbSymbolTableRecord
100
AcDbDimStyleTableRecord
  2
Standard
 41
2.5
 42
0.625
 43
3.75
 44
1.25
 70
0
 73
0
 74
0
 77
1
 78
8
140
2.5
141
2.5
143
0.03937007874016
147
0.625
171
3
172
1
271
2
272
2
274
3
278
44
283
0
284
8
340
11
  0
ENDTAB
  0
TABLE
  2
BLOCK_RECORD
  5
1
100
AcDbSymbolTable
 70
1
  0
BLOCK_RECORD
  5
1F
100
AcDbSymbolTableRecord
100
AcDbBlockTableRecord
  2
*Model_Space
340
22
  0
BLOCK_RECORD
  5
1B
100
AcDbSymbolTableRecord
100
AcDbBlockTableRecord
  2
*Paper_Space
340
1E
  0
BLOCK_RECORD
  5
23
100
AcDbSymbolTableRecord
100
AcDbBlockTableRecord
  2
*Paper_Space0
340
26
  0
BLOCK_RECORD
  5
47
100
AcDbSymbolTableRecord
100
AcDbBlockTableRecord
  2
horiz 150
340
0
  0
BLOCK_RECORD
  5
48
100
AcDbSymbolTableRecord
100
AcDbBlockTableRecord
  2
vert 200
340
0
  0
BLOCK_RECORD
  5
49
100
AcDbSymbolTableRecord
100
AcDbBlockTableRecord
  2
diag a
340
0
  0
BLOCK_RECORD
  5
4A
100
AcDbSymbolTableRecord
100
AcDbBlockTableRecord
  2
vert end
340
0
  0
BLOCK_RECORD
  5
4B
100
AcDbSymbolTableRecord
100
AcDbBlockTableRecord
  2
corner
340
0
  0
BLOCK_RECORD
  5
4C
100
AcDbSymbolTableRecord
100
AcDbBlockTableRecord
  2
lr joint
340
0
  0
BLOCK_RECORD
  5
4D
100
AcDbSymbolTableRecord
100
AcDbBlockTableRecord
  2
joint tb
340
0
  0
BLOCK_RECORD
  5
4E
100
AcDbSymbolTableRecord
100
AcDbBlockTableRecord
  2
center
340
0
  0
ENDTAB
  0
ENDSEC
  0
SECTION
  2
BLOCKS
  0
BLOCK
  5
20
100
AcDbEntity
  8
0
100
AcDbBlockBegin
  2
*Model_Space
 70
0
 10
0.0
 20
0.0
 30
0.0
  3
*Model_Space
  1

  0
ENDBLK
  5
21
100
AcDbEntity
  8
0
100
AcDbBlockEnd
  0
BLOCK
  5
1C
100
AcDbEntity
 67
1
  8
0
100
AcDbBlockBegin
  2
*Paper_Space
 70
0
 10
0.0
 20
0.0
 30
0.0
  3
*Paper_Space
  1

  0
ENDBLK
  5
1D
100
AcDbEntity
 67
1
  8
0
100
AcDbBlockEnd
  0
BLOCK
  5
24
100
AcDbEntity
  8
0
100
AcDbBlockBegin
  2
*Paper_Space0
 70
0
 10
0.0
 20
0.0
 30
0.0
  3
*Paper_Space0
  1

  0
ENDBLK
  5
25
100
AcDbEntity
  8
0
100
AcDbBlockEnd
  0
BLOCK
  5
4F
100
AcDbEntity
  8
0
100
AcDbBlockBegin
  2
horiz 150
 70
0
 10
0.0
 20
0.0
 30
0.0
  3
horiz 150
  1

  0
LINE
  5
50
100
AcDbEntity
100
AcDbLine
  8
strips
 62
256
370
-1
  6
ByLayer
 10
14.9999999999999929
 20
5.9999999999999432
 30
0.0
 11
14.9999999999999929
 21
9.9999999999999432
 31
0.0
  0
LINE
  5
51
100
AcDbEntity
100
AcDbLine
  8
strips
 62
256
370
-1
  6
ByLayer
 10
20.9999999999999929
 20
5.9999999999999574
 30
0.0
 11
20.9999999999999929
 21
9.9999999999999289
 31
0.0
  0
LINE
  5
52
100
AcDbEntity
100
AcDbLine
  8
strips
 62
256
370
-1
  6
ByLayer
 10
14.9999999999999929
 20
-10.0000000000000142
 30
0.0
 11
14.9999999999999929
 21
-6.0000000000000249
 31
0.0
  0
LINE
  5
53
100
AcDbEntity
100
AcDbLine
  8
strips
 62
256
370
-1
  6
ByLayer
 10
20.9999999999999929
 20
-10.0000000000000142
 30
0.0
 11
20.9999999999999929
 21
-6.0000000000000426
 31
0.0
  0
LINE
  5
54
100
AcDbEntity
100
AcDbLine
  8
strips
 62
256
370
-1
  6
ByLayer
 10
14.9999999999999929
 20
-10.0000000000000142
 30
0.0
 11
20.9999999999999929
 21
-10.0000000000000142
 31
0.0
  0
LINE
  5
55
100
AcDbEntity
100
AcDbLine
  8
strips
 62
256
370
-1
  6
ByLayer
 10
20.9999999999999929
 20
-6.0000000000000426
 30
0.0
 11
14.9999999999999929
 21
-6.0000000000000249
 31
0.0
  0
LINE
  5
56
100
AcDbEntity
100
AcDbLine
  8
strips
 62
256
370
-1
  6
ByLayer
 10
14.9999999999999929
 20
5.9999999999999432
 30
0.0
 11
20.9999999999999929
 21
5.9999999999999574
 31
0.0
  0
LINE
  5
57
100
AcDbEntity
100
AcDbLine
  8
strips
 62
256
370
-1
  6
ByLayer
 10
14.9999999999999929
 20
9.9999999999999432
 30
0.0
 11
20.9999999999999929
 21
9.9999999999999289
 31
0.0
  0
LINE
  5
58
100
AcDbEntity
100
AcDbLine
  8
strips
 62
256
370
-1
  6
ByLayer
 10
14.9999999999999929
 20
-15.0000000000000284
 30
0.0
 11
20.9999999999999929
 21
-15.0000000000000142
 31
0.0
  0
LINE
  5
59
100
AcDbEntity
100
AcDbLine
  8
strips
 62
256
370
-1
  6
ByLayer
 10
15.0000000000000071
 20
14.9999999999999716
 30
0.0
 11
20.9999999999999929
 21
15.0
 31
0.0
  0
CIRCLE
  5
5A
100
AcDbEntity
100
AcDbCircle
  8
strips
 62
256
370
-1
  6
ByLayer
 10
-5.0000000000000071
 20
0.0000000000000178
 30
0.0
 40
2.0
  0
LINE
  5
5B
100
AcDbEntity
100
AcDbLine
  8
strips
 62
256
370
-1
  6
ByLayer
 10
-10.0
 20
-4.9999999999999991
 30
0.0
 11
-10.0
 21
5.0000000000000009
 31
0.0
  0
LINE
  5
5C
100
AcDbEntity
100
AcDbLine
  8
strips
 62
256
370
-1
  6
ByLayer
 10
15.0000000000000071
 20
14.9999999999999716
 30
0.0
 11
-10.0
 21
5.0000000000000009
 31
0.0
  0
LINE
  5
5D
100
AcDbEntity
100
AcDbLine
  8
strips
 62
256
370
-1
  6
ByLayer
 10
-10.0
 20
-4.9999999999999991
 30
0.0
 11
14.9999999999999929
 21
-15.0000000000000284
 31
0.0
  0
LINE
  5
5E
100
AcDbEntity
100
AcDbLine
  8
strips
 62
256
370
-1
  6
ByLayer
 10
135.0
 20
5.9999999999999076
 30
0.0
 11
135.0
 21
9.9999999999999325
 31
0.0
  0
LINE
  5
5F
100
AcDbEntity
100
AcDbLine
  8
strips
 62
256
370
-1
  6
ByLayer
 10
129.0
 20
5.999999999999952
 30
0.0
 11
129.0
 21
9.9999999999998916
 31
0.0
  0
LINE
  5
60
100
AcDbEntity
100
AcDbLine
  8
strips
 62
256
370
-1
  6
ByLayer
 10
135.0
 20
-10.0000000000000142
 30
0.0
 11
135.0
 21
-6.0000000000000071
 31
0.0
  0
LINE
  5
61
100
AcDbEntity
100
AcDbLine
  8
strips
 62
256
370
-1
  6
ByLayer
 10
129.0
 20
-10.0000000000000249
 30
0.0
 11
129.0000000000000284
 21
-6.0000000000000142
 31
0.0
  0
LINE
  5
62
100
AcDbEntity
100
AcDbLine
  8
strips
 62
256
370
-1
  6
ByLayer
 10
135.0
 20
-10.0000000000000142
 30
0.0
 11
129.0
 21
-10.0000000000000249
 31
0.0
  0
LINE
  5
63
100
AcDbEntity
100
AcDbLine
  8
strips
 62
256
370
-1
  6
ByLayer
 10
129.0000000000000284
 20
-6.0000000000000142
 30
0.0
 11
135.0
 21
-6.0000000000000071
 31
0.0
  0
LINE
  5
64
100
AcDbEntity
100
AcDbLine
  8
strips
 62
256
370
-1
  6
ByLayer
 10
135.0
 20
5.9999999999999076
 30
0.0
 11
129.0
 21
5.999999999999952
 31
0.0
  0
LINE
  5
65
100
AcDbEntity
100
AcDbLine
  8
strips
 62
256
370
-1
  6
ByLayer
 10
135.0
 20
9.9999999999999325
 30
0.0
 11
129.0
 21
9.9999999999998916
 31
0.0
  0
LINE
  5
66
100
AcDbEntity
100
AcDbLine
  8
strips
 62
256
370
-1
  6
ByLayer
 10
135.0
 20
-15.0000000000000355
 30
0.0
 11
129.0
 21
-15.0000000000000533
 31
0.0
  0
LINE
  5
67
100
AcDbEntity
100
AcDbLine
  8
strips
 62
256
370
-1
  6
ByLayer
 10
135.0
 20
14.9999999999999325
 30
0.0
 11
129.0
 21
14.9999999999999503
 31
0.0
  0
CIRCLE
  5
68
100
AcDbEntity
100
AcDbCircle
  8
strips
 62
256
370
-1
  6
ByLayer
 10
155.0
 20
-0.0000000000000391
 30
0.0
 40
2.0
  0
LINE
  5
69
100
AcDbEntity
100
AcDbLine
  8
strips
 62
256
370
-1
  6
ByLayer
 10
160.0
 20
-4.9999999999999947
 30
0.0
 11
160.0
 21
4.9999999999999725
 31
0.0
  0
LINE
  5
6A
100
AcDbEntity
100
AcDbLine
  8
strips
 62
256
370
-1
  6
ByLayer
 10
135.0
 20
14.9999999999999325
 30
0.0
 11
160.0
 21
4.9999999999999725
 31
0.0
  0
LINE
  5
6B
100
AcDbEntity
100
AcDbLine
  8
strips
 62
256
370
-1
  6
ByLayer
 10
160.0
 20
-4.9999999999999947
 30
0.0
 11
135.0
 21
-15.0000000000000355
 31
0.0
  0
LINE
  5
6C
100
AcDbEntity
100
AcDbLine
  8
strips
 62
256
370
-1
  6
ByLayer
 10
20.9999999999999929
 20
15.0
 30
0.0
 11
129.0
 21
14.9999999999999503
 31
0.0
  0
LINE
  5
6D
100
AcDbEntity
100
AcDbLine
  8
strips
 62
256
370
-1
  6
ByLayer
 10
129.0
 20
-15.0000000000000533
 30
0.0
 11
20.9999999999999929
 21
-15.0000000000000142
 31
0.0
  0
ENDBLK
  5
6E
100
AcDbEntity
  8
0
100
AcDbBlockEnd
  0
BLOCK
  5
6F
100
AcDbEntity
  8
0
100
AcDbBlockBegin
  2
vert 200
 70
0
 10
0.0
 20
0.0
 30
0.0
  3
vert 200
  1

  0
LINE
  5
70
100
AcDbEntity
100
AcDbLine
  8
strips
 62
256
370
-1
  6
ByLayer
 10
5.9999999999999147
 20
185.0
 30
0.0
 11
9.9999999999999147
 21
185.0
 31
0.0
  0
LINE
  5
71
100
AcDbEntity
100
AcDbLine
  8
strips
 62
256
370
-1
  6
ByLayer
 10
5.9999999999999147
 20
179.0
 30
0.0
 11
9.9999999999999147
 21
179.0
 31
0.0
  0
LINE
  5
72
100
AcDbEntity
100
AcDbLine
  8
strips
 62
256
370
-1
  6
ByLayer
 10
-10.0000000000000284
 20
185.0
 30
0.0
 11
-6.0000000000000568
 21
185.0
 31
0.0
  0
LINE
  5
73
100
AcDbEntity
100
AcDbLine
  8
strips
 62
256
370
-1
  6
ByLayer
 10
-10.0000000000000284
 20
179.0
 30
0.0
 11
-6.0000000000000888
 21
179.0
 31
0.0
  0
LINE
  5
74
100
AcDbEntity
100
AcDbLine
  8
strips
 62
256
370
-1
  6
ByLayer
 10
-10.0000000000000284
 20
185.0
 30
0.0
 11
-10.0000000000000284
 21
179.0
 31
0.0
  0
LINE
  5
75
100
AcDbEntity
100
AcDbLine
  8
strips
 62
256
370
-1
  6
ByLayer
 10
-6.0000000000000888
 20
179.0
 30
0.0
 11
-6.0000000000000568
 21
185.0
 31
0.0
  0
LINE
  5
76
100
AcDbEntity
100
AcDbLine
  8
strips
 62
256
370
-1
  6
ByLayer
 10
5.9999999999999147
 20
185.0
 30
0.0
 11
5.9999999999999147
 21
179.0
 31
0.0
  0
LINE
  5
77
100
AcDbEntity
100
AcDbLine
  8
strips
 62
256
370
-1
  6
ByLayer
 10
9.9999999999999147
 20
185.0
 30
0.0
 11
9.9999999999999147
 21
179.0
 31
0.0
  0
CIRCLE
  5
78
100
AcDbEntity
100
AcDbCircle
  8
strips
 62
256
370
-1
  6
ByLayer
 10
0.0
 20
205.0
 30
0.0
 40
2.0
  0
LINE
  5
79
100
AcDbEntity
100
AcDbLine
  8
strips
 62
256
370
-1
  6
ByLayer
 10
-5.0000000000000284
 20
210.0
 30
0.0
 11
4.9999999999999716
 21
210.0
 31
0.0
  0
LINE
  5
7A
100
AcDbEntity
100
AcDbLine
  8
strips
 62
256
370
-1
  6
ByLayer
 10
5.9999999999999218
 20
15.0
 30
0.0
 11
9.9999999999999147
 21
15.0
 31
0.0
  0
LINE
  5
7B
100
AcDbEntity
100
AcDbLine
  8
strips
 62
256
370
-1
  6
ByLayer
 10
5.9999999999999165
 20
21.0
 30
0.0
 11
9.9999999999999218
 21
21.0
 31
0.0
  0
LINE
  5
7C
100
AcDbEntity
100
AcDbLine
  8
strips
 62
256
370
-1
  6
ByLayer
 10
-10.000000000000032
 20
15.0
 30
0.0
 11
-6.0000000000000506
 21
15.0
 31
0.0
  0
LINE
  5
7D
100
AcDbEntity
100
AcDbLine
  8
strips
 62
256
370
-1
  6
ByLayer
 10
-10.0000000000000302
 20
21.0
 30
0.0
 11
-6.0000000000000941
 21
21.0
 31
0.0
  0
LINE
  5
7E
100
AcDbEntity
100
AcDbLine
  8
strips
 62
256
370
-1
  6
ByLayer
 10
-10.000000000000032
 20
15.0
 30
0.0
 11
-10.0000000000000302
 21
21.0
 31
0.0
  0
LINE
  5
7F
100
AcDbEntity
100
AcDbLine
  8
strips
 62
256
370
-1
  6
ByLayer
 10
-6.0000000000000941
 20
21.0
 30
0.0
 11
-6.0000000000000506
 21
15.0
 31
0.0
  0
LINE
  5
80
100
AcDbEntity
100
AcDbLine
  8
strips
 62
256
370
-1
  6
ByLayer
 10
5.9999999999999218
 20
15.0
 30
0.0
 11
5.9999999999999165
 21
21.0
 31
0.0
  0
LINE
  5
81
100
AcDbEntity
100
AcDbLine
  8
strips
 62
256
370
-1
  6
ByLayer
 10
9.9999999999999147
 20
15.0
 30
0.0
 11
9.9999999999999218
 21
21.0
 31
0.0
  0
CIRCLE
  5
82
100
AcDbEntity
100
AcDbCircle
  8
strips
 62
256
370
-1
  6
ByLayer
 10
0.0000000000000036
 20
-5.0000000000000142
 30
0.0
 40
2.0
  0
LINE
  5
83
100
AcDbEntity
100
AcDbLine
  8
strips
 62
256
370
-1
  6
ByLayer
 10
-5.0000000000000213
 20
-10.0
 30
0.0
 11
4.9999999999999769
 21
-10.0000000000000142
 31
0.0
  0
LINE
  5
84
100
AcDbEntity
100
AcDbLine
  8
strips
 62
256
370
-1
  6
ByLayer
 10
-12.5000000000000284
 20
185.0
 30
0.0
 11
-12.5000000000000284
 21
179.0
 31
0.0
  0
LINE
  5
85
100
AcDbEntity
100
AcDbLine
  8
strips
 62
256
370
-1
  6
ByLayer
 10
-12.5000000000000284
 20
185.0
 30
0.0
 11
-5.0000000000000284
 21
210.0
 31
0.0
  0
LINE
  5
86
100
AcDbEntity
100
AcDbLine
  8
strips
 62
256
370
-1
  6
ByLayer
 10
12.4999999999999147
 20
185.0
 30
0.0
 11
12.4999999999999147
 21
179.0
 31
0.0
  0
LINE
  5
87
100
AcDbEntity
100
AcDbLine
  8
strips
 62
256
370
-1
  6
ByLayer
 10
-12.500000000000032
 20
15.0
 30
0.0
 11
-12.5000000000000302
 21
21.0
 31
0.0
  0
LINE
  5
88
100
AcDbEntity
100
AcDbLine
  8
strips
 62
256
370
-1
  6
ByLayer
 10
12.4999999999999147
 20
14.9999999999999964
 30
0.0
 11
12.4999999999999218
 21
20.9999999999999964
 31
0.0
  0
LINE
  5
89
100
AcDbEntity
100
AcDbLine
  8
strips
 62
256
370
-1
  6
ByLayer
 10
12.4999999999999147
 20
185.0
 30
0.0
 11
4.9999999999999716
 21
210.0
 31
0.0
  0
LINE
  5
8A
100
AcDbEntity
100
AcDbLine
  8
strips
 62
256
370
-1
  6
ByLayer
 10
12.4999999999999147
 20
14.9999999999999964
 30
0.0
 11
4.9999999999999769
 21
-10.0000000000000142
 31
0.0
  0
LINE
  5
8B
100
AcDbEntity
100
AcDbLine
  8
strips
 62
256
370
-1
  6
ByLayer
 10
-5.0000000000000213
 20
-10.0
 30
0.0
 11
-12.500000000000032
 21
15.0
 31
0.0
  0
LINE
  5
8C
100
AcDbEntity
100
AcDbLine
  8
strips
 62
256
370
-1
  6
ByLayer
 10
12.4999999999999147
 20
179.0
 30
0.0
 11
12.4999999999999218
 21
20.9999999999999964
 31
0.0
  0
LINE
  5
8D
100
AcDbEntity
100
AcDbLine
  8
strips
 62
256
370
-1
  6
ByLayer
 10
-12.5000000000000302
 20
21.0
 30
0.0
 11
-12.5000000000000284
 21
179.0
 31
0.0
  0
ENDBLK
  5
8E
100
AcDbEntity
  8
0
100
AcDbBlockEnd
  0
BLOCK
  5
8F
100
AcDbEntity
  8
0
100
AcDbBlockBegin
  2
diag a
 70
0
 10
0.0
 20
0.0
 30
0.0
  3
diag a
  1

  0
CIRCLE
  5
90
100
AcDbEntity
100
AcDbCircle
  8
strips
 62
256
370
-1
  6
ByLayer
 10
153.0
 20
204.0
 30
0.0
 40
2.0
  0
LINE
  5
91
100
AcDbEntity
100
AcDbLine
  8
strips
 62
256
370
-1
  6
ByLayer
 10
127.2709063702064896
 20
194.6869513013733126
 30
0.0
 11
132.6872415785749126
 21
201.8746708917988144
 31
0.0
  0
LINE
  5
92
100
AcDbEntity
100
AcDbLine
  8
strips
 62
256
370
-1
  6
ByLayer
 10
146.4495121738077614
 20
185.2433778553694879
 30
0.0
 11
149.6440542139969239
 21
182.8361177627612619
 31
0.0
  0
LINE
  5
93
100
AcDbEntity
100
AcDbLine
  8
strips
 62
256
370
-1
  6
ByLayer
 10
142.8386220348954794
 20
180.4515647950856874
 30
0.0
 11
146.0331640750846418
 21
178.0443047024775183
 31
0.0
  0
LINE
  5
94
100
AcDbEntity
100
AcDbLine
  8
strips
 62
256
370
-1
  6
ByLayer
 10
133.6713440130511117
 20
194.8724182258022211
 30
0.0
 11
136.8658860532402741
 21
192.465158133194052
 31
0.0
  0
LINE
  5
95
100
AcDbEntity
100
AcDbLine
  8
strips
 62
256
370
-1
  6
ByLayer
 10
130.0604538741388296
 20
190.0806051655184774
 30
0.0
 11
133.2549959143279921
 21
187.6733450729103083
 31
0.0
  0
LINE
  5
96
100
AcDbEntity
100
AcDbLine
  8
strips
 62
256
370
-1
  6
ByLayer
 10
133.6713440130511117
 20
194.8724182258022211
 30
0.0
 11
130.0604538741388296
 21
190.0806051655184774
 31
0.0
  0
LINE
  5
97
100
AcDbEntity
100
AcDbLine
  8
strips
 62
256
370
-1
  6
ByLayer
 10
133.2549959143279921
 20
187.6733450729103083
 30
0.0
 11
136.8658860532402741
 21
192.465158133194052
 31
0.0
  0
LINE
  5
98
100
AcDbEntity
100
AcDbLine
  8
strips
 62
256
370
-1
  6
ByLayer
 10
146.4495121738077614
 20
185.2433778553694879
 30
0.0
 11
142.8386220348954794
 21
180.4515647950856874
 31
0.0
  0
LINE
  5
99
100
AcDbEntity
100
AcDbLine
  8
strips
 62
256
370
-1
  6
ByLayer
 10
146.0331640750846418
 20
178.0443047024775183
 30
0.0
 11
149.6440542139969239
 21
182.8361177627612619
 31
0.0
  0
LINE
  5
9A
100
AcDbEntity
100
AcDbLine
  8
strips
 62
256
370
-1
  6
ByLayer
 10
154.2396316866590951
 20
209.0039915060020803
 30
0.0
 11
156.9679077931717757
 21
206.5724924720274771
 31
0.0
  0
LINE
  5
9B
100
AcDbEntity
100
AcDbLine
  8
strips
 62
256
370
-1
  6
ByLayer
 10
132.6872415785749126
 20
201.8746708917988144
 30
0.0
 11
154.2396316866590951
 21
209.0039915060020803
 31
0.0
  0
LINE
  5
9C
100
AcDbEntity
100
AcDbLine
  8
strips
 62
256
370
-1
  6
ByLayer
 10
156.9679077931717757
 20
206.5724924720274771
 30
0.0
 11
149.3857826257401484
 21
176.7174029764852321
 31
0.0
  0
LINE
  5
9D
100
AcDbEntity
100
AcDbLine
  8
strips
 62
256
370
-1
  6
ByLayer
 10
6.6109417003310647
 20
18.8372273101490428
 30
0.0
 11
3.4163996601419022
 21
21.2444874027572119
 31
0.0
  0
LINE
  5
9E
100
AcDbEntity
100
AcDbLine
  8
strips
 62
256
370
-1
  6
ByLayer
 10
10.2218318392433467
 20
23.6290403704327865
 30
0.0
 11
7.0272897990541843
 21
26.0363004630409556
 31
0.0
  0
LINE
  5
9F
100
AcDbEntity
100
AcDbLine
  8
strips
 62
256
370
-1
  6
ByLayer
 10
22.9999999999999964
 20
13.9999999999999964
 30
0.0
 11
19.805457959810834
 21
16.4072600926081655
 31
0.0
  0
LINE
  5
A0
100
AcDbEntity
100
AcDbLine
  8
strips
 62
256
370
-1
  6
ByLayer
 10
19.3891098610877144
 20
9.2081869397162528
 30
0.0
 11
16.194567820898552
 21
11.6154470323244219
 31
0.0
  0
LINE
  5
A1
100
AcDbEntity
100
AcDbLine
  8
strips
 62
256
370
-1
  6
ByLayer
 10
22.9999999999999964
 20
13.9999999999999964
 30
0.0
 11
19.3891098610877144
 21
9.2081869397162528
 31
0.0
  0
LINE
  5
A2
100
AcDbEntity
100
AcDbLine
  8
strips
 62
256
370
-1
  6
ByLayer
 10
16.194567820898552
 20
11.6154470323244219
 30
0.0
 11
19.805457959810834
 21
16.4072600926081655
 31
0.0
  0
LINE
  5
A3
100
AcDbEntity
100
AcDbLine
  8
strips
 62
256
370
-1
  6
ByLayer
 10
10.2218318392433467
 20
23.6290403704327865
 30
0.0
 11
6.6109417003310647
 21
18.8372273101490428
 31
0.0
  0
LINE
  5
A4
100
AcDbEntity
100
AcDbLine
  8
strips
 62
256
370
-1
  6
ByLayer
 10
3.4163996601419022
 20
21.2444874027572119
 30
0.0
 11
7.0272897990541843
 21
26.0363004630409556
 31
0.0
  0
LINE
  5
A5
100
AcDbEntity
100
AcDbLine
  8
strips
 62
256
370
-1
  6
ByLayer
 10
26.9931775502364566
 20
10.9909248842397513
 30
0.0
 11
23.3822874113241745
 21
6.1991118239560077
 31
0.0
  0
LINE
  5
A6
100
AcDbEntity
100
AcDbLine
  8
strips
 62
256
370
-1
  6
ByLayer
 10
0.9999999999999991
 20
-6.9999999999999991
 30
0.0
 11
23.3822874113241745
 21
6.1991118239560077
 31
0.0
  0
LINE
  5
A7
100
AcDbEntity
100
AcDbLine
  8
strips
 62
256
370
-1
  6
ByLayer
 10
-6.2000000000000011
 20
-1.5999999999999992
 30
0.0
 11
0.9999999999999991
 21
-6.9999999999999991
 31
0.0
  0
LINE
  5
A8
100
AcDbEntity
100
AcDbLine
  8
strips
 62
256
370
-1
  6
ByLayer
 10
0.8236726431047803
 20
24.4503830054127
 30
0.0
 11
3.8327477588650138
 21
28.4435605556491495
 31
0.0
  0
LINE
  5
A9
100
AcDbEntity
100
AcDbLine
  8
strips
 62
256
370
-1
  6
ByLayer
 10
0.8236726431047803
 20
24.4503830054127
 30
0.0
 11
-6.2000000000000011
 21
-1.5999999999999992
 31
0.0
  0
LINE
  5
AA
100
AcDbEntity
100
AcDbLine
  8
strips
 62
256
370
-1
  6
ByLayer
 10
127.2709063702064896
 20
194.6869513013733126
 30
0.0
 11
3.8327477588650138
 21
28.4435605556491495
 31
0.0
  0
LINE
  5
AB
100
AcDbEntity
100
AcDbLine
  8
strips
 62
256
370
-1
  6
ByLayer
 10
26.9931775502364566
 20
10.9909248842397513
 30
0.0
 11
149.3857826257401484
 21
176.7174029764852321
 31
0.0
  0
ENDBLK
  5
AC
100
AcDbEntity
  8
0
100
AcDbBlockEnd
  0
BLOCK
  5
AD
100
AcDbEntity
  8
0
100
AcDbBlockBegin
  2
vert end
 70
0
 10
0.0
 20
0.0
 30
0.0
  3
vert end
  1

  0
CIRCLE
  5
AE
100
AcDbEntity
100
AcDbCircle
  8
strips
 62
256
370
-1
  6
ByLayer
 10
10.0
 20
41.0
 30
0.0
 40
2.0
  0
LINE
  5
AF
100
AcDbEntity
100
AcDbLine
  8
corner bits
 62
256
370
-1
  6
ByLayer
 10
4.9999999999997726
 20
46.0
 30
0.0
 11
15.0
 21
46.0000000000000284
 31
0.0
  0
LINE
  5
B0
100
AcDbEntity
100
AcDbLine
  8
corner bits
 62
256
370
-1
  6
ByLayer
 10
-5.0000000000001137
 20
36.0
 30
0.0
 11
-5.0000000000001137
 21
30.0
 31
0.0
  0
LINE
  5
B1
100
AcDbEntity
100
AcDbLine
  8
corner bits
 62
256
370
-1
  6
ByLayer
 10
24.9999999999998863
 20
36.0
 30
0.0
 11
24.9999999999998863
 21
30.0
 31
0.0
  0
LINE
  5
B2
100
AcDbEntity
100
AcDbLine
  8
corner bits
 62
256
370
-1
  6
ByLayer
 10
4.9999999999997726
 20
46.0
 30
0.0
 11
-5.0000000000001137
 21
36.0
 31
0.0
  0
LINE
  5
B3
100
AcDbEntity
100
AcDbLine
  8
corner bits
 62
256
370
-1
  6
ByLayer
 10
-5.0000000000001137
 20
30.0
 30
0.0
 11
0.0
 21
0.0
 31
0.0
  0
LINE
  5
B4
100
AcDbEntity
100
AcDbLine
  8
corner bits
 62
256
370
-1
  6
ByLayer
 10
19.9999999999998863
 20
0.0
 30
0.0
 11
24.9999999999998863
 21
30.0
 31
0.0
  0
LINE
  5
B5
100
AcDbEntity
100
AcDbLine
  8
corner bits
 62
256
370
-1
  6
ByLayer
 10
24.9999999999998863
 20
36.0
 30
0.0
 11
15.0
 21
46.0000000000000284
 31
0.0
  0
LINE
  5
B6
100
AcDbEntity
100
AcDbLine
  8
strips
 62
256
370
-1
  6
ByLayer
 10
15.9999999999998774
 20
26.0
 30
0.0
 11
19.9999999999998153
 21
26.0
 31
0.0
  0
LINE
  5
B7
100
AcDbEntity
100
AcDbLine
  8
strips
 62
256
370
-1
  6
ByLayer
 10
15.9999999999998419
 20
20.0
 30
0.0
 11
19.9999999999998543
 21
20.0000000000000284
 31
0.0
  0
LINE
  5
B8
100
AcDbEntity
100
AcDbLine
  8
strips
 62
256
370
-1
  6
ByLayer
 10
-0.0000000000001759
 20
26.0
 30
0.0
 11
3.9999999999998241
 21
26.0
 31
0.0
  0
LINE
  5
B9
100
AcDbEntity
100
AcDbLine
  8
strips
 62
256
370
-1
  6
ByLayer
 10
-0.0000000000001652
 20
20.0
 30
0.0
 11
3.9999999999998685
 21
20.0
 31
0.0
  0
LINE
  5
BA
100
AcDbEntity
100
AcDbLine
  8
strips
 62
256
370
-1
  6
ByLayer
 10
-0.0000000000001759
 20
26.0
 30
0.0
 11
-0.0000000000001652
 21
20.0
 31
0.0
  0
LINE
  5
BB
100
AcDbEntity
100
AcDbLine
  8
strips
 62
256
370
-1
  6
ByLayer
 10
3.9999999999998685
 20
20.0
 30
0.0
 11
3.9999999999998241
 21
26.0
 31
0.0
  0
LINE
  5
BC
100
AcDbEntity
100
AcDbLine
  8
strips
 62
256
370
-1
  6
ByLayer
 10
15.9999999999998774
 20
26.0
 30
0.0
 11
15.9999999999998419
 21
20.0
 31
0.0
  0
LINE
  5
BD
100
AcDbEntity
100
AcDbLine
  8
strips
 62
256
370
-1
  6
ByLayer
 10
19.9999999999998153
 20
26.0
 30
0.0
 11
19.9999999999998543
 21
20.0000000000000284
 31
0.0
  0
ENDBLK
  5
BE
100
AcDbEntity
  8
0
100
AcDbBlockEnd
  0
BLOCK
  5
BF
100
AcDbEntity
  8
0
100
AcDbBlockBegin
  2
corner
 70
0
 10
0.0
 20
0.0
 30
0.0
  3
corner
  1

  0
LINE
  5
C0
100
AcDbEntity
100
AcDbLine
  8
corners
 62
256
370
-1
  6
ByLayer
 10
25.0
 20
70.0
 30
0.0
 11
45.0
 21
70.0
 31
0.0
  0
CIRCLE
  5
C1
100
AcDbEntity
100
AcDbCircle
  8
corners
 62
256
370
-1
  6
ByLayer
 10
45.0
 20
60.0
 30
0.0
 40
5.0
  0
CIRCLE
  5
C2
100
AcDbEntity
100
AcDbCircle
  8
corners
 62
256
370
-1
  6
ByLayer
 10
28.0000000000000284
 20
38.9999999999999716
 30
0.0
 40
2.0
  0
CIRCLE
  5
C3
100
AcDbEntity
100
AcDbCircle
  8
corners
 62
256
370
-1
  6
ByLayer
 10
40.0000000000000142
 20
40.0
 30
0.0
 40
2.0
  0
CIRCLE
  5
C4
100
AcDbEntity
100
AcDbCircle
  8
corners
 62
256
370
-1
  6
ByLayer
 10
30.0000000000000071
 20
55.0000000000000142
 30
0.0
 40
2.0
  0
LINE
  5
C5
100
AcDbEntity
100
AcDbLine
  8
corners
 62
256
370
-1
  6
ByLayer
 10
10.0000000000000124
 20
60.9999999999999574
 30
0.0
 11
10.0000000000000195
 21
64.9999999999999574
 31
0.0
  0
LINE
  5
C6
100
AcDbEntity
100
AcDbLine
  8
corners
 62
256
370
-1
  6
ByLayer
 10
4.0000000000000107
 20
60.9999999999999645
 30
0.0
 11
4.0000000000000107
 21
64.9999999999999289
 31
0.0
  0
LINE
  5
C7
100
AcDbEntity
100
AcDbLine
  8
corners
 62
256
370
-1
  6
ByLayer
 10
10.0000000000000107
 20
45.0
 30
0.0
 11
10.0000000000000142
 21
48.9999999999999858
 31
0.0
  0
LINE
  5
C8
100
AcDbEntity
100
AcDbLine
  8
corners
 62
256
370
-1
  6
ByLayer
 10
4.0000000000000107
 20
45.0
 30
0.0
 11
4.0000000000000142
 21
48.9999999999999787
 31
0.0
  0
LINE
  5
C9
100
AcDbEntity
100
AcDbLine
  8
corners
 62
256
370
-1
  6
ByLayer
 10
10.0000000000000107
 20
45.0
 30
0.0
 11
4.0000000000000107
 21
45.0
 31
0.0
  0
LINE
  5
CA
100
AcDbEntity
100
AcDbLine
  8
corners
 62
256
370
-1
  6
ByLayer
 10
4.0000000000000142
 20
48.9999999999999787
 30
0.0
 11
10.0000000000000142
 21
48.9999999999999858
 31
0.0
  0
LINE
  5
CB
100
AcDbEntity
100
AcDbLine
  8
corners
 62
256
370
-1
  6
ByLayer
 10
10.0000000000000124
 20
60.9999999999999574
 30
0.0
 11
4.0000000000000107
 21
60.9999999999999645
 31
0.0
  0
LINE
  5
CC
100
AcDbEntity
100
AcDbLine
  8
corners
 62
256
370
-1
  6
ByLayer
 10
10.0000000000000195
 20
64.9999999999999574
 30
0.0
 11
4.0000000000000107
 21
64.9999999999999289
 31
0.0
  0
LINE
  5
CD
100
AcDbEntity
100
AcDbLine
  8
corners
 62
256
370
-1
  6
ByLayer
 10
21.4495121738077614
 20
20.2433778553694879
 30
0.0
 11
24.6440542139969239
 21
17.8361177627612619
 31
0.0
  0
LINE
  5
CE
100
AcDbEntity
100
AcDbLine
  8
corners
 62
256
370
-1
  6
ByLayer
 10
17.8386220348954794
 20
15.4515647950857158
 30
0.0
 11
21.0331640750846418
 21
13.0443047024775183
 31
0.0
  0
LINE
  5
CF
100
AcDbEntity
100
AcDbLine
  8
corners
 62
256
370
-1
  6
ByLayer
 10
8.6713440130511117
 20
29.8724182258022211
 30
0.0
 11
11.8658860532402741
 21
27.465158133194052
 31
0.0
  0
LINE
  5
D0
100
AcDbEntity
100
AcDbLine
  8
corners
 62
256
370
-1
  6
ByLayer
 10
5.0604538741388296
 20
25.0806051655184774
 30
0.0
 11
8.2549959143279921
 21
22.6733450729102799
 31
0.0
  0
LINE
  5
D1
100
AcDbEntity
100
AcDbLine
  8
corners
 62
256
370
-1
  6
ByLayer
 10
8.6713440130511117
 20
29.8724182258022211
 30
0.0
 11
5.0604538741388296
 21
25.0806051655184774
 31
0.0
  0
LINE
  5
D2
100
AcDbEntity
100
AcDbLine
  8
corners
 62
256
370
-1
  6
ByLayer
 10
8.2549959143279921
 20
22.6733450729102799
 30
0.0
 11
11.8658860532402741
 21
27.465158133194052
 31
0.0
  0
LINE
  5
D3
100
AcDbEntity
100
AcDbLine
  8
corners
 62
256
370
-1
  6
ByLayer
 10
21.4495121738077614
 20
20.2433778553694879
 30
0.0
 11
17.8386220348954794
 21
15.4515647950857158
 31
0.0
  0
LINE
  5
D4
100
AcDbEntity
100
AcDbLine
  8
corners
 62
256
370
-1
  6
ByLayer
 10
21.0331640750846418
 20
13.0443047024775183
 30
0.0
 11
24.6440542139969239
 21
17.8361177627612619
 31
0.0
  0
LINE
  5
D5
100
AcDbEntity
100
AcDbLine
  8
corners
 62
256
370
-1
  6
ByLayer
 10
45.9999999999999716
 20
20.0
 30
0.0
 11
49.9999999999999858
 21
20.0000000000000284
 31
0.0
  0
LINE
  5
D6
100
AcDbEntity
100
AcDbLine
  8
corners
 62
256
370
-1
  6
ByLayer
 10
46.0
 20
14.0000000000000284
 30
0.0
 11
49.9999999999999716
 21
14.0000000000000284
 31
0.0
  0
LINE
  5
D7
100
AcDbEntity
100
AcDbLine
  8
corners
 62
256
370
-1
  6
ByLayer
 10
30.0
 20
20.0
 30
0.0
 11
34.0000000000000142
 21
20.0
 31
0.0
  0
LINE
  5
D8
100
AcDbEntity
100
AcDbLine
  8
corners
 62
256
370
-1
  6
ByLayer
 10
30.0000000000000142
 20
14.0000000000000284
 30
0.0
 11
33.9999999999999858
 21
14.0000000000000284
 31
0.0
  0
LINE
  5
D9
100
AcDbEntity
100
AcDbLine
  8
corners
 62
256
370
-1
  6
ByLayer
 10
30.0
 20
20.0
 30
0.0
 11
30.0000000000000142
 21
14.0000000000000284
 31
0.0
  0
LINE
  5
DA
100
AcDbEntity
100
AcDbLine
  8
corners
 62
256
370
-1
  6
ByLayer
 10
33.9999999999999858
 20
14.0000000000000284
 30
0.0
 11
34.0000000000000142
 21
20.0
 31
0.0
  0
LINE
  5
DB
100
AcDbEntity
100
AcDbLine
  8
corners
 62
256
370
-1
  6
ByLayer
 10
45.9999999999999716
 20
20.0
 30
0.0
 11
46.0
 21
14.0000000000000284
 31
0.0
  0
LINE
  5
DC
100
AcDbEntity
100
AcDbLine
  8
corners
 62
256
370
-1
  6
ByLayer
 10
49.9999999999999858
 20
20.0000000000000284
 30
0.0
 11
49.9999999999999716
 21
14.0000000000000284
 31
0.0
  0
LINE
  5
DD
100
AcDbEntity
100
AcDbLine
  8
corners
 62
256
370
-1
  6
ByLayer
 10
25.0
 20
70.0
 30
0.0
 11
0.0
 21
70.0
 31
0.0
  0
LINE
  5
DE
100
AcDbEntity
100
AcDbLine
  8
corners
 62
256
370
-1
  6
ByLayer
 10
55.0
 20
70.0
 30
0.0
 11
45.0
 21
70.0
 31
0.0
  0
LINE
  5
DF
100
AcDbEntity
100
AcDbLine
  8
corners
 62
256
370
-1
  6
ByLayer
 10
55.0
 20
70.0
 30
0.0
 11
55.0
 21
9.0
 31
0.0
  0
LINE
  5
E0
100
AcDbEntity
100
AcDbLine
  8
corners
 62
256
370
-1
  6
ByLayer
 10
0.0
 20
70.0
 30
0.0
 11
0.0
 21
9.0
 31
0.0
  0
LINE
  5
E1
100
AcDbEntity
100
AcDbLine
  8
corners
 62
256
370
-1
  6
ByLayer
 10
0.0
 20
9.0
 30
0.0
 11
55.0
 21
9.0
 31
0.0
  0
ENDBLK
  5
E2
100
AcDbEntity
  8
0
100
AcDbBlockEnd
  0
BLOCK
  5
E3
100
AcDbEntity
  8
0
100
AcDbBlockBegin
  2
lr joint
 70
0
 10
0.0
 20
0.0
 30
0.0
  3
lr joint
  1

  0
CIRCLE
  5
E4
100
AcDbEntity
100
AcDbCircle
  8
corners
 62
256
370
-1
  6
ByLayer
 10
40.0
 20
-45.0
 30
0.0
 40
2.0
  0
CIRCLE
  5
E5
100
AcDbEntity
100
AcDbCircle
  8
corners
 62
256
370
-1
  6
ByLayer
 10
40.0000000000000639
 20
-75.0
 30
0.0
 40
2.0
  0
LINE
  5
E6
100
AcDbEntity
100
AcDbLine
  8
corners
 62
256
370
-1
  6
ByLayer
 10
10.0000000000000053
 20
-54.0000000000000568
 30
0.0
 11
10.0000000000000124
 21
-50.0000000000000497
 31
0.0
  0
LINE
  5
E7
100
AcDbEntity
100
AcDbLine
  8
corners
 62
256
370
-1
  6
ByLayer
 10
4.0000000000000036
 20
-54.0000000000000497
 30
0.0
 11
4.0000000000000036
 21
-50.0000000000000782
 31
0.0
  0
LINE
  5
E8
100
AcDbEntity
100
AcDbLine
  8
corners
 62
256
370
-1
  6
ByLayer
 10
10.0000000000000036
 20
-70.0000000000000142
 30
0.0
 11
10.0000000000000071
 21
-66.0000000000000284
 31
0.0
  0
LINE
  5
E9
100
AcDbEntity
100
AcDbLine
  8
corners
 62
256
370
-1
  6
ByLayer
 10
4.0000000000000036
 20
-70.0000000000000142
 30
0.0
 11
4.0000000000000071
 21
-66.0000000000000426
 31
0.0
  0
LINE
  5
EA
100
AcDbEntity
100
AcDbLine
  8
corners
 62
256
370
-1
  6
ByLayer
 10
10.0000000000000036
 20
-70.0000000000000142
 30
0.0
 11
4.0000000000000036
 21
-70.0000000000000142
 31
0.0
  0
LINE
  5
EB
100
AcDbEntity
100
AcDbLine
  8
corners
 62
256
370
-1
  6
ByLayer
 10
4.0000000000000071
 20
-66.0000000000000426
 30
0.0
 11
10.0000000000000071
 21
-66.0000000000000284
 31
0.0
  0
LINE
  5
EC
100
AcDbEntity
100
AcDbLine
  8
corners
 62
256
370
-1
  6
ByLayer
 10
10.0000000000000053
 20
-54.0000000000000568
 30
0.0
 11
4.0000000000000036
 21
-54.0000000000000497
 31
0.0
  0
LINE
  5
ED
100
AcDbEntity
100
AcDbLine
  8
corners
 62
256
370
-1
  6
ByLayer
 10
10.0000000000000124
 20
-50.0000000000000497
 30
0.0
 11
4.0000000000000036
 21
-50.0000000000000782
 31
0.0
  0
CIRCLE
  5
EE
100
AcDbEntity
100
AcDbCircle
  8
corners
 62
256
370
-1
  6
ByLayer
 10
30.0000000000000071
 20
-59.9999999999999858
 30
0.0
 40
2.0
  0
LINE
  5
EF
100
AcDbEntity
100
AcDbLine
  8
corners
 62
256
370
-1
  6
ByLayer
 10
-0.9999999999999964
 20
-50.0000000000000782
 30
0.0
 11
-0.9999999999999964
 21
-70.0000000000000142
 31
0.0
  0
LINE
  5
F0
100
AcDbEntity
100
AcDbLine
  8
corners
 62
256
370
-1
  6
ByLayer
 10
45.9999999999999858
 20
-24.9999999999999858
 30
0.0
 11
49.9999999999999858
 21
-24.9999999999999964
 31
0.0
  0
LINE
  5
F1
100
AcDbEntity
100
AcDbLine
  8
corners
 62
256
370
-1
  6
ByLayer
 10
46.0
 20
-19.0
 30
0.0
 11
49.9999999999999858
 21
-19.0000000000000142
 31
0.0
  0
LINE
  5
F2
100
AcDbEntity
100
AcDbLine
  8
corners
 62
256
370
-1
  6
ByLayer
 10
30.0
 20
-25.0
 30
0.0
 11
33.9999999999999858
 21
-25.0000000000000107
 31
0.0
  0
LINE
  5
F3
100
AcDbEntity
100
AcDbLine
  8
corners
 62
256
370
-1
  6
ByLayer
 10
29.9999999999999893
 20
-19.0000000000000036
 30
0.0
 11
33.9999999999999858
 21
-19.0000000000000142
 31
0.0
  0
LINE
  5
F4
100
AcDbEntity
100
AcDbLine
  8
corners
 62
256
370
-1
  6
ByLayer
 10
30.0
 20
-25.0
 30
0.0
 11
29.9999999999999893
 21
-19.0000000000000036
 31
0.0
  0
LINE
  5
F5
100
AcDbEntity
100
AcDbLine
  8
corners
 62
256
370
-1
  6
ByLayer
 10
33.9999999999999858
 20
-19.0000000000000142
 30
0.0
 11
33.9999999999999858
 21
-25.0000000000000107
 31
0.0
  0
LINE
  5
F6
100
AcDbEntity
100
AcDbLine
  8
corners
 62
256
370
-1
  6
ByLayer
 10
45.9999999999999858
 20
-24.9999999999999858
 30
0.0
 11
46.0
 21
-19.0
 31
0.0
  0
LINE
  5
F7
100
AcDbEntity
100
AcDbLine
  8
corners
 62
256
370
-1
  6
ByLayer
 10
49.9999999999999858
 20
-24.9999999999999964
 30
0.0
 11
49.9999999999999858
 21
-19.0000000000000142
 31
0.0
  0
LINE
  5
F8
100
AcDbEntity
100
AcDbLine
  8
corners
 62
256
370
-1
  6
ByLayer
 10
34.0000000000000355
 20
-95.0000000000000284
 30
0.0
 11
30.0000000000000639
 21
-95.0
 31
0.0
  0
LINE
  5
F9
100
AcDbEntity
100
AcDbLine
  8
corners
 62
256
370
-1
  6
ByLayer
 10
34.0000000000000853
 20
-101.0
 30
0.0
 11
30.0000000000001883
 21
-100.9999999999999716
 31
0.0
  0
LINE
  5
FA
100
AcDbEntity
100
AcDbLine
  8
corners
 62
256
370
-1
  6
ByLayer
 10
50.0000000000000426
 20
-95.0000000000000284
 30
0.0
 11
46.0000000000000782
 21
-95.0000000000000284
 31
0.0
  0
LINE
  5
FB
100
AcDbEntity
100
AcDbLine
  8
corners
 62
256
370
-1
  6
ByLayer
 10
50.0000000000000639
 20
-101.0
 30
0.0
 11
46.0000000000001705
 21
-101.0
 31
0.0
  0
LINE
  5
FC
100
AcDbEntity
100
AcDbLine
  8
corners
 62
256
370
-1
  6
ByLayer
 10
50.0000000000000426
 20
-95.0000000000000284
 30
0.0
 11
50.0000000000000639
 21
-101.0
 31
0.0
  0
LINE
  5
FD
100
AcDbEntity
100
AcDbLine
  8
corners
 62
256
370
-1
  6
ByLayer
 10
46.0000000000001705
 20
-101.0
 30
0.0
 11
46.0000000000000782
 21
-95.0000000000000284
 31
0.0
  0
LINE
  5
FE
100
AcDbEntity
100
AcDbLine
  8
corners
 62
256
370
-1
  6
ByLayer
 10
34.0000000000000355
 20
-95.0000000000000284
 30
0.0
 11
34.0000000000000853
 21
-101.0
 31
0.0
  0
LINE
  5
FF
100
AcDbEntity
100
AcDbLine
  8
corners
 62
256
370
-1
  6
ByLayer
 10
30.0000000000000639
 20
-95.0
 30
0.0
 11
30.0000000000001883
 21
-100.9999999999999716
 31
0.0
  0
LINE
  5
100
100
AcDbEntity
100
AcDbLine
  8
corners
 62
256
370
-1
  6
ByLayer
 10
55.0000000000000639
 20
-100.9999999999999858
 30
0.0
 11
50.0000000000000639
 21
-106.0
 31
0.0
  0
LINE
  5
101
100
AcDbEntity
100
AcDbLine
  8
corners
 62
256
370
-1
  6
ByLayer
 10
50.0000000000000639
 20
-106.0
 30
0.0
 11
30.0000000000001528
 21
-105.9999999999999716
 31
0.0
  0
LINE
  5
102
100
AcDbEntity
100
AcDbLine
  8
corners
 62
256
370
-1
  6
ByLayer
 10
30.0000000000000036
 20
-14.0000000000000036
 30
0.0
 11
50.0000000000000071
 21
-14.0000000000000142
 31
0.0
  0
LINE
  5
103
100
AcDbEntity
100
AcDbLine
  8
corners
 62
256
370
-1
  6
ByLayer
 10
50.0000000000000071
 20
-14.0000000000000142
 30
0.0
 11
54.9999999999999858
 21
-19.0000000000000142
 31
0.0
  0
LINE
  5
104
100
AcDbEntity
100
AcDbLine
  8
corners
 62
256
370
-1
  6
ByLayer
 10
54.9999999999999858
 20
-19.0000000000000142
 30
0.0
 11
55.0000000000000639
 21
-100.9999999999999858
 31
0.0
  0
LINE
  5
105
100
AcDbEntity
100
AcDbLine
  8
corners
 62
256
370
-1
  6
ByLayer
 10
30.0000000000000036
 20
-14.0000000000000036
 30
0.0
 11
-0.9999999999999964
 21
-50.0000000000000782
 31
0.0
  0
LINE
  5
106
100
AcDbEntity
100
AcDbLine
  8
corners
 62
256
370
-1
  6
ByLayer
 10
-0.9999999999999964
 20
-70.0000000000000142
 30
0.0
 11
30.0000000000001528
 21
-105.9999999999999716
 31
0.0
  0
ENDBLK
  5
107
100
AcDbEntity
  8
0
100
AcDbBlockEnd
  0
BLOCK
  5
108
100
AcDbEntity
  8
0
100
AcDbBlockBegin
  2
joint tb
 70
0
 10
0.0
 20
0.0
 30
0.0
  3
joint tb
  1

  0
CIRCLE
  5
109
100
AcDbEntity
100
AcDbCircle
  8
corners
 62
256
370
-1
  6
ByLayer
 10
10.0
 20
-15.0
 30
0.0
 40
2.0
  0
CIRCLE
  5
10A
100
AcDbEntity
100
AcDbCircle
  8
corners
 62
256
370
-1
  6
ByLayer
 10
0.0
 20
0.0
 30
0.0
 40
2.0
  0
LINE
  5
10B
100
AcDbEntity
100
AcDbLine
  8
corners
 62
256
370
-1
  6
ByLayer
 10
-20.0
 20
5.9999999999999432
 30
0.0
 11
-20.0
 21
9.9999999999999432
 31
0.0
  0
LINE
  5
10C
100
AcDbEntity
100
AcDbLine
  8
corners
 62
256
370
-1
  6
ByLayer
 10
-26.0
 20
5.9999999999999432
 30
0.0
 11
-26.0
 21
9.9999999999999432
 31
0.0
  0
LINE
  5
10D
100
AcDbEntity
100
AcDbLine
  8
corners
 62
256
370
-1
  6
ByLayer
 10
-20.0
 20
-10.0
 30
0.0
 11
-20.0
 21
-6.0
 31
0.0
  0
LINE
  5
10E
100
AcDbEntity
100
AcDbLine
  8
corners
 62
256
370
-1
  6
ByLayer
 10
-26.0
 20
-10.0
 30
0.0
 11
-26.0
 21
-6.0
 31
0.0
  0
LINE
  5
10F
100
AcDbEntity
100
AcDbLine
  8
corners
 62
256
370
-1
  6
ByLayer
 10
-20.0
 20
-10.0
 30
0.0
 11
-26.0
 21
-10.0
 31
0.0
  0
LINE
  5
110
100
AcDbEntity
100
AcDbLine
  8
corners
 62
256
370
-1
  6
ByLayer
 10
-26.0
 20
-6.0
 30
0.0
 11
-20.0
 21
-6.0
 31
0.0
  0
LINE
  5
111
100
AcDbEntity
100
AcDbLine
  8
corners
 62
256
370
-1
  6
ByLayer
 10
-20.0
 20
5.9999999999999432
 30
0.0
 11
-26.0
 21
5.9999999999999432
 31
0.0
  0
LINE
  5
112
100
AcDbEntity
100
AcDbLine
  8
corners
 62
256
370
-1
  6
ByLayer
 10
-20.0
 20
9.9999999999999432
 30
0.0
 11
-26.0
 21
9.9999999999999432
 31
0.0
  0
CIRCLE
  5
113
100
AcDbEntity
100
AcDbCircle
  8
corners
 62
256
370
-1
  6
ByLayer
 10
20.0
 20
0.0
 30
0.0
 40
2.0
  0
LINE
  5
114
100
AcDbEntity
100
AcDbLine
  8
corners
 62
256
370
-1
  6
ByLayer
 10
40.0
 20
6.0
 30
0.0
 11
40.0
 21
10.0
 31
0.0
  0
LINE
  5
115
100
AcDbEntity
100
AcDbLine
  8
corners
 62
256
370
-1
  6
ByLayer
 10
46.0000000000001137
 20
6.0000000000000568
 30
0.0
 11
46.0000000000001137
 21
10.0000000000000568
 31
0.0
  0
LINE
  5
116
100
AcDbEntity
100
AcDbLine
  8
corners
 62
256
370
-1
  6
ByLayer
 10
40.0000000000001137
 20
-9.9999999999998863
 30
0.0
 11
40.0000000000001137
 21
-5.9999999999998863
 31
0.0
  0
LINE
  5
117
100
AcDbEntity
100
AcDbLine
  8
corners
 62
256
370
-1
  6
ByLayer
 10
46.0000000000001137
 20
-9.9999999999998863
 30
0.0
 11
46.0000000000001137
 21
-5.9999999999998863
 31
0.0
  0
LINE
  5
118
100
AcDbEntity
100
AcDbLine
  8
corners
 62
256
370
-1
  6
ByLayer
 10
40.0000000000001137
 20
-9.9999999999998863
 30
0.0
 11
46.0000000000001137
 21
-9.9999999999998863
 31
0.0
  0
LINE
  5
119
100
AcDbEntity
100
AcDbLine
  8
corners
 62
256
370
-1
  6
ByLayer
 10
46.0000000000001137
 20
-5.9999999999998863
 30
0.0
 11
40.0000000000001137
 21
-5.9999999999998863
 31
0.0
  0
LINE
  5
11A
100
AcDbEntity
100
AcDbLine
  8
corners
 62
256
370
-1
  6
ByLayer
 10
40.0
 20
6.0
 30
0.0
 11
46.0000000000001137
 21
6.0000000000000568
 31
0.0
  0
LINE
  5
11B
100
AcDbEntity
100
AcDbLine
  8
corners
 62
256
370
-1
  6
ByLayer
 10
40.0
 20
10.0
 30
0.0
 11
46.0000000000001137
 21
10.0000000000000568
 31
0.0
  0
LINE
  5
11C
100
AcDbEntity
100
AcDbLine
  8
corners
 62
256
370
-1
  6
ByLayer
 10
-29.0
 20
15.0
 30
0.0
 11
49.0
 21
15.0000000000001137
 31
0.0
  0
LINE
  5
11D
100
AcDbEntity
100
AcDbLine
  8
corners
 62
256
370
-1
  6
ByLayer
 10
-29.0
 20
15.0
 30
0.0
 11
-31.0
 21
9.9999999999999432
 31
0.0
  0
LINE
  5
11E
100
AcDbEntity
100
AcDbLine
  8
corners
 62
256
370
-1
  6
ByLayer
 10
-31.0
 20
9.9999999999999432
 30
0.0
 11
-31.0
 21
-10.0
 31
0.0
  0
LINE
  5
11F
100
AcDbEntity
100
AcDbLine
  8
corners
 62
256
370
-1
  6
ByLayer
 10
51.0000000000001137
 20
-9.9999999999998881
 30
0.0
 11
51.0000000000001137
 21
10.0000000000000551
 31
0.0
  0
LINE
  5
120
100
AcDbEntity
100
AcDbLine
  8
corners
 62
256
370
-1
  6
ByLayer
 10
51.0000000000001137
 20
10.0000000000000551
 30
0.0
 11
49.0
 21
15.0000000000001137
 31
0.0
  0
LINE
  5
121
100
AcDbEntity
100
AcDbLine
  8
corners
 62
256
370
-1
  6
ByLayer
 10
16.0
 20
-35.0
 30
0.0
 11
20.0
 21
-34.9999999999999432
 31
0.0
  0
LINE
  5
122
100
AcDbEntity
100
AcDbLine
  8
corners
 62
256
370
-1
  6
ByLayer
 10
16.0
 20
-40.9999999999999432
 30
0.0
 11
20.0
 21
-40.9999999999999432
 31
0.0
  0
LINE
  5
123
100
AcDbEntity
100
AcDbLine
  8
corners
 62
256
370
-1
  6
ByLayer
 10
0.0
 20
-35.0
 30
0.0
 11
4.0
 21
-35.0
 31
0.0
  0
LINE
  5
124
100
AcDbEntity
100
AcDbLine
  8
corners
 62
256
370
-1
  6
ByLayer
 10
0.0
 20
-40.9999999999999432
 30
0.0
 11
4.0
 21
-40.9999999999999432
 31
0.0
  0
LINE
  5
125
100
AcDbEntity
100
AcDbLine
  8
corners
 62
256
370
-1
  6
ByLayer
 10
0.0
 20
-35.0
 30
0.0
 11
0.0
 21
-40.9999999999999432
 31
0.0
  0
LINE
  5
126
100
AcDbEntity
100
AcDbLine
  8
corners
 62
256
370
-1
  6
ByLayer
 10
4.0
 20
-40.9999999999999432
 30
0.0
 11
4.0
 21
-35.0
 31
0.0
  0
LINE
  5
127
100
AcDbEntity
100
AcDbLine
  8
corners
 62
256
370
-1
  6
ByLayer
 10
16.0
 20
-35.0
 30
0.0
 11
16.0
 21
-40.9999999999999432
 31
0.0
  0
LINE
  5
128
100
AcDbEntity
100
AcDbLine
  8
corners
 62
256
370
-1
  6
ByLayer
 10
20.0
 20
-34.9999999999999432
 30
0.0
 11
20.0
 21
-40.9999999999999432
 31
0.0
  0
LINE
  5
129
100
AcDbEntity
100
AcDbLine
  8
corners
 62
256
370
-1
  6
ByLayer
 10
-0.0000000000000009
 20
-45.9999999999999432
 30
0.0
 11
20.0
 21
-45.9999999999999432
 31
0.0
  0
LINE
  5
12A
100
AcDbEntity
100
AcDbLine
  8
corners
 62
256
370
-1
  6
ByLayer
 10
51.0000000000001137
 20
-9.9999999999998881
 30
0.0
 11
20.0
 21
-45.9999999999999432
 31
0.0
  0
LINE
  5
12B
100
AcDbEntity
100
AcDbLine
  8
corners
 62
256
370
-1
  6
ByLayer
 10
-0.0000000000000009
 20
-45.9999999999999432
 30
0.0
 11
-31.0
 21
-10.0
 31
0.0
  0
ENDBLK
  5
12C
100
AcDbEntity
  8
0
100
AcDbBlockEnd
  0
BLOCK
  5
12D
100
AcDbEntity
  8
0
100
AcDbBlockBegin
  2
center
 70
0
 10
0.0
 20
0.0
 30
0.0
  3
center
  1

  0
LINE
  5
12E
100
AcDbEntity
100
AcDbLine
  8
corners
 62
256
370
-1
  6
ByLayer
 10
20.0
 20
-54.0000000000000924
 30
0.0
 11
20.0
 21
-50.0000000000000711
 31
0.0
  0
LINE
  5
12F
100
AcDbEntity
100
AcDbLine
  8
corners
 62
256
370
-1
  6
ByLayer
 10
14.0
 20
-54.0000000000000497
 30
0.0
 11
14.0
 21
-50.0000000000001066
 31
0.0
  0
LINE
  5
130
100
AcDbEntity
100
AcDbLine
  8
corners
 62
256
370
-1
  6
ByLayer
 10
20.0
 20
-70.0
 30
0.0
 11
20.0
 21
-66.0000000000000284
 31
0.0
  0
LINE
  5
131
100
AcDbEntity
100
AcDbLine
  8
corners
 62
256
370
-1
  6
ByLayer
 10
13.9999999999999716
 20
-70.0000000000000995
 30
0.0
 11
14.0000000000000284
 21
-66.0000000000000995
 31
0.0
  0
LINE
  5
132
100
AcDbEntity
100
AcDbLine
  8
corners
 62
256
370
-1
  6
ByLayer
 10
20.0
 20
-70.0
 30
0.0
 11
13.9999999999999716
 21
-70.0000000000000995
 31
0.0
  0
LINE
  5
133
100
AcDbEntity
100
AcDbLine
  8
corners
 62
256
370
-1
  6
ByLayer
 10
14.0000000000000284
 20
-66.0000000000000995
 30
0.0
 11
20.0
 21
-66.0000000000000284
 31
0.0
  0
LINE
  5
134
100
AcDbEntity
100
AcDbLine
  8
corners
 62
256
370
-1
  6
ByLayer
 10
20.0
 20
-54.0000000000000924
 30
0.0
 11
14.0
 21
-54.0000000000000497
 31
0.0
  0
LINE
  5
135
100
AcDbEntity
100
AcDbLine
  8
corners
 62
256
370
-1
  6
ByLayer
 10
20.0
 20
-50.0000000000000711
 30
0.0
 11
14.0
 21
-50.0000000000001066
 31
0.0
  0
CIRCLE
  5
136
100
AcDbEntity
100
AcDbCircle
  8
corners
 62
256
370
-1
  6
ByLayer
 10
40.0
 20
-60.0000000000000355
 30
0.0
 40
2.0
  0
CIRCLE
  5
137
100
AcDbEntity
100
AcDbCircle
  8
corners
 62
256
370
-1
  6
ByLayer
 10
50.0000000000000142
 20
-75.0
 30
0.0
 40
2.0
  0
LINE
  5
138
100
AcDbEntity
100
AcDbLine
  8
corners
 62
256
370
-1
  6
ByLayer
 10
71.6109417003310682
 20
-21.1627726898509572
 30
0.0
 11
68.4163996601419058
 21
-18.7555125972427881
 31
0.0
  0
LINE
  5
139
100
AcDbEntity
100
AcDbLine
  8
corners
 62
256
370
-1
  6
ByLayer
 10
75.2218318392433503
 20
-16.37095962956721
 30
0.0
 11
72.0272897990541878
 21
-13.9636995369590444
 31
0.0
  0
LINE
  5
13A
100
AcDbEntity
100
AcDbLine
  8
corners
 62
256
370
-1
  6
ByLayer
 10
88.0
 20
-26.0
 30
0.0
 11
84.8054579598108376
 21
-23.5927399073918309
 31
0.0
  0
LINE
  5
13B
100
AcDbEntity
100
AcDbLine
  8
corners
 62
256
370
-1
  6
ByLayer
 10
84.3891098610877179
 20
-30.7918130602837472
 30
0.0
 11
81.1945678208985555
 21
-28.3845529676755781
 31
0.0
  0
LINE
  5
13C
100
AcDbEntity
100
AcDbLine
  8
corners
 62
256
370
-1
  6
ByLayer
 10
88.0
 20
-26.0
 30
0.0
 11
84.3891098610877179
 21
-30.7918130602837472
 31
0.0
  0
LINE
  5
13D
100
AcDbEntity
100
AcDbLine
  8
corners
 62
256
370
-1
  6
ByLayer
 10
81.1945678208985555
 20
-28.3845529676755781
 30
0.0
 11
84.8054579598108376
 21
-23.5927399073918309
 31
0.0
  0
LINE
  5
13E
100
AcDbEntity
100
AcDbLine
  8
corners
 62
256
370
-1
  6
ByLayer
 10
75.2218318392433503
 20
-16.37095962956721
 30
0.0
 11
71.6109417003310682
 21
-21.1627726898509572
 31
0.0
  0
LINE
  5
13F
100
AcDbEntity
100
AcDbLine
  8
corners
 62
256
370
-1
  6
ByLayer
 10
68.4163996601419058
 20
-18.7555125972427881
 30
0.0
 11
72.0272897990541878
 21
-13.9636995369590444
 31
0.0
  0
CIRCLE
  5
140
100
AcDbEntity
100
AcDbCircle
  8
corners
 62
256
370
-1
  6
ByLayer
 10
50.0
 20
-45.0
 30
0.0
 40
2.0
  0
LINE
  5
141
100
AcDbEntity
100
AcDbLine
  8
corners
 62
256
370
-1
  6
ByLayer
 10
28.389058299668946
 20
-21.1627726898509501
 30
0.0
 11
31.583600339858112
 21
-18.7555125972427845
 31
0.0
  0
LINE
  5
142
100
AcDbEntity
100
AcDbLine
  8
corners
 62
256
370
-1
  6
ByLayer
 10
24.7781681607566497
 20
-16.3709596295672135
 30
0.0
 11
27.9727102009458477
 21
-13.9636995369590338
 31
0.0
  0
LINE
  5
143
100
AcDbEntity
100
AcDbLine
  8
corners
 62
256
370
-1
  6
ByLayer
 10
12.0000000000000071
 20
-25.9999999999999893
 30
0.0
 11
15.1945420401891624
 21
-23.5927399073918309
 31
0.0
  0
LINE
  5
144
100
AcDbEntity
100
AcDbLine
  8
corners
 62
256
370
-1
  6
ByLayer
 10
15.6108901389122892
 20
-30.7918130602837294
 30
0.0
 11
18.8054321791014374
 21
-28.3845529676755781
 31
0.0
  0
LINE
  5
145
100
AcDbEntity
100
AcDbLine
  8
corners
 62
256
370
-1
  6
ByLayer
 10
12.0000000000000071
 20
-25.9999999999999893
 30
0.0
 11
15.6108901389122892
 21
-30.7918130602837294
 31
0.0
  0
LINE
  5
146
100
AcDbEntity
100
AcDbLine
  8
corners
 62
256
370
-1
  6
ByLayer
 10
18.8054321791014374
 20
-28.3845529676755781
 30
0.0
 11
15.1945420401891624
 21
-23.5927399073918309
 31
0.0
  0
LINE
  5
147
100
AcDbEntity
100
AcDbLine
  8
corners
 62
256
370
-1
  6
ByLayer
 10
24.7781681607566497
 20
-16.3709596295672135
 30
0.0
 11
28.389058299668946
 21
-21.1627726898509501
 31
0.0
  0
LINE
  5
148
100
AcDbEntity
100
AcDbLine
  8
corners
 62
256
370
-1
  6
ByLayer
 10
31.583600339858112
 20
-18.7555125972427845
 30
0.0
 11
27.9727102009458477
 21
-13.9636995369590338
 31
0.0
  0
LINE
  5
149
100
AcDbEntity
100
AcDbLine
  8
corners
 62
256
370
-1
  6
ByLayer
 10
80.0
 20
-53.9999999999999503
 30
0.0
 11
80.0
 21
-49.9999999999999858
 31
0.0
  0
LINE
  5
14A
100
AcDbEntity
100
AcDbLine
  8
corners
 62
256
370
-1
  6
ByLayer
 10
86.0
 20
-54.0000000000001208
 30
0.0
 11
86.0
 21
-50.0
 31
0.0
  0
LINE
  5
14B
100
AcDbEntity
100
AcDbLine
  8
corners
 62
256
370
-1
  6
ByLayer
 10
80.0
 20
-70.0000000000000142
 30
0.0
 11
80.0
 21
-65.9999999999999858
 31
0.0
  0
LINE
  5
14C
100
AcDbEntity
100
AcDbLine
  8
corners
 62
256
370
-1
  6
ByLayer
 10
86.0
 20
-70.0
 30
0.0
 11
86.0
 21
-65.9999999999999858
 31
0.0
  0
LINE
  5
14D
100
AcDbEntity
100
AcDbLine
  8
corners
 62
256
370
-1
  6
ByLayer
 10
80.0
 20
-70.0000000000000142
 30
0.0
 11
86.0
 21
-70.0
 31
0.0
  0
LINE
  5
14E
100
AcDbEntity
100
AcDbLine
  8
corners
 62
256
370
-1
  6
ByLayer
 10
86.0
 20
-65.9999999999999858
 30
0.0
 11
80.0
 21
-65.9999999999999858
 31
0.0
  0
LINE
  5
14F
100
AcDbEntity
100
AcDbLine
  8
corners
 62
256
370
-1
  6
ByLayer
 10
80.0
 20
-53.9999999999999503
 30
0.0
 11
86.0
 21
-54.0000000000001208
 31
0.0
  0
LINE
  5
150
100
AcDbEntity
100
AcDbLine
  8
corners
 62
256
370
-1
  6
ByLayer
 10
80.0
 20
-49.9999999999999858
 30
0.0
 11
86.0
 21
-50.0
 31
0.0
  0
CIRCLE
  5
151
100
AcDbEntity
100
AcDbCircle
  8
corners
 62
256
370
-1
  6
ByLayer
 10
60.0
 20
-60.0000000000000497
 30
0.0
 40
2.0
  0
LINE
  5
152
100
AcDbEntity
100
AcDbLine
  8
corners
 62
256
370
-1
  6
ByLayer
 10
71.610941700331054
 20
-98.8372273101490464
 30
0.0
 11
68.4163996601418916
 21
-101.2444874027572155
 31
0.0
  0
LINE
  5
153
100
AcDbEntity
100
AcDbLine
  8
corners
 62
256
370
-1
  6
ByLayer
 10
75.2218318392433503
 20
-103.62904037043279
 30
0.0
 11
72.0272897990541878
 21
-106.0363004630409591
 31
0.0
  0
LINE
  5
154
100
AcDbEntity
100
AcDbLine
  8
corners
 62
256
370
-1
  6
ByLayer
 10
88.0
 20
-94.0
 30
0.0
 11
84.8054579598108376
 21
-96.4072600926081691
 31
0.0
  0
LINE
  5
155
100
AcDbEntity
100
AcDbLine
  8
corners
 62
256
370
-1
  6
ByLayer
 10
84.3891098610877179
 20
-89.2081869397162706
 30
0.0
 11
81.1945678208985555
 21
-91.6154470323244254
 31
0.0
  0
LINE
  5
156
100
AcDbEntity
100
AcDbLine
  8
corners
 62
256
370
-1
  6
ByLayer
 10
88.0
 20
-94.0
 30
0.0
 11
84.3891098610877179
 21
-89.2081869397162706
 31
0.0
  0
LINE
  5
157
100
AcDbEntity
100
AcDbLine
  8
corners
 62
256
370
-1
  6
ByLayer
 10
81.1945678208985555
 20
-91.6154470323244254
 30
0.0
 11
84.8054579598108376
 21
-96.4072600926081691
 31
0.0
  0
LINE
  5
158
100
AcDbEntity
100
AcDbLine
  8
corners
 62
256
370
-1
  6
ByLayer
 10
75.2218318392433503
 20
-103.62904037043279
 30
0.0
 11
71.610941700331054
 21
-98.8372273101490464
 31
0.0
  0
LINE
  5
159
100
AcDbEntity
100
AcDbLine
  8
corners
 62
256
370
-1
  6
ByLayer
 10
68.4163996601418916
 20
-101.2444874027572155
 30
0.0
 11
72.0272897990541878
 21
-106.0363004630409591
 31
0.0
  0
LINE
  5
15A
100
AcDbEntity
100
AcDbLine
  8
corners
 62
256
370
-1
  6
ByLayer
 10
28.3890582996689389
 20
-98.8372273101490464
 30
0.0
 11
31.5836003398581013
 21
-101.2444874027572155
 31
0.0
  0
LINE
  5
15B
100
AcDbEntity
100
AcDbLine
  8
corners
 62
256
370
-1
  6
ByLayer
 10
24.7781681607566355
 20
-103.62904037043279
 30
0.0
 11
27.9727102009458086
 21
-106.0363004630409591
 31
0.0
  0
LINE
  5
15C
100
AcDbEntity
100
AcDbLine
  8
corners
 62
256
370
-1
  6
ByLayer
 10
12.0
 20
-94.0
 30
0.0
 11
15.1945420401891589
 21
-96.4072600926081691
 31
0.0
  0
LINE
  5
15D
100
AcDbEntity
100
AcDbLine
  8
corners
 62
256
370
-1
  6
ByLayer
 10
15.6108901389122821
 20
-89.2081869397162563
 30
0.0
 11
18.8054321791014409
 21
-91.6154470323244254
 31
0.0
  0
LINE
  5
15E
100
AcDbEntity
100
AcDbLine
  8
corners
 62
256
370
-1
  6
ByLayer
 10
12.0
 20
-94.0
 30
0.0
 11
15.6108901389122821
 21
-89.2081869397162563
 31
0.0
  0
LINE
  5
15F
100
AcDbEntity
100
AcDbLine
  8
corners
 62
256
370
-1
  6
ByLayer
 10
18.8054321791014409
 20
-91.6154470323244254
 30
0.0
 11
15.1945420401891589
 21
-96.4072600926081691
 31
0.0
  0
LINE
  5
160
100
AcDbEntity
100
AcDbLine
  8
corners
 62
256
370
-1
  6
ByLayer
 10
24.7781681607566355
 20
-103.62904037043279
 30
0.0
 11
28.3890582996689389
 21
-98.8372273101490464
 31
0.0
  0
LINE
  5
161
100
AcDbEntity
100
AcDbLine
  8
corners
 62
256
370
-1
  6
ByLayer
 10
31.5836003398581013
 20
-101.2444874027572155
 30
0.0
 11
27.9727102009458086
 21
-106.0363004630409591
 31
0.0
  0
LINE
  5
162
100
AcDbEntity
100
AcDbLine
  8
corners
 62
256
370
-1
  6
ByLayer
 10
24.9636350851856328
 20
-9.9705219867225505
 30
0.0
 11
8.9909248842397851
 21
-22.0068224497635114
 31
0.0
  0
LINE
  5
163
100
AcDbEntity
100
AcDbLine
  8
corners
 62
256
370
-1
  6
ByLayer
 10
8.9909248842397851
 20
-22.0068224497635114
 30
0.0
 11
8.0068224497635434
 21
-29.0090751157602327
 31
0.0
  0
LINE
  5
164
100
AcDbEntity
100
AcDbLine
  8
corners
 62
256
370
-1
  6
ByLayer
 10
8.0068224497635363
 20
-90.9909248842397602
 30
0.0
 11
8.9909248842397691
 21
-97.9931775502364673
 31
0.0
  0
LINE
  5
165
100
AcDbEntity
100
AcDbLine
  8
corners
 62
256
370
-1
  6
ByLayer
 10
8.9909248842397691
 20
-97.9931775502364673
 30
0.0
 11
24.9636350851855831
 21
-110.0294780132774406
 31
0.0
  0
LINE
  5
166
100
AcDbEntity
100
AcDbLine
  8
corners
 62
256
370
-1
  6
ByLayer
 10
75.0363649148144134
 20
-110.0294780132774406
 30
0.0
 11
91.0090751157602256
 21
-97.9931775502364815
 31
0.0
  0
LINE
  5
167
100
AcDbEntity
100
AcDbLine
  8
corners
 62
256
370
-1
  6
ByLayer
 10
91.0090751157602256
 20
-97.9931775502364815
 30
0.0
 11
91.993177550236453
 21
-90.990924884239746
 31
0.0
  0
LINE
  5
168
100
AcDbEntity
100
AcDbLine
  8
corners
 62
256
370
-1
  6
ByLayer
 10
91.9931775502364673
 20
-29.0090751157602469
 30
0.0
 11
91.0090751157602256
 21
-22.0068224497635256
 31
0.0
  0
LINE
  5
169
100
AcDbEntity
100
AcDbLine
  8
corners
 62
256
370
-1
  6
ByLayer
 10
91.0090751157602256
 20
-22.0068224497635256
 30
0.0
 11
75.0363649148144134
 21
-9.9705219867225665
 31
0.0
  0
LINE
  5
16A
100
AcDbEntity
100
AcDbLine
  8
corners
 62
256
370
-1
  6
ByLayer
 10
8.0068224497635434
 20
-29.0090751157602327
 30
0.0
 11
8.0068224497635363
 21
-90.9909248842397602
 31
0.0
  0
LINE
  5
16B
100
AcDbEntity
100
AcDbLine
  8
corners
 62
256
370
-1
  6
ByLayer
 10
91.993177550236453
 20
-90.990924884239746
 30
0.0
 11
91.9931775502364673
 21
-29.0090751157602469
 31
0.0
  0
LINE
  5
16C
100
AcDbEntity
100
AcDbLine
  8
corners
 62
256
370
-1
  6
ByLayer
 10
56.0
 20
-95.0
 30
0.0
 11
60.0000000000000142
 21
-94.9999999999999716
 31
0.0
  0
LINE
  5
16D
100
AcDbEntity
100
AcDbLine
  8
corners
 62
256
370
-1
  6
ByLayer
 10
56.0000000000000213
 20
-100.9999999999999716
 30
0.0
 11
59.9999999999999645
 21
-100.9999999999999432
 31
0.0
  0
LINE
  5
16E
100
AcDbEntity
100
AcDbLine
  8
corners
 62
256
370
-1
  6
ByLayer
 10
40.0000000000000355
 20
-95.0
 30
0.0
 11
44.0000000000000355
 21
-95.0
 31
0.0
  0
LINE
  5
16F
100
AcDbEntity
100
AcDbLine
  8
corners
 62
256
370
-1
  6
ByLayer
 10
40.0000000000000497
 20
-100.9999999999999716
 30
0.0
 11
44.0000000000000213
 21
-100.9999999999999716
 31
0.0
  0
LINE
  5
170
100
AcDbEntity
100
AcDbLine
  8
corners
 62
256
370
-1
  6
ByLayer
 10
40.0000000000000355
 20
-95.0
 30
0.0
 11
40.0000000000000497
 21
-100.9999999999999716
 31
0.0
  0
LINE
  5
171
100
AcDbEntity
100
AcDbLine
  8
corners
 62
256
370
-1
  6
ByLayer
 10
44.0000000000000213
 20
-100.9999999999999716
 30
0.0
 11
44.0000000000000355
 21
-95.0
 31
0.0
  0
LINE
  5
172
100
AcDbEntity
100
AcDbLine
  8
corners
 62
256
370
-1
  6
ByLayer
 10
56.0
 20
-95.0
 30
0.0
 11
56.0000000000000213
 21
-100.9999999999999716
 31
0.0
  0
LINE
  5
173
100
AcDbEntity
100
AcDbLine
  8
corners
 62
256
370
-1
  6
ByLayer
 10
60.0000000000000142
 20
-94.9999999999999716
 30
0.0
 11
59.9999999999999645
 21
-100.9999999999999432
 31
0.0
  0
LINE
  5
174
100
AcDbEntity
100
AcDbLine
  8
corners
 62
256
370
-1
  6
ByLayer
 10
44.0
 20
-24.9999999999999645
 30
0.0
 11
39.9999999999999929
 21
-24.9999999999999751
 31
0.0
  0
LINE
  5
175
100
AcDbEntity
100
AcDbLine
  8
corners
 62
256
370
-1
  6
ByLayer
 10
43.9999999999999858
 20
-18.9999999999999751
 30
0.0
 11
39.9999999999999858
 21
-18.9999999999999964
 31
0.0
  0
LINE
  5
176
100
AcDbEntity
100
AcDbLine
  8
corners
 62
256
370
-1
  6
ByLayer
 10
59.9999999999999858
 20
-24.9999999999999858
 30
0.0
 11
56.0
 21
-25.0
 31
0.0
  0
LINE
  5
177
100
AcDbEntity
100
AcDbLine
  8
corners
 62
256
370
-1
  6
ByLayer
 10
59.9999999999999787
 20
-18.9999999999999822
 30
0.0
 11
55.9999999999999929
 21
-19.0
 31
0.0
  0
LINE
  5
178
100
AcDbEntity
100
AcDbLine
  8
corners
 62
256
370
-1
  6
ByLayer
 10
59.9999999999999858
 20
-24.9999999999999858
 30
0.0
 11
59.9999999999999787
 21
-18.9999999999999822
 31
0.0
  0
LINE
  5
179
100
AcDbEntity
100
AcDbLine
  8
corners
 62
256
370
-1
  6
ByLayer
 10
55.9999999999999929
 20
-19.0
 30
0.0
 11
56.0
 21
-25.0
 31
0.0
  0
LINE
  5
17A
100
AcDbEntity
100
AcDbLine
  8
corners
 62
256
370
-1
  6
ByLayer
 10
44.0
 20
-24.9999999999999645
 30
0.0
 11
43.9999999999999858
 21
-18.9999999999999751
 31
0.0
  0
LINE
  5
17B
100
AcDbEntity
100
AcDbLine
  8
corners
 62
256
370
-1
  6
ByLayer
 10
39.9999999999999929
 20
-24.9999999999999751
 30
0.0
 11
39.9999999999999858
 21
-18.9999999999999964
 31
0.0
  0
LINE
  5
17C
100
AcDbEntity
100
AcDbLine
  8
corners
 62
256
370
-1
  6
ByLayer
 10
24.9636350851856328
 20
-9.9705219867225505
 30
0.0
 11
75.0363649148144134
 21
-9.9705219867225665
 31
0.0
  0
LINE
  5
17D
100
AcDbEntity
100
AcDbLine
  8
corners
 62
256
370
-1
  6
ByLayer
 10
24.9636350851855831
 20
-110.0294780132774406
 30
0.0
 11
75.0363649148144134
 21
-110.0294780132774406
 31
0.0
  0
ENDBLK
  5
17E
100
AcDbEntity
  8
0
100
AcDbBlockEnd
  0
ENDSEC
  0
SECTION
  2
ENTITIES
  0
INSERT
  5
17F
100
AcDbEntity
100
AcDbBlockReference
  8
strips
 62
256
370
-1
  6
ByLayer
  2
vert 200
 10
16.0845070422553817
 20
233.7915492957750416
 30
0.0
 41
1.0
 42
-1.0
 43
1.0
 50
180.0
 44
1.0
 45
1.0
  0
INSERT
  5
180
100
AcDbEntity
100
AcDbBlockReference
  8
strips
 62
256
370
-1
  6
ByLayer
  2
vert 200
 10
16.0845070422553817
 20
13.7915492957750416
 30
0.0
 41
1.0
 42
-1.0
 43
1.0
 50
180.0
 44
1.0
 45
1.0
  0
INSERT
  5
181
100
AcDbEntity
100
AcDbBlockReference
  8
strips
 62
256
370
-1
  6
ByLayer
  2
vert 200
 10
41.0845070422553817
 20
233.7915492957750416
 30
0.0
 44
1.0
 45
1.0
  0
INSERT
  5
182
100
AcDbEntity
100
AcDbBlockReference
  8
strips
 62
256
370
-1
  6
ByLayer
  2
vert 200
 10
41.0845070422553817
 20
13.7915492957750416
 30
0.0
 44
1.0
 45
1.0
  0
INSERT
  5
183
100
AcDbEntity
100
AcDbBlockReference
  8
strips
 62
256
370
-1
  6
ByLayer
  2
vert 200
 10
66.0845070422553817
 20
233.7915492957750416
 30
0.0
 44
1.0
 45
1.0
  0
INSERT
  5
184
100
AcDbEntity
100
AcDbBlockReference
  8
strips
 62
256
370
-1
  6
ByLayer
  2
vert 200
 10
66.0845070422553817
 20
13.7915492957750416
 30
0.0
 41
1.0
 42
-1.0
 43
1.0
 50
180.0
 44
1.0
 45
1.0
  0
INSERT
  5
185
100
AcDbEntity
100
AcDbBlockReference
  8
strips
 62
256
370
-1
  6
ByLayer
  2
horiz 150
 10
244.0985915492984759
 20
139.7323943661993439
 30
0.0
 41
1.0
 42
-1.0
 43
1.0
 50
180.0
 44
1.0
 45
1.0
  0
INSERT
  5
186
100
AcDbEntity
100
AcDbBlockReference
  8
strips
 62
256
370
-1
  6
ByLayer
  2
horiz 150
 10
94.0985915492984759
 20
169.7323943661992871
 30
0.0
 44
1.0
 45
1.0
  0
INSERT
  5
187
100
AcDbEntity
100
AcDbBlockReference
  8
strips
 62
256
370
-1
  6
ByLayer
  2
horiz 150
 10
244.0985915492984759
 20
109.7323943661993866
 30
0.0
 41
1.0
 42
-1.0
 43
1.0
 50
180.0
 44
1.0
 45
1.0
  0
INSERT
  5
188
100
AcDbEntity
100
AcDbBlockReference
  8
strips
 62
256
370
-1
  6
ByLayer
  2
horiz 150
 10
94.0985915492984759
 20
79.7323943661994434
 30
0.0
 44
1.0
 45
1.0
  0
INSERT
  5
189
100
AcDbEntity
100
AcDbBlockReference
  8
strips
 62
256
370
-1
  6
ByLayer
  2
horiz 150
 10
244.0985915492984759
 20
49.7323943661995003
 30
0.0
 41
1.0
 42
-1.0
 43
1.0
 50
180.0
 44
1.0
 45
1.0
  0
INSERT
  5
18A
100
AcDbEntity
100
AcDbBlockReference
  8
strips
 62
256
370
-1
  6
ByLayer
  2
horiz 150
 10
94.0985915492984759
 20
19.7323943661994434
 30
0.0
 44
1.0
 45
1.0
  0
INSERT
  5
18B
100
AcDbEntity
100
AcDbBlockReference
  8
corners
 62
256
370
-1
  6
ByLayer
  2
lr joint
 10
136.9278169014123705
 20
320.9947183098682899
 30
0.0
 41
1.0
 42
-1.0
 43
1.0
 50
179.9999999999999716
 44
1.0
 45
1.0
  0
INSERT
  5
18C
100
AcDbEntity
100
AcDbBlockReference
  8
corners
 62
256
370
-1
  6
ByLayer
  2
joint tb
 10
137.9278169014123705
 20
316.9947183098682331
 30
0.0
 44
1.0
 45
1.0
  0
INSERT
  5
18D
100
AcDbEntity
100
AcDbBlockReference
  8
corners
 62
256
370
-1
  6
ByLayer
  2
lr joint
 10
158.9278169014123705
 20
320.9947183098683468
 30
0.0
 44
1.0
 45
1.0
  0
INSERT
  5
18E
100
AcDbEntity
100
AcDbBlockReference
  8
corners
 62
256
370
-1
  6
ByLayer
  2
joint tb
 10
137.9278169014122568
 20
204.9947183098683468
 30
0.0
 41
1.0
 42
-1.0
 43
1.0
  0
INSERT
  5
18F
100
AcDbEntity
100
AcDbBlockReference
  8
corners
 62
256
370
-1
  6
ByLayer
  2
center
 10
76.3204225352134245
 20
446.6989436619845719
 30
0.0
  0
LINE
  5
190
100
AcDbEntity
100
AcDbLine
  8
wedges
 62
256
370
-1
  6
ByLayer
 10
195.3329665492775575
 20
426.465889084507296
 30
0.0
 11
199.3329665492775575
 21
426.465889084507296
 31
0.0
  0
LINE
  5
191
100
AcDbEntity
100
AcDbLine
  8
wedges
 62
256
370
-1
  6
ByLayer
 10
199.3329665492775575
 20
426.465889084507296
 30
0.0
 11
197.3329665492775575
 21
413.465889084507296
 31
0.0
  0
LINE
  5
192
100
AcDbEntity
100
AcDbLine
  8
wedges
 62
256
370
-1
  6
ByLayer
 10
201.3329665492775575
 20
413.465889084507296
 30
0.0
 11
201.3329665492775575
 21
426.465889084507296
 31
0.0
  0
LINE
  5
193
100
AcDbEntity
100
AcDbLine
  8
wedges
 62
256
370
-1
  6
ByLayer
 10
201.3329665492775575
 20
426.465889084507296
 30
0.0
 11
199.3329665492775575
 21
426.465889084507296
 31
0.0
  0
LINE
  5
194
100
AcDbEntity
100
AcDbLine
  8
wedges
 62
256
370
-1
  6
ByLayer
 10
199.3329665492775575
 20
439.465889084507296
 30
0.0
 11
197.3329665492775575
 21
426.465889084507296
 31
0.0
  0
LINE
  5
195
100
AcDbEntity
100
AcDbLine
  8
wedges
 62
256
370
-1
  6
ByLayer
 10
201.3329665492775575
 20
426.465889084507296
 30
0.0
 11
201.3329665492775575
 21
439.465889084507296
 31
0.0
  0
LINE
  5
196
100
AcDbEntity
100
AcDbLine
  8
wedges
 62
256
370
-1
  6
ByLayer
 10
205.3329665492775575
 20
439.465889084507296
 30
0.0
 11
203.3329665492775575
 21
426.465889084507296
 31
0.0
  0
LINE
  5
197
100
AcDbEntity
100
AcDbLine
  8
wedges
 62
256
370
-1
  6
ByLayer
 10
207.3329665492775575
 20
426.465889084507296
 30
0.0
 11
207.3329665492775575
 21
439.465889084507296
 31
0.0
  0
LINE
  5
198
100
AcDbEntity
100
AcDbLine
  8
wedges
 62
256
370
-1
  6
ByLayer
 10
211.3329665492775575
 20
439.465889084507296
 30
0.0
 11
209.3329665492775575
 21
426.465889084507296
 31
0.0
  0
LINE
  5
199
100
AcDbEntity
100
AcDbLine
  8
wedges
 62
256
370
-1
  6
ByLayer
 10
213.3329665492775575
 20
426.465889084507296
 30
0.0
 11
213.3329665492775575
 21
439.465889084507296
 31
0.0
  0
LINE
  5
19A
100
AcDbEntity
100
AcDbLine
  8
wedges
 62
256
370
-1
  6
ByLayer
 10
217.3329665492775575
 20
439.465889084507296
 30
0.0
 11
215.3329665492775575
 21
426.465889084507296
 31
0.0
  0
LINE
  5
19B
100
AcDbEntity
100
AcDbLine
  8
wedges
 62
256
370
-1
  6
ByLayer
 10
201.3329665492775575
 20
426.465889084507296
 30
0.0
 11
205.3329665492775575
 21
426.465889084507296
 31
0.0
  0
LINE
  5
19C
100
AcDbEntity
100
AcDbLine
  8
wedges
 62
256
370
-1
  6
ByLayer
 10
205.3329665492775575
 20
426.465889084507296
 30
0.0
 11
203.3329665492775575
 21
413.465889084507296
 31
0.0
  0
LINE
  5
19D
100
AcDbEntity
100
AcDbLine
  8
wedges
 62
256
370
-1
  6
ByLayer
 10
207.3329665492775575
 20
413.465889084507296
 30
0.0
 11
207.3329665492775575
 21
426.465889084507296
 31
0.0
  0
LINE
  5
19E
100
AcDbEntity
100
AcDbLine
  8
wedges
 62
256
370
-1
  6
ByLayer
 10
207.3329665492775575
 20
426.465889084507296
 30
0.0
 11
205.3329665492775575
 21
426.465889084507296
 31
0.0
  0
LINE
  5
19F
100
AcDbEntity
100
AcDbLine
  8
wedges
 62
256
370
-1
  6
ByLayer
 10
207.3329665492775575
 20
426.465889084507296
 30
0.0
 11
211.3329665492775575
 21
426.465889084507296
 31
0.0
  0
LINE
  5
1A0
100
AcDbEntity
100
AcDbLine
  8
wedges
 62
256
370
-1
  6
ByLayer
 10
211.3329665492775575
 20
426.465889084507296
 30
0.0
 11
209.3329665492775575
 21
413.465889084507296
 31
0.0
  0
LINE
  5
1A1
100
AcDbEntity
100
AcDbLine
  8
wedges
 62
256
370
-1
  6
ByLayer
 10
213.3329665492775575
 20
413.465889084507296
 30
0.0
 11
213.3329665492775575
 21
426.465889084507296
 31
0.0
  0
LINE
  5
1A2
100
AcDbEntity
100
AcDbLine
  8
wedges
 62
256
370
-1
  6
ByLayer
 10
213.3329665492775575
 20
426.465889084507296
 30
0.0
 11
211.3329665492775575
 21
426.465889084507296
 31
0.0
  0
LINE
  5
1A3
100
AcDbEntity
100
AcDbLine
  8
wedges
 62
256
370
-1
  6
ByLayer
 10
213.3329665492775575
 20
426.465889084507296
 30
0.0
 11
217.3329665492775575
 21
426.465889084507296
 31
0.0
  0
LINE
  5
1A4
100
AcDbEntity
100
AcDbLine
  8
wedges
 62
256
370
-1
  6
ByLayer
 10
217.3329665492775575
 20
426.465889084507296
 30
0.0
 11
215.3329665492775575
 21
413.465889084507296
 31
0.0
  0
LINE
  5
1A5
100
AcDbEntity
100
AcDbLine
  8
wedges
 62
256
370
-1
  6
ByLayer
 10
219.3329665492775575
 20
426.465889084507296
 30
0.0
 11
217.3329665492775575
 21
426.465889084507296
 31
0.0
  0
LINE
  5
1A6
100
AcDbEntity
100
AcDbLine
  8
wedges
 62
256
370
-1
  6
ByLayer
 10
195.3329665492775575
 20
400.465889084507296
 30
0.0
 11
199.3329665492775575
 21
400.465889084507296
 31
0.0
  0
LINE
  5
1A7
100
AcDbEntity
100
AcDbLine
  8
wedges
 62
256
370
-1
  6
ByLayer
 10
199.3329665492775575
 20
400.465889084507296
 30
0.0
 11
197.3329665492775575
 21
387.465889084507296
 31
0.0
  0
LINE
  5
1A8
100
AcDbEntity
100
AcDbLine
  8
wedges
 62
256
370
-1
  6
ByLayer
 10
201.3329665492775575
 20
387.465889084507296
 30
0.0
 11
201.3329665492775575
 21
400.465889084507296
 31
0.0
  0
LINE
  5
1A9
100
AcDbEntity
100
AcDbLine
  8
wedges
 62
256
370
-1
  6
ByLayer
 10
201.3329665492775575
 20
400.465889084507296
 30
0.0
 11
199.3329665492775575
 21
400.465889084507296
 31
0.0
  0
LINE
  5
1AA
100
AcDbEntity
100
AcDbLine
  8
wedges
 62
256
370
-1
  6
ByLayer
 10
195.3329665492775575
 20
413.465889084507296
 30
0.0
 11
199.3329665492775575
 21
413.465889084507296
 31
0.0
  0
LINE
  5
1AB
100
AcDbEntity
100
AcDbLine
  8
wedges
 62
256
370
-1
  6
ByLayer
 10
199.3329665492775575
 20
413.465889084507296
 30
0.0
 11
197.3329665492775575
 21
400.465889084507296
 31
0.0
  0
LINE
  5
1AC
100
AcDbEntity
100
AcDbLine
  8
wedges
 62
256
370
-1
  6
ByLayer
 10
201.3329665492775575
 20
400.465889084507296
 30
0.0
 11
201.3329665492775575
 21
413.465889084507296
 31
0.0
  0
LINE
  5
1AD
100
AcDbEntity
100
AcDbLine
  8
wedges
 62
256
370
-1
  6
ByLayer
 10
201.3329665492775575
 20
413.465889084507296
 30
0.0
 11
199.3329665492775575
 21
413.465889084507296
 31
0.0
  0
LINE
  5
1AE
100
AcDbEntity
100
AcDbLine
  8
wedges
 62
256
370
-1
  6
ByLayer
 10
201.3329665492775575
 20
413.465889084507296
 30
0.0
 11
205.3329665492775575
 21
413.465889084507296
 31
0.0
  0
LINE
  5
1AF
100
AcDbEntity
100
AcDbLine
  8
wedges
 62
256
370
-1
  6
ByLayer
 10
205.3329665492775575
 20
413.465889084507296
 30
0.0
 11
203.3329665492775575
 21
400.465889084507296
 31
0.0
  0
LINE
  5
1B0
100
AcDbEntity
100
AcDbLine
  8
wedges
 62
256
370
-1
  6
ByLayer
 10
207.3329665492775575
 20
400.465889084507296
 30
0.0
 11
207.3329665492775575
 21
413.465889084507296
 31
0.0
  0
LINE
  5
1B1
100
AcDbEntity
100
AcDbLine
  8
wedges
 62
256
370
-1
  6
ByLayer
 10
207.3329665492775575
 20
413.465889084507296
 30
0.0
 11
205.3329665492775575
 21
413.465889084507296
 31
0.0
  0
LINE
  5
1B2
100
AcDbEntity
100
AcDbLine
  8
wedges
 62
256
370
-1
  6
ByLayer
 10
207.3329665492775575
 20
413.465889084507296
 30
0.0
 11
211.3329665492775575
 21
413.465889084507296
 31
0.0
  0
LINE
  5
1B3
100
AcDbEntity
100
AcDbLine
  8
wedges
 62
256
370
-1
  6
ByLayer
 10
211.3329665492775575
 20
413.465889084507296
 30
0.0
 11
209.3329665492775575
 21
400.465889084507296
 31
0.0
  0
LINE
  5
1B4
100
AcDbEntity
100
AcDbLine
  8
wedges
 62
256
370
-1
  6
ByLayer
 10
213.3329665492775575
 20
400.465889084507296
 30
0.0
 11
213.3329665492775575
 21
413.465889084507296
 31
0.0
  0
LINE
  5
1B5
100
AcDbEntity
100
AcDbLine
  8
wedges
 62
256
370
-1
  6
ByLayer
 10
213.3329665492775575
 20
413.465889084507296
 30
0.0
 11
211.3329665492775575
 21
413.465889084507296
 31
0.0
  0
LINE
  5
1B6
100
AcDbEntity
100
AcDbLine
  8
wedges
 62
256
370
-1
  6
ByLayer
 10
213.3329665492775575
 20
413.465889084507296
 30
0.0
 11
217.3329665492775575
 21
413.465889084507296
 31
0.0
  0
LINE
  5
1B7
100
AcDbEntity
100
AcDbLine
  8
wedges
 62
256
370
-1
  6
ByLayer
 10
217.3329665492775575
 20
413.465889084507296
 30
0.0
 11
215.3329665492775575
 21
400.465889084507296
 31
0.0
  0
LINE
  5
1B8
100
AcDbEntity
100
AcDbLine
  8
wedges
 62
256
370
-1
  6
ByLayer
 10
219.3329665492775575
 20
413.465889084507296
 30
0.0
 11
217.3329665492775575
 21
413.465889084507296
 31
0.0
  0
LINE
  5
1B9
100
AcDbEntity
100
AcDbLine
  8
wedges
 62
256
370
-1
  6
ByLayer
 10
201.3329665492775575
 20
400.465889084507296
 30
0.0
 11
205.3329665492775575
 21
400.465889084507296
 31
0.0
  0
LINE
  5
1BA
100
AcDbEntity
100
AcDbLine
  8
wedges
 62
256
370
-1
  6
ByLayer
 10
205.3329665492775575
 20
400.465889084507296
 30
0.0
 11
203.3329665492775575
 21
387.465889084507296
 31
0.0
  0
LINE
  5
1BB
100
AcDbEntity
100
AcDbLine
  8
wedges
 62
256
370
-1
  6
ByLayer
 10
207.3329665492775575
 20
387.465889084507296
 30
0.0
 11
207.3329665492775575
 21
400.465889084507296
 31
0.0
  0
LINE
  5
1BC
100
AcDbEntity
100
AcDbLine
  8
wedges
 62
256
370
-1
  6
ByLayer
 10
207.3329665492775575
 20
400.465889084507296
 30
0.0
 11
205.3329665492775575
 21
400.465889084507296
 31
0.0
  0
LINE
  5
1BD
100
AcDbEntity
100
AcDbLine
  8
wedges
 62
256
370
-1
  6
ByLayer
 10
207.3329665492775575
 20
400.465889084507296
 30
0.0
 11
211.3329665492775575
 21
400.465889084507296
 31
0.0
  0
LINE
  5
1BE
100
AcDbEntity
100
AcDbLine
  8
wedges
 62
256
370
-1
  6
ByLayer
 10
211.3329665492775575
 20
400.465889084507296
 30
0.0
 11
209.3329665492775575
 21
387.465889084507296
 31
0.0
  0
LINE
  5
1BF
100
AcDbEntity
100
AcDbLine
  8
wedges
 62
256
370
-1
  6
ByLayer
 10
213.3329665492775575
 20
387.465889084507296
 30
0.0
 11
213.3329665492775575
 21
400.465889084507296
 31
0.0
  0
LINE
  5
1C0
100
AcDbEntity
100
AcDbLine
  8
wedges
 62
256
370
-1
  6
ByLayer
 10
213.3329665492775575
 20
400.465889084507296
 30
0.0
 11
211.3329665492775575
 21
400.465889084507296
 31
0.0
  0
LINE
  5
1C1
100
AcDbEntity
100
AcDbLine
  8
wedges
 62
256
370
-1
  6
ByLayer
 10
213.3329665492775575
 20
400.465889084507296
 30
0.0
 11
217.3329665492775575
 21
400.465889084507296
 31
0.0
  0
LINE
  5
1C2
100
AcDbEntity
100
AcDbLine
  8
wedges
 62
256
370
-1
  6
ByLayer
 10
217.3329665492775575
 20
400.465889084507296
 30
0.0
 11
215.3329665492775575
 21
387.465889084507296
 31
0.0
  0
LINE
  5
1C3
100
AcDbEntity
100
AcDbLine
  8
wedges
 62
256
370
-1
  6
ByLayer
 10
219.3329665492775575
 20
400.465889084507296
 30
0.0
 11
217.3329665492775575
 21
400.465889084507296
 31
0.0
  0
LINE
  5
1C4
100
AcDbEntity
100
AcDbLine
  8
wedges
 62
256
370
-1
  6
ByLayer
 10
171.3329665492775575
 20
426.465889084507296
 30
0.0
 11
175.3329665492775575
 21
426.465889084507296
 31
0.0
  0
LINE
  5
1C5
100
AcDbEntity
100
AcDbLine
  8
wedges
 62
256
370
-1
  6
ByLayer
 10
175.3329665492775575
 20
426.465889084507296
 30
0.0
 11
173.3329665492775575
 21
413.465889084507296
 31
0.0
  0
LINE
  5
1C6
100
AcDbEntity
100
AcDbLine
  8
wedges
 62
256
370
-1
  6
ByLayer
 10
177.3329665492775575
 20
413.465889084507296
 30
0.0
 11
177.3329665492775575
 21
426.465889084507296
 31
0.0
  0
LINE
  5
1C7
100
AcDbEntity
100
AcDbLine
  8
wedges
 62
256
370
-1
  6
ByLayer
 10
177.3329665492775575
 20
426.465889084507296
 30
0.0
 11
175.3329665492775575
 21
426.465889084507296
 31
0.0
  0
LINE
  5
1C8
100
AcDbEntity
100
AcDbLine
  8
wedges
 62
256
370
-1
  6
ByLayer
 10
175.3329665492775575
 20
439.465889084507296
 30
0.0
 11
173.3329665492775575
 21
426.465889084507296
 31
0.0
  0
LINE
  5
1C9
100
AcDbEntity
100
AcDbLine
  8
wedges
 62
256
370
-1
  6
ByLayer
 10
177.3329665492775575
 20
426.465889084507296
 30
0.0
 11
177.3329665492775575
 21
439.465889084507296
 31
0.0
  0
LINE
  5
1CA
100
AcDbEntity
100
AcDbLine
  8
wedges
 62
256
370
-1
  6
ByLayer
 10
181.3329665492775575
 20
439.465889084507296
 30
0.0
 11
179.3329665492775575
 21
426.465889084507296
 31
0.0
  0
LINE
  5
1CB
100
AcDbEntity
100
AcDbLine
  8
wedges
 62
256
370
-1
  6
ByLayer
 10
183.3329665492775575
 20
426.465889084507296
 30
0.0
 11
183.3329665492775575
 21
439.465889084507296
 31
0.0
  0
LINE
  5
1CC
100
AcDbEntity
100
AcDbLine
  8
wedges
 62
256
370
-1
  6
ByLayer
 10
187.3329665492775575
 20
439.465889084507296
 30
0.0
 11
185.3329665492775575
 21
426.465889084507296
 31
0.0
  0
LINE
  5
1CD
100
AcDbEntity
100
AcDbLine
  8
wedges
 62
256
370
-1
  6
ByLayer
 10
189.3329665492775575
 20
426.465889084507296
 30
0.0
 11
189.3329665492775575
 21
439.465889084507296
 31
0.0
  0
LINE
  5
1CE
100
AcDbEntity
100
AcDbLine
  8
wedges
 62
256
370
-1
  6
ByLayer
 10
193.3329665492775575
 20
439.465889084507296
 30
0.0
 11
191.3329665492775575
 21
426.465889084507296
 31
0.0
  0
LINE
  5
1CF
100
AcDbEntity
100
AcDbLine
  8
wedges
 62
256
370
-1
  6
ByLayer
 10
195.3329665492775575
 20
426.465889084507296
 30
0.0
 11
195.3329665492775575
 21
439.465889084507296
 31
0.0
  0
LINE
  5
1D0
100
AcDbEntity
100
AcDbLine
  8
wedges
 62
256
370
-1
  6
ByLayer
 10
177.3329665492775575
 20
426.465889084507296
 30
0.0
 11
181.3329665492775575
 21
426.465889084507296
 31
0.0
  0
LINE
  5
1D1
100
AcDbEntity
100
AcDbLine
  8
wedges
 62
256
370
-1
  6
ByLayer
 10
181.3329665492775575
 20
426.465889084507296
 30
0.0
 11
179.3329665492775575
 21
413.465889084507296
 31
0.0
  0
LINE
  5
1D2
100
AcDbEntity
100
AcDbLine
  8
wedges
 62
256
370
-1
  6
ByLayer
 10
183.3329665492775575
 20
413.465889084507296
 30
0.0
 11
183.3329665492775575
 21
426.465889084507296
 31
0.0
  0
LINE
  5
1D3
100
AcDbEntity
100
AcDbLine
  8
wedges
 62
256
370
-1
  6
ByLayer
 10
183.3329665492775575
 20
426.465889084507296
 30
0.0
 11
181.3329665492775575
 21
426.465889084507296
 31
0.0
  0
LINE
  5
1D4
100
AcDbEntity
100
AcDbLine
  8
wedges
 62
256
370
-1
  6
ByLayer
 10
183.3329665492775575
 20
426.465889084507296
 30
0.0
 11
187.3329665492775575
 21
426.465889084507296
 31
0.0
  0
LINE
  5
1D5
100
AcDbEntity
100
AcDbLine
  8
wedges
 62
256
370
-1
  6
ByLayer
 10
187.3329665492775575
 20
426.465889084507296
 30
0.0
 11
185.3329665492775575
 21
413.465889084507296
 31
0.0
  0
LINE
  5
1D6
100
AcDbEntity
100
AcDbLine
  8
wedges
 62
256
370
-1
  6
ByLayer
 10
189.3329665492775575
 20
413.465889084507296
 30
0.0
 11
189.3329665492775575
 21
426.465889084507296
 31
0.0
  0
LINE
  5
1D7
100
AcDbEntity
100
AcDbLine
  8
wedges
 62
256
370
-1
  6
ByLayer
 10
189.3329665492775575
 20
426.465889084507296
 30
0.0
 11
187.3329665492775575
 21
426.465889084507296
 31
0.0
  0
LINE
  5
1D8
100
AcDbEntity
100
AcDbLine
  8
wedges
 62
256
370
-1
  6
ByLayer
 10
189.3329665492775575
 20
426.465889084507296
 30
0.0
 11
193.3329665492775575
 21
426.465889084507296
 31
0.0
  0
LINE
  5
1D9
100
AcDbEntity
100
AcDbLine
  8
wedges
 62
256
370
-1
  6
ByLayer
 10
193.3329665492775575
 20
426.465889084507296
 30
0.0
 11
191.3329665492775575
 21
413.465889084507296
 31
0.0
  0
LINE
  5
1DA
100
AcDbEntity
100
AcDbLine
  8
wedges
 62
256
370
-1
  6
ByLayer
 10
195.3329665492775575
 20
413.465889084507296
 30
0.0
 11
195.3329665492775575
 21
426.465889084507296
 31
0.0
  0
LINE
  5
1DB
100
AcDbEntity
100
AcDbLine
  8
wedges
 62
256
370
-1
  6
ByLayer
 10
195.3329665492775575
 20
426.465889084507296
 30
0.0
 11
193.3329665492775575
 21
426.465889084507296
 31
0.0
  0
LINE
  5
1DC
100
AcDbEntity
100
AcDbLine
  8
wedges
 62
256
370
-1
  6
ByLayer
 10
171.3329665492775575
 20
400.465889084507296
 30
0.0
 11
175.3329665492775575
 21
400.465889084507296
 31
0.0
  0
LINE
  5
1DD
100
AcDbEntity
100
AcDbLine
  8
wedges
 62
256
370
-1
  6
ByLayer
 10
175.3329665492775575
 20
400.465889084507296
 30
0.0
 11
173.3329665492775575
 21
387.465889084507296
 31
0.0
  0
LINE
  5
1DE
100
AcDbEntity
100
AcDbLine
  8
wedges
 62
256
370
-1
  6
ByLayer
 10
177.3329665492775575
 20
387.465889084507296
 30
0.0
 11
177.3329665492775575
 21
400.465889084507296
 31
0.0
  0
LINE
  5
1DF
100
AcDbEntity
100
AcDbLine
  8
wedges
 62
256
370
-1
  6
ByLayer
 10
177.3329665492775575
 20
400.465889084507296
 30
0.0
 11
175.3329665492775575
 21
400.465889084507296
 31
0.0
  0
LINE
  5
1E0
100
AcDbEntity
100
AcDbLine
  8
wedges
 62
256
370
-1
  6
ByLayer
 10
171.3329665492775575
 20
413.465889084507296
 30
0.0
 11
175.3329665492775575
 21
413.465889084507296
 31
0.0
  0
LINE
  5
1E1
100
AcDbEntity
100
AcDbLine
  8
wedges
 62
256
370
-1
  6
ByLayer
 10
175.3329665492775575
 20
413.465889084507296
 30
0.0
 11
173.3329665492775575
 21
400.465889084507296
 31
0.0
  0
LINE
  5
1E2
100
AcDbEntity
100
AcDbLine
  8
wedges
 62
256
370
-1
  6
ByLayer
 10
177.3329665492775575
 20
400.465889084507296
 30
0.0
 11
177.3329665492775575
 21
413.465889084507296
 31
0.0
  0
LINE
  5
1E3
100
AcDbEntity
100
AcDbLine
  8
wedges
 62
256
370
-1
  6
ByLayer
 10
177.3329665492775575
 20
413.465889084507296
 30
0.0
 11
175.3329665492775575
 21
413.465889084507296
 31
0.0
  0
LINE
  5
1E4
100
AcDbEntity
100
AcDbLine
  8
wedges
 62
256
370
-1
  6
ByLayer
 10
177.3329665492775575
 20
413.465889084507296
 30
0.0
 11
181.3329665492775575
 21
413.465889084507296
 31
0.0
  0
LINE
  5
1E5
100
AcDbEntity
100
AcDbLine
  8
wedges
 62
256
370
-1
  6
ByLayer
 10
181.3329665492775575
 20
413.465889084507296
 30
0.0
 11
179.3329665492775575
 21
400.465889084507296
 31
0.0
  0
LINE
  5
1E6
100
AcDbEntity
100
AcDbLine
  8
wedges
 62
256
370
-1
  6
ByLayer
 10
183.3329665492775575
 20
400.465889084507296
 30
0.0
 11
183.3329665492775575
 21
413.465889084507296
 31
0.0
  0
LINE
  5
1E7
100
AcDbEntity
100
AcDbLine
  8
wedges
 62
256
370
-1
  6
ByLayer
 10
183.3329665492775575
 20
413.465889084507296
 30
0.0
 11
181.3329665492775575
 21
413.465889084507296
 31
0.0
  0
LINE
  5
1E8
100
AcDbEntity
100
AcDbLine
  8
wedges
 62
256
370
-1
  6
ByLayer
 10
183.3329665492775575
 20
413.465889084507296
 30
0.0
 11
187.3329665492775575
 21
413.465889084507296
 31
0.0
  0
LINE
  5
1E9
100
AcDbEntity
100
AcDbLine
  8
wedges
 62
256
370
-1
  6
ByLayer
 10
187.3329665492775575
 20
413.465889084507296
 30
0.0
 11
185.3329665492775575
 21
400.465889084507296
 31
0.0
  0
LINE
  5
1EA
100
AcDbEntity
100
AcDbLine
  8
wedges
 62
256
370
-1
  6
ByLayer
 10
189.3329665492775575
 20
400.465889084507296
 30
0.0
 11
189.3329665492775575
 21
413.465889084507296
 31
0.0
  0
LINE
  5
1EB
100
AcDbEntity
100
AcDbLine
  8
wedges
 62
256
370
-1
  6
ByLayer
 10
189.3329665492775575
 20
413.465889084507296
 30
0.0
 11
187.3329665492775575
 21
413.465889084507296
 31
0.0
  0
LINE
  5
1EC
100
AcDbEntity
100
AcDbLine
  8
wedges
 62
256
370
-1
  6
ByLayer
 10
189.3329665492775575
 20
413.465889084507296
 30
0.0
 11
193.3329665492775575
 21
413.465889084507296
 31
0.0
  0
LINE
  5
1ED
100
AcDbEntity
100
AcDbLine
  8
wedges
 62
256
370
-1
  6
ByLayer
 10
193.3329665492775575
 20
413.465889084507296
 30
0.0
 11
191.3329665492775575
 21
400.465889084507296
 31
0.0
  0
LINE
  5
1EE
100
AcDbEntity
100
AcDbLine
  8
wedges
 62
256
370
-1
  6
ByLayer
 10
195.3329665492775575
 20
400.465889084507296
 30
0.0
 11
195.3329665492775575
 21
413.465889084507296
 31
0.0
  0
LINE
  5
1EF
100
AcDbEntity
100
AcDbLine
  8
wedges
 62
256
370
-1
  6
ByLayer
 10
195.3329665492775575
 20
413.465889084507296
 30
0.0
 11
193.3329665492775575
 21
413.465889084507296
 31
0.0
  0
LINE
  5
1F0
100
AcDbEntity
100
AcDbLine
  8
wedges
 62
256
370
-1
  6
ByLayer
 10
177.3329665492775575
 20
400.465889084507296
 30
0.0
 11
181.3329665492775575
 21
400.465889084507296
 31
0.0
  0
LINE
  5
1F1
100
AcDbEntity
100
AcDbLine
  8
wedges
 62
256
370
-1
  6
ByLayer
 10
181.3329665492775575
 20
400.465889084507296
 30
0.0
 11
179.3329665492775575
 21
387.465889084507296
 31
0.0
  0
LINE
  5
1F2
100
AcDbEntity
100
AcDbLine
  8
wedges
 62
256
370
-1
  6
ByLayer
 10
183.3329665492775575
 20
387.465889084507296
 30
0.0
 11
183.3329665492775575
 21
400.465889084507296
 31
0.0
  0
LINE
  5
1F3
100
AcDbEntity
100
AcDbLine
  8
wedges
 62
256
370
-1
  6
ByLayer
 10
183.3329665492775575
 20
400.465889084507296
 30
0.0
 11
181.3329665492775575
 21
400.465889084507296
 31
0.0
  0
LINE
  5
1F4
100
AcDbEntity
100
AcDbLine
  8
wedges
 62
256
370
-1
  6
ByLayer
 10
183.3329665492775575
 20
400.465889084507296
 30
0.0
 11
187.3329665492775575
 21
400.465889084507296
 31
0.0
  0
LINE
  5
1F5
100
AcDbEntity
100
AcDbLine
  8
wedges
 62
256
370
-1
  6
ByLayer
 10
187.3329665492775575
 20
400.465889084507296
 30
0.0
 11
185.3329665492775575
 21
387.465889084507296
 31
0.0
  0
LINE
  5
1F6
100
AcDbEntity
100
AcDbLine
  8
wedges
 62
256
370
-1
  6
ByLayer
 10
189.3329665492775575
 20
387.465889084507296
 30
0.0
 11
189.3329665492775575
 21
400.465889084507296
 31
0.0
  0
LINE
  5
1F7
100
AcDbEntity
100
AcDbLine
  8
wedges
 62
256
370
-1
  6
ByLayer
 10
189.3329665492775575
 20
400.465889084507296
 30
0.0
 11
187.3329665492775575
 21
400.465889084507296
 31
0.0
  0
LINE
  5
1F8
100
AcDbEntity
100
AcDbLine
  8
wedges
 62
256
370
-1
  6
ByLayer
 10
189.3329665492775575
 20
400.465889084507296
 30
0.0
 11
193.3329665492775575
 21
400.465889084507296
 31
0.0
  0
LINE
  5
1F9
100
AcDbEntity
100
AcDbLine
  8
wedges
 62
256
370
-1
  6
ByLayer
 10
193.3329665492775575
 20
400.465889084507296
 30
0.0
 11
191.3329665492775575
 21
387.465889084507296
 31
0.0
  0
LINE
  5
1FA
100
AcDbEntity
100
AcDbLine
  8
wedges
 62
256
370
-1
  6
ByLayer
 10
195.3329665492775575
 20
387.465889084507296
 30
0.0
 11
195.3329665492775575
 21
400.465889084507296
 31
0.0
  0
LINE
  5
1FB
100
AcDbEntity
100
AcDbLine
  8
wedges
 62
256
370
-1
  6
ByLayer
 10
195.3329665492775575
 20
400.465889084507296
 30
0.0
 11
193.3329665492775575
 21
400.465889084507296
 31
0.0
  0
LINE
  5
1FC
100
AcDbEntity
100
AcDbLine
  8
wedges
 62
256
370
-1
  6
ByLayer
 10
195.3329665492775575
 20
374.465889084507296
 30
0.0
 11
199.3329665492775575
 21
374.465889084507296
 31
0.0
  0
LINE
  5
1FD
100
AcDbEntity
100
AcDbLine
  8
wedges
 62
256
370
-1
  6
ByLayer
 10
199.3329665492775575
 20
374.465889084507296
 30
0.0
 11
197.3329665492775575
 21
361.465889084507296
 31
0.0
  0
LINE
  5
1FE
100
AcDbEntity
100
AcDbLine
  8
wedges
 62
256
370
-1
  6
ByLayer
 10
201.3329665492775575
 20
361.465889084507296
 30
0.0
 11
201.3329665492775575
 21
374.465889084507296
 31
0.0
  0
LINE
  5
1FF
100
AcDbEntity
100
AcDbLine
  8
wedges
 62
256
370
-1
  6
ByLayer
 10
201.3329665492775575
 20
374.465889084507296
 30
0.0
 11
199.3329665492775575
 21
374.465889084507296
 31
0.0
  0
LINE
  5
200
100
AcDbEntity
100
AcDbLine
  8
wedges
 62
256
370
-1
  6
ByLayer
 10
195.3329665492775575
 20
387.465889084507296
 30
0.0
 11
199.3329665492775575
 21
387.465889084507296
 31
0.0
  0
LINE
  5
201
100
AcDbEntity
100
AcDbLine
  8
wedges
 62
256
370
-1
  6
ByLayer
 10
199.3329665492775575
 20
387.465889084507296
 30
0.0
 11
197.3329665492775575
 21
374.465889084507296
 31
0.0
  0
LINE
  5
202
100
AcDbEntity
100
AcDbLine
  8
wedges
 62
256
370
-1
  6
ByLayer
 10
201.3329665492775575
 20
374.465889084507296
 30
0.0
 11
201.3329665492775575
 21
387.465889084507296
 31
0.0
  0
LINE
  5
203
100
AcDbEntity
100
AcDbLine
  8
wedges
 62
256
370
-1
  6
ByLayer
 10
201.3329665492775575
 20
387.465889084507296
 30
0.0
 11
199.3329665492775575
 21
387.465889084507296
 31
0.0
  0
LINE
  5
204
100
AcDbEntity
100
AcDbLine
  8
wedges
 62
256
370
-1
  6
ByLayer
 10
201.3329665492775575
 20
387.465889084507296
 30
0.0
 11
205.3329665492775575
 21
387.465889084507296
 31
0.0
  0
LINE
  5
205
100
AcDbEntity
100
AcDbLine
  8
wedges
 62
256
370
-1
  6
ByLayer
 10
205.3329665492775575
 20
387.465889084507296
 30
0.0
 11
203.3329665492775575
 21
374.465889084507296
 31
0.0
  0
LINE
  5
206
100
AcDbEntity
100
AcDbLine
  8
wedges
 62
256
370
-1
  6
ByLayer
 10
207.3329665492775575
 20
374.465889084507296
 30
0.0
 11
207.3329665492775575
 21
387.465889084507296
 31
0.0
  0
LINE
  5
207
100
AcDbEntity
100
AcDbLine
  8
wedges
 62
256
370
-1
  6
ByLayer
 10
207.3329665492775575
 20
387.465889084507296
 30
0.0
 11
205.3329665492775575
 21
387.465889084507296
 31
0.0
  0
LINE
  5
208
100
AcDbEntity
100
AcDbLine
  8
wedges
 62
256
370
-1
  6
ByLayer
 10
207.3329665492775575
 20
387.465889084507296
 30
0.0
 11
211.3329665492775575
 21
387.465889084507296
 31
0.0
  0
LINE
  5
209
100
AcDbEntity
100
AcDbLine
  8
wedges
 62
256
370
-1
  6
ByLayer
 10
211.3329665492775575
 20
387.465889084507296
 30
0.0
 11
209.3329665492775575
 21
374.465889084507296
 31
0.0
  0
LINE
  5
20A
100
AcDbEntity
100
AcDbLine
  8
wedges
 62
256
370
-1
  6
ByLayer
 10
213.3329665492775575
 20
374.465889084507296
 30
0.0
 11
213.3329665492775575
 21
387.465889084507296
 31
0.0
  0
LINE
  5
20B
100
AcDbEntity
100
AcDbLine
  8
wedges
 62
256
370
-1
  6
ByLayer
 10
213.3329665492775575
 20
387.465889084507296
 30
0.0
 11
211.3329665492775575
 21
387.465889084507296
 31
0.0
  0
LINE
  5
20C
100
AcDbEntity
100
AcDbLine
  8
wedges
 62
256
370
-1
  6
ByLayer
 10
213.3329665492775575
 20
387.465889084507296
 30
0.0
 11
217.3329665492775575
 21
387.465889084507296
 31
0.0
  0
LINE
  5
20D
100
AcDbEntity
100
AcDbLine
  8
wedges
 62
256
370
-1
  6
ByLayer
 10
217.3329665492775575
 20
387.465889084507296
 30
0.0
 11
215.3329665492775575
 21
374.465889084507296
 31
0.0
  0
LINE
  5
20E
100
AcDbEntity
100
AcDbLine
  8
wedges
 62
256
370
-1
  6
ByLayer
 10
219.3329665492775575
 20
387.465889084507296
 30
0.0
 11
217.3329665492775575
 21
387.465889084507296
 31
0.0
  0
LINE
  5
20F
100
AcDbEntity
100
AcDbLine
  8
wedges
 62
256
370
-1
  6
ByLayer
 10
201.3329665492775575
 20
374.465889084507296
 30
0.0
 11
205.3329665492775575
 21
374.465889084507296
 31
0.0
  0
LINE
  5
210
100
AcDbEntity
100
AcDbLine
  8
wedges
 62
256
370
-1
  6
ByLayer
 10
205.3329665492775575
 20
374.465889084507296
 30
0.0
 11
203.3329665492775575
 21
361.465889084507296
 31
0.0
  0
LINE
  5
211
100
AcDbEntity
100
AcDbLine
  8
wedges
 62
256
370
-1
  6
ByLayer
 10
207.3329665492775575
 20
361.465889084507296
 30
0.0
 11
207.3329665492775575
 21
374.465889084507296
 31
0.0
  0
LINE
  5
212
100
AcDbEntity
100
AcDbLine
  8
wedges
 62
256
370
-1
  6
ByLayer
 10
207.3329665492775575
 20
374.465889084507296
 30
0.0
 11
205.3329665492775575
 21
374.465889084507296
 31
0.0
  0
LINE
  5
213
100
AcDbEntity
100
AcDbLine
  8
wedges
 62
256
370
-1
  6
ByLayer
 10
207.3329665492775575
 20
374.465889084507296
 30
0.0
 11
211.3329665492775575
 21
374.465889084507296
 31
0.0
  0
LINE
  5
214
100
AcDbEntity
100
AcDbLine
  8
wedges
 62
256
370
-1
  6
ByLayer
 10
211.3329665492775575
 20
374.465889084507296
 30
0.0
 11
209.3329665492775575
 21
361.465889084507296
 31
0.0
  0
LINE
  5
215
100
AcDbEntity
100
AcDbLine
  8
wedges
 62
256
370
-1
  6
ByLayer
 10
213.3329665492775575
 20
361.465889084507296
 30
0.0
 11
213.3329665492775575
 21
374.465889084507296
 31
0.0
  0
LINE
  5
216
100
AcDbEntity
100
AcDbLine
  8
wedges
 62
256
370
-1
  6
ByLayer
 10
213.3329665492775575
 20
374.465889084507296
 30
0.0
 11
211.3329665492775575
 21
374.465889084507296
 31
0.0
  0
LINE
  5
217
100
AcDbEntity
100
AcDbLine
  8
wedges
 62
256
370
-1
  6
ByLayer
 10
213.3329665492775575
 20
374.465889084507296
 30
0.0
 11
217.3329665492775575
 21
374.465889084507296
 31
0.0
  0
LINE
  5
218
100
AcDbEntity
100
AcDbLine
  8
wedges
 62
256
370
-1
  6
ByLayer
 10
217.3329665492775575
 20
374.465889084507296
 30
0.0
 11
215.3329665492775575
 21
361.465889084507296
 31
0.0
  0
LINE
  5
219
100
AcDbEntity
100
AcDbLine
  8
wedges
 62
256
370
-1
  6
ByLayer
 10
219.3329665492775575
 20
374.465889084507296
 30
0.0
 11
217.3329665492775575
 21
374.465889084507296
 31
0.0
  0
LINE
  5
21A
100
AcDbEntity
100
AcDbLine
  8
wedges
 62
256
370
-1
  6
ByLayer
 10
195.3329665492775575
 20
348.465889084507296
 30
0.0
 11
199.3329665492775575
 21
348.465889084507296
 31
0.0
  0
LINE
  5
21B
100
AcDbEntity
100
AcDbLine
  8
wedges
 62
256
370
-1
  6
ByLayer
 10
199.3329665492775575
 20
348.465889084507296
 30
0.0
 11
197.3329665492775575
 21
335.465889084507296
 31
0.0
  0
LINE
  5
21C
100
AcDbEntity
100
AcDbLine
  8
wedges
 62
256
370
-1
  6
ByLayer
 10
201.3329665492775575
 20
335.465889084507296
 30
0.0
 11
201.3329665492775575
 21
348.465889084507296
 31
0.0
  0
LINE
  5
21D
100
AcDbEntity
100
AcDbLine
  8
wedges
 62
256
370
-1
  6
ByLayer
 10
201.3329665492775575
 20
348.465889084507296
 30
0.0
 11
199.3329665492775575
 21
348.465889084507296
 31
0.0
  0
LINE
  5
21E
100
AcDbEntity
100
AcDbLine
  8
wedges
 62
256
370
-1
  6
ByLayer
 10
195.3329665492775575
 20
361.465889084507296
 30
0.0
 11
199.3329665492775575
 21
361.465889084507296
 31
0.0
  0
LINE
  5
21F
100
AcDbEntity
100
AcDbLine
  8
wedges
 62
256
370
-1
  6
ByLayer
 10
199.3329665492775575
 20
361.465889084507296
 30
0.0
 11
197.3329665492775575
 21
348.465889084507296
 31
0.0
  0
LINE
  5
220
100
AcDbEntity
100
AcDbLine
  8
wedges
 62
256
370
-1
  6
ByLayer
 10
201.3329665492775575
 20
348.465889084507296
 30
0.0
 11
201.3329665492775575
 21
361.465889084507296
 31
0.0
  0
LINE
  5
221
100
AcDbEntity
100
AcDbLine
  8
wedges
 62
256
370
-1
  6
ByLayer
 10
201.3329665492775575
 20
361.465889084507296
 30
0.0
 11
199.3329665492775575
 21
361.465889084507296
 31
0.0
  0
LINE
  5
222
100
AcDbEntity
100
AcDbLine
  8
wedges
 62
256
370
-1
  6
ByLayer
 10
201.3329665492775575
 20
361.465889084507296
 30
0.0
 11
205.3329665492775575
 21
361.465889084507296
 31
0.0
  0
LINE
  5
223
100
AcDbEntity
100
AcDbLine
  8
wedges
 62
256
370
-1
  6
ByLayer
 10
205.3329665492775575
 20
361.465889084507296
 30
0.0
 11
203.3329665492775575
 21
348.465889084507296
 31
0.0
  0
LINE
  5
224
100
AcDbEntity
100
AcDbLine
  8
wedges
 62
256
370
-1
  6
ByLayer
 10
207.3329665492775575
 20
348.465889084507296
 30
0.0
 11
207.3329665492775575
 21
361.465889084507296
 31
0.0
  0
LINE
  5
225
100
AcDbEntity
100
AcDbLine
  8
wedges
 62
256
370
-1
  6
ByLayer
 10
207.3329665492775575
 20
361.465889084507296
 30
0.0
 11
205.3329665492775575
 21
361.465889084507296
 31
0.0
  0
LINE
  5
226
100
AcDbEntity
100
AcDbLine
  8
wedges
 62
256
370
-1
  6
ByLayer
 10
207.3329665492775575
 20
361.465889084507296
 30
0.0
 11
211.3329665492775575
 21
361.465889084507296
 31
0.0
  0
LINE
  5
227
100
AcDbEntity
100
AcDbLine
  8
wedges
 62
256
370
-1
  6
ByLayer
 10
211.3329665492775575
 20
361.465889084507296
 30
0.0
 11
209.3329665492775575
 21
348.465889084507296
 31
0.0
  0
LINE
  5
228
100
AcDbEntity
100
AcDbLine
  8
wedges
 62
256
370
-1
  6
ByLayer
 10
213.3329665492775575
 20
348.465889084507296
 30
0.0
 11
213.3329665492775575
 21
361.465889084507296
 31
0.0
  0
LINE
  5
229
100
AcDbEntity
100
AcDbLine
  8
wedges
 62
256
370
-1
  6
ByLayer
 10
213.3329665492775575
 20
361.465889084507296
 30
0.0
 11
211.3329665492775575
 21
361.465889084507296
 31
0.0
  0
LINE
  5
22A
100
AcDbEntity
100
AcDbLine
  8
wedges
 62
256
370
-1
  6
ByLayer
 10
213.3329665492775575
 20
361.465889084507296
 30
0.0
 11
217.3329665492775575
 21
361.465889084507296
 31
0.0
  0
LINE
  5
22B
100
AcDbEntity
100
AcDbLine
  8
wedges
 62
256
370
-1
  6
ByLayer
 10
217.3329665492775575
 20
361.465889084507296
 30
0.0
 11
215.3329665492775575
 21
348.465889084507296
 31
0.0
  0
LINE
  5
22C
100
AcDbEntity
100
AcDbLine
  8
wedges
 62
256
370
-1
  6
ByLayer
 10
219.3329665492775575
 20
361.465889084507296
 30
0.0
 11
217.3329665492775575
 21
361.465889084507296
 31
0.0
  0
LINE
  5
22D
100
AcDbEntity
100
AcDbLine
  8
wedges
 62
256
370
-1
  6
ByLayer
 10
201.3329665492775575
 20
348.465889084507296
 30
0.0
 11
205.3329665492775575
 21
348.465889084507296
 31
0.0
  0
LINE
  5
22E
100
AcDbEntity
100
AcDbLine
  8
wedges
 62
256
370
-1
  6
ByLayer
 10
205.3329665492775575
 20
348.465889084507296
 30
0.0
 11
203.3329665492775575
 21
335.465889084507296
 31
0.0
  0
LINE
  5
22F
100
AcDbEntity
100
AcDbLine
  8
wedges
 62
256
370
-1
  6
ByLayer
 10
207.3329665492775575
 20
335.465889084507296
 30
0.0
 11
207.3329665492775575
 21
348.465889084507296
 31
0.0
  0
LINE
  5
230
100
AcDbEntity
100
AcDbLine
  8
wedges
 62
256
370
-1
  6
ByLayer
 10
207.3329665492775575
 20
348.465889084507296
 30
0.0
 11
205.3329665492775575
 21
348.465889084507296
 31
0.0
  0
LINE
  5
231
100
AcDbEntity
100
AcDbLine
  8
wedges
 62
256
370
-1
  6
ByLayer
 10
207.3329665492775575
 20
348.465889084507296
 30
0.0
 11
211.3329665492775575
 21
348.465889084507296
 31
0.0
  0
LINE
  5
232
100
AcDbEntity
100
AcDbLine
  8
wedges
 62
256
370
-1
  6
ByLayer
 10
211.3329665492775575
 20
348.465889084507296
 30
0.0
 11
209.3329665492775575
 21
335.465889084507296
 31
0.0
  0
LINE
  5
233
100
AcDbEntity
100
AcDbLine
  8
wedges
 62
256
370
-1
  6
ByLayer
 10
213.3329665492775575
 20
335.465889084507296
 30
0.0
 11
213.3329665492775575
 21
348.465889084507296
 31
0.0
  0
LINE
  5
234
100
AcDbEntity
100
AcDbLine
  8
wedges
 62
256
370
-1
  6
ByLayer
 10
213.3329665492775575
 20
348.465889084507296
 30
0.0
 11
211.3329665492775575
 21
348.465889084507296
 31
0.0
  0
LINE
  5
235
100
AcDbEntity
100
AcDbLine
  8
wedges
 62
256
370
-1
  6
ByLayer
 10
213.3329665492775575
 20
348.465889084507296
 30
0.0
 11
217.3329665492775575
 21
348.465889084507296
 31
0.0
  0
LINE
  5
236
100
AcDbEntity
100
AcDbLine
  8
wedges
 62
256
370
-1
  6
ByLayer
 10
217.3329665492775575
 20
348.465889084507296
 30
0.0
 11
215.3329665492775575
 21
335.465889084507296
 31
0.0
  0
LINE
  5
237
100
AcDbEntity
100
AcDbLine
  8
wedges
 62
256
370
-1
  6
ByLayer
 10
219.3329665492775575
 20
348.465889084507296
 30
0.0
 11
217.3329665492775575
 21
348.465889084507296
 31
0.0
  0
LINE
  5
238
100
AcDbEntity
100
AcDbLine
  8
wedges
 62
256
370
-1
  6
ByLayer
 10
171.3329665492775575
 20
374.465889084507296
 30
0.0
 11
175.3329665492775575
 21
374.465889084507296
 31
0.0
  0
LINE
  5
239
100
AcDbEntity
100
AcDbLine
  8
wedges
 62
256
370
-1
  6
ByLayer
 10
175.3329665492775575
 20
374.465889084507296
 30
0.0
 11
173.3329665492775575
 21
361.465889084507296
 31
0.0
  0
LINE
  5
23A
100
AcDbEntity
100
AcDbLine
  8
wedges
 62
256
370
-1
  6
ByLayer
 10
177.3329665492775575
 20
361.465889084507296
 30
0.0
 11
177.3329665492775575
 21
374.465889084507296
 31
0.0
  0
LINE
  5
23B
100
AcDbEntity
100
AcDbLine
  8
wedges
 62
256
370
-1
  6
ByLayer
 10
177.3329665492775575
 20
374.465889084507296
 30
0.0
 11
175.3329665492775575
 21
374.465889084507296
 31
0.0
  0
LINE
  5
23C
100
AcDbEntity
100
AcDbLine
  8
wedges
 62
256
370
-1
  6
ByLayer
 10
171.3329665492775575
 20
387.465889084507296
 30
0.0
 11
175.3329665492775575
 21
387.465889084507296
 31
0.0
  0
LINE
  5
23D
100
AcDbEntity
100
AcDbLine
  8
wedges
 62
256
370
-1
  6
ByLayer
 10
175.3329665492775575
 20
387.465889084507296
 30
0.0
 11
173.3329665492775575
 21
374.465889084507296
 31
0.0
  0
LINE
  5
23E
100
AcDbEntity
100
AcDbLine
  8
wedges
 62
256
370
-1
  6
ByLayer
 10
177.3329665492775575
 20
374.465889084507296
 30
0.0
 11
177.3329665492775575
 21
387.465889084507296
 31
0.0
  0
LINE
  5
23F
100
AcDbEntity
100
AcDbLine
  8
wedges
 62
256
370
-1
  6
ByLayer
 10
177.3329665492775575
 20
387.465889084507296
 30
0.0
 11
175.3329665492775575
 21
387.465889084507296
 31
0.0
  0
LINE
  5
240
100
AcDbEntity
100
AcDbLine
  8
wedges
 62
256
370
-1
  6
ByLayer
 10
177.3329665492775575
 20
387.465889084507296
 30
0.0
 11
181.3329665492775575
 21
387.465889084507296
 31
0.0
  0
LINE
  5
241
100
AcDbEntity
100
AcDbLine
  8
wedges
 62
256
370
-1
  6
ByLayer
 10
181.3329665492775575
 20
387.465889084507296
 30
0.0
 11
179.3329665492775575
 21
374.465889084507296
 31
0.0
  0
LINE
  5
242
100
AcDbEntity
100
AcDbLine
  8
wedges
 62
256
370
-1
  6
ByLayer
 10
183.3329665492775575
 20
374.465889084507296
 30
0.0
 11
183.3329665492775575
 21
387.465889084507296
 31
0.0
  0
LINE
  5
243
100
AcDbEntity
100
AcDbLine
  8
wedges
 62
256
370
-1
  6
ByLayer
 10
183.3329665492775575
 20
387.465889084507296
 30
0.0
 11
181.3329665492775575
 21
387.465889084507296
 31
0.0
  0
LINE
  5
244
100
AcDbEntity
100
AcDbLine
  8
wedges
 62
256
370
-1
  6
ByLayer
 10
183.3329665492775575
 20
387.465889084507296
 30
0.0
 11
187.3329665492775575
 21
387.465889084507296
 31
0.0
  0
LINE
  5
245
100
AcDbEntity
100
AcDbLine
  8
wedges
 62
256
370
-1
  6
ByLayer
 10
187.3329665492775575
 20
387.465889084507296
 30
0.0
 11
185.3329665492775575
 21
374.465889084507296
 31
0.0
  0
LINE
  5
246
100
AcDbEntity
100
AcDbLine
  8
wedges
 62
256
370
-1
  6
ByLayer
 10
189.3329665492775575
 20
374.465889084507296
 30
0.0
 11
189.3329665492775575
 21
387.465889084507296
 31
0.0
  0
LINE
  5
247
100
AcDbEntity
100
AcDbLine
  8
wedges
 62
256
370
-1
  6
ByLayer
 10
189.3329665492775575
 20
387.465889084507296
 30
0.0
 11
187.3329665492775575
 21
387.465889084507296
 31
0.0
  0
LINE
  5
248
100
AcDbEntity
100
AcDbLine
  8
wedges
 62
256
370
-1
  6
ByLayer
 10
189.3329665492775575
 20
387.465889084507296
 30
0.0
 11
193.3329665492775575
 21
387.465889084507296
 31
0.0
  0
LINE
  5
249
100
AcDbEntity
100
AcDbLine
  8
wedges
 62
256
370
-1
  6
ByLayer
 10
193.3329665492775575
 20
387.465889084507296
 30
0.0
 11
191.3329665492775575
 21
374.465889084507296
 31
0.0
  0
LINE
  5
24A
100
AcDbEntity
100
AcDbLine
  8
wedges
 62
256
370
-1
  6
ByLayer
 10
195.3329665492775575
 20
374.465889084507296
 30
0.0
 11
195.3329665492775575
 21
387.465889084507296
 31
0.0
  0
LINE
  5
24B
100
AcDbEntity
100
AcDbLine
  8
wedges
 62
256
370
-1
  6
ByLayer
 10
195.3329665492775575
 20
387.465889084507296
 30
0.0
 11
193.3329665492775575
 21
387.465889084507296
 31
0.0
  0
LINE
  5
24C
100
AcDbEntity
100
AcDbLine
  8
wedges
 62
256
370
-1
  6
ByLayer
 10
177.3329665492775575
 20
374.465889084507296
 30
0.0
 11
181.3329665492775575
 21
374.465889084507296
 31
0.0
  0
LINE
  5
24D
100
AcDbEntity
100
AcDbLine
  8
wedges
 62
256
370
-1
  6
ByLayer
 10
181.3329665492775575
 20
374.465889084507296
 30
0.0
 11
179.3329665492775575
 21
361.465889084507296
 31
0.0
  0
LINE
  5
24E
100
AcDbEntity
100
AcDbLine
  8
wedges
 62
256
370
-1
  6
ByLayer
 10
183.3329665492775575
 20
361.465889084507296
 30
0.0
 11
183.3329665492775575
 21
374.465889084507296
 31
0.0
  0
LINE
  5
24F
100
AcDbEntity
100
AcDbLine
  8
wedges
 62
256
370
-1
  6
ByLayer
 10
183.3329665492775575
 20
374.465889084507296
 30
0.0
 11
181.3329665492775575
 21
374.465889084507296
 31
0.0
  0
LINE
  5
250
100
AcDbEntity
100
AcDbLine
  8
wedges
 62
256
370
-1
  6
ByLayer
 10
183.3329665492775575
 20
374.465889084507296
 30
0.0
 11
187.3329665492775575
 21
374.465889084507296
 31
0.0
  0
LINE
  5
251
100
AcDbEntity
100
AcDbLine
  8
wedges
 62
256
370
-1
  6
ByLayer
 10
187.3329665492775575
 20
374.465889084507296
 30
0.0
 11
185.3329665492775575
 21
361.465889084507296
 31
0.0
  0
LINE
  5
252
100
AcDbEntity
100
AcDbLine
  8
wedges
 62
256
370
-1
  6
ByLayer
 10
189.3329665492775575
 20
361.465889084507296
 30
0.0
 11
189.3329665492775575
 21
374.465889084507296
 31
0.0
  0
LINE
  5
253
100
AcDbEntity
100
AcDbLine
  8
wedges
 62
256
370
-1
  6
ByLayer
 10
189.3329665492775575
 20
374.465889084507296
 30
0.0
 11
187.3329665492775575
 21
374.465889084507296
 31
0.0
  0
LINE
  5
254
100
AcDbEntity
100
AcDbLine
  8
wedges
 62
256
370
-1
  6
ByLayer
 10
189.3329665492775575
 20
374.465889084507296
 30
0.0
 11
193.3329665492775575
 21
374.465889084507296
 31
0.0
  0
LINE
  5
255
100
AcDbEntity
100
AcDbLine
  8
wedges
 62
256
370
-1
  6
ByLayer
 10
193.3329665492775575
 20
374.465889084507296
 30
0.0
 11
191.3329665492775575
 21
361.465889084507296
 31
0.0
  0
LINE
  5
256
100
AcDbEntity
100
AcDbLine
  8
wedges
 62
256
370
-1
  6
ByLayer
 10
195.3329665492775575
 20
361.465889084507296
 30
0.0
 11
195.3329665492775575
 21
374.465889084507296
 31
0.0
  0
LINE
  5
257
100
AcDbEntity
100
AcDbLine
  8
wedges
 62
256
370
-1
  6
ByLayer
 10
195.3329665492775575
 20
374.465889084507296
 30
0.0
 11
193.3329665492775575
 21
374.465889084507296
 31
0.0
  0
LINE
  5
258
100
AcDbEntity
100
AcDbLine
  8
wedges
 62
256
370
-1
  6
ByLayer
 10
171.3329665492775575
 20
348.465889084507296
 30
0.0
 11
175.3329665492775575
 21
348.465889084507296
 31
0.0
  0
LINE
  5
259
100
AcDbEntity
100
AcDbLine
  8
wedges
 62
256
370
-1
  6
ByLayer
 10
175.3329665492775575
 20
348.465889084507296
 30
0.0
 11
173.3329665492775575
 21
335.465889084507296
 31
0.0
  0
LINE
  5
25A
100
AcDbEntity
100
AcDbLine
  8
wedges
 62
256
370
-1
  6
ByLayer
 10
177.3329665492775575
 20
335.465889084507296
 30
0.0
 11
177.3329665492775575
 21
348.465889084507296
 31
0.0
  0
LINE
  5
25B
100
AcDbEntity
100
AcDbLine
  8
wedges
 62
256
370
-1
  6
ByLayer
 10
177.3329665492775575
 20
348.465889084507296
 30
0.0
 11
175.3329665492775575
 21
348.465889084507296
 31
0.0
  0
LINE
  5
25C
100
AcDbEntity
100
AcDbLine
  8
wedges
 62
256
370
-1
  6
ByLayer
 10
171.3329665492775575
 20
361.465889084507296
 30
0.0
 11
175.3329665492775575
 21
361.465889084507296
 31
0.0
  0
LINE
  5
25D
100
AcDbEntity
100
AcDbLine
  8
wedges
 62
256
370
-1
  6
ByLayer
 10
175.3329665492775575
 20
361.465889084507296
 30
0.0
 11
173.3329665492775575
 21
348.465889084507296
 31
0.0
  0
LINE
  5
25E
100
AcDbEntity
100
AcDbLine
  8
wedges
 62
256
370
-1
  6
ByLayer
 10
177.3329665492775575
 20
348.465889084507296
 30
0.0
 11
177.3329665492775575
 21
361.465889084507296
 31
0.0
  0
LINE
  5
25F
100
AcDbEntity
100
AcDbLine
  8
wedges
 62
256
370
-1
  6
ByLayer
 10
177.3329665492775575
 20
361.465889084507296
 30
0.0
 11
175.3329665492775575
 21
361.465889084507296
 31
0.0
  0
LINE
  5
260
100
AcDbEntity
100
AcDbLine
  8
wedges
 62
256
370
-1
  6
ByLayer
 10
177.3329665492775575
 20
361.465889084507296
 30
0.0
 11
181.3329665492775575
 21
361.465889084507296
 31
0.0
  0
LINE
  5
261
100
AcDbEntity
100
AcDbLine
  8
wedges
 62
256
370
-1
  6
ByLayer
 10
181.3329665492775575
 20
361.465889084507296
 30
0.0
 11
179.3329665492775575
 21
348.465889084507296
 31
0.0
  0
LINE
  5
262
100
AcDbEntity
100
AcDbLine
  8
wedges
 62
256
370
-1
  6
ByLayer
 10
183.3329665492775575
 20
348.465889084507296
 30
0.0
 11
183.3329665492775575
 21
361.465889084507296
 31
0.0
  0
LINE
  5
263
100
AcDbEntity
100
AcDbLine
  8
wedges
 62
256
370
-1
  6
ByLayer
 10
183.3329665492775575
 20
361.465889084507296
 30
0.0
 11
181.3329665492775575
 21
361.465889084507296
 31
0.0
  0
LINE
  5
264
100
AcDbEntity
100
AcDbLine
  8
wedges
 62
256
370
-1
  6
ByLayer
 10
183.3329665492775575
 20
361.465889084507296
 30
0.0
 11
187.3329665492775575
 21
361.465889084507296
 31
0.0
  0
LINE
  5
265
100
AcDbEntity
100
AcDbLine
  8
wedges
 62
256
370
-1
  6
ByLayer
 10
187.3329665492775575
 20
361.465889084507296
 30
0.0
 11
185.3329665492775575
 21
348.465889084507296
 31
0.0
  0
LINE
  5
266
100
AcDbEntity
100
AcDbLine
  8
wedges
 62
256
370
-1
  6
ByLayer
 10
189.3329665492775575
 20
348.465889084507296
 30
0.0
 11
189.3329665492775575
 21
361.465889084507296
 31
0.0
  0
LINE
  5
267
100
AcDbEntity
100
AcDbLine
  8
wedges
 62
256
370
-1
  6
ByLayer
 10
189.3329665492775575
 20
361.465889084507296
 30
0.0
 11
187.3329665492775575
 21
361.465889084507296
 31
0.0
  0
LINE
  5
268
100
AcDbEntity
100
AcDbLine
  8
wedges
 62
256
370
-1
  6
ByLayer
 10
189.3329665492775575
 20
361.465889084507296
 30
0.0
 11
193.3329665492775575
 21
361.465889084507296
 31
0.0
  0
LINE
  5
269
100
AcDbEntity
100
AcDbLine
  8
wedges
 62
256
370
-1
  6
ByLayer
 10
193.3329665492775575
 20
361.465889084507296
 30
0.0
 11
191.3329665492775575
 21
348.465889084507296
 31
0.0
  0
LINE
  5
26A
100
AcDbEntity
100
AcDbLine
  8
wedges
 62
256
370
-1
  6
ByLayer
 10
195.3329665492775575
 20
348.465889084507296
 30
0.0
 11
195.3329665492775575
 21
361.465889084507296
 31
0.0
  0
LINE
  5
26B
100
AcDbEntity
100
AcDbLine
  8
wedges
 62
256
370
-1
  6
ByLayer
 10
195.3329665492775575
 20
361.465889084507296
 30
0.0
 11
193.3329665492775575
 21
361.465889084507296
 31
0.0
  0
LINE
  5
26C
100
AcDbEntity
100
AcDbLine
  8
wedges
 62
256
370
-1
  6
ByLayer
 10
177.3329665492775575
 20
348.465889084507296
 30
0.0
 11
181.3329665492775575
 21
348.465889084507296
 31
0.0
  0
LINE
  5
26D
100
AcDbEntity
100
AcDbLine
  8
wedges
 62
256
370
-1
  6
ByLayer
 10
181.3329665492775575
 20
348.465889084507296
 30
0.0
 11
179.3329665492775575
 21
335.465889084507296
 31
0.0
  0
LINE
  5
26E
100
AcDbEntity
100
AcDbLine
  8
wedges
 62
256
370
-1
  6
ByLayer
 10
183.3329665492775575
 20
335.465889084507296
 30
0.0
 11
183.3329665492775575
 21
348.465889084507296
 31
0.0
  0
LINE
  5
26F
100
AcDbEntity
100
AcDbLine
  8
wedges
 62
256
370
-1
  6
ByLayer
 10
183.3329665492775575
 20
348.465889084507296
 30
0.0
 11
181.3329665492775575
 21
348.465889084507296
 31
0.0
  0
LINE
  5
270
100
AcDbEntity
100
AcDbLine
  8
wedges
 62
256
370
-1
  6
ByLayer
 10
183.3329665492775575
 20
348.465889084507296
 30
0.0
 11
187.3329665492775575
 21
348.465889084507296
 31
0.0
  0
LINE
  5
271
100
AcDbEntity
100
AcDbLine
  8
wedges
 62
256
370
-1
  6
ByLayer
 10
187.3329665492775575
 20
348.465889084507296
 30
0.0
 11
185.3329665492775575
 21
335.465889084507296
 31
0.0
  0
LINE
  5
272
100
AcDbEntity
100
AcDbLine
  8
wedges
 62
256
370
-1
  6
ByLayer
 10
189.3329665492775575
 20
335.465889084507296
 30
0.0
 11
189.3329665492775575
 21
348.465889084507296
 31
0.0
  0
LINE
  5
273
100
AcDbEntity
100
AcDbLine
  8
wedges
 62
256
370
-1
  6
ByLayer
 10
189.3329665492775575
 20
348.465889084507296
 30
0.0
 11
187.3329665492775575
 21
348.465889084507296
 31
0.0
  0
LINE
  5
274
100
AcDbEntity
100
AcDbLine
  8
wedges
 62
256
370
-1
  6
ByLayer
 10
189.3329665492775575
 20
348.465889084507296
 30
0.0
 11
193.3329665492775575
 21
348.465889084507296
 31
0.0
  0
LINE
  5
275
100
AcDbEntity
100
AcDbLine
  8
wedges
 62
256
370
-1
  6
ByLayer
 10
193.3329665492775575
 20
348.465889084507296
 30
0.0
 11
191.3329665492775575
 21
335.465889084507296
 31
0.0
  0
LINE
  5
276
100
AcDbEntity
100
AcDbLine
  8
wedges
 62
256
370
-1
  6
ByLayer
 10
195.3329665492775575
 20
335.465889084507296
 30
0.0
 11
195.3329665492775575
 21
348.465889084507296
 31
0.0
  0
LINE
  5
277
100
AcDbEntity
100
AcDbLine
  8
wedges
 62
256
370
-1
  6
ByLayer
 10
195.3329665492775575
 20
348.465889084507296
 30
0.0
 11
193.3329665492775575
 21
348.465889084507296
 31
0.0
  0
POINT
  5
278
100
AcDbEntity
100
AcDbPoint
  8
wedges
 62
256
370
-1
  6
ByLayer
 10
171.3329665492775575
 20
439.465889084507296
 30
0.0
  0
LINE
  5
279
100
AcDbEntity
100
AcDbLine
  8
wedges
 62
256
370
-1
  6
ByLayer
 10
219.3329665492775575
 20
335.465889084507296
 30
0.0
 11
219.3329665492775575
 21
439.465889084507296
 31
0.0
  0
LINE
  5
27A
100
AcDbEntity
100
AcDbLine
  8
wedges
 62
256
370
-1
  6
ByLayer
 10
171.3329665492775575
 20
439.465889084507296
 30
0.0
 11
219.3329665492775575
 21
439.465889084507296
 31
0.0
  0
LINE
  5
27B
100
AcDbEntity
100
AcDbLine
  8
wedges
 62
256
370
-1
  6
ByLayer
 10
171.3329665492775575
 20
439.465889084507296
 30
0.0
 11
171.3329665492775575
 21
335.465889084507296
 31
0.0
  0
LINE
  5
27C
100
AcDbEntity
100
AcDbLine
  8
wedges
 62
256
370
-1
  6
ByLayer
 10
219.3329665492775575
 20
335.465889084507296
 30
0.0
 11
171.3329665492775575
 21
335.465889084507296
 31
0.0
  0
INSERT
  5
27D
100
AcDbEntity
100
AcDbBlockReference
  8
strips
 62
256
370
-1
  6
ByLayer
  2
diag a
 10
29.3810833172974526
 20
499.657063839549437
 30
0.0
 41
1.0
 42
-1.0
 43
1.0
 50
53.0
 44
1.0
 45
1.0
  0
INSERT
  5
27E
100
AcDbEntity
100
AcDbBlockReference
  8
strips
 62
256
370
-1
  6
ByLayer
  2
diag a
 10
267.5260174299858136
 20
466.0066233388071737
 30
0.0
 41
1.0
 42
-1.0
 43
1.0
 50
233.0
 44
1.0
 45
1.0
  0
INSERT
  5
27F
100
AcDbEntity
100
AcDbBlockReference
  8
strips
 62
256
370
-1
  6
ByLayer
  2
diag a
 10
25.2530809859161991
 20
531.7176496479032721
 30
0.0
 50
307.0
 44
1.0
 45
1.0
  0
INSERT
  5
280
100
AcDbEntity
100
AcDbBlockReference
  8
strips
 62
256
370
-1
  6
ByLayer
  2
diag a
 10
274.1702140808993136
 20
566.4587947245750001
 30
0.0
 50
126.9999999999999858
 44
1.0
 45
1.0
  0
INSERT
  5
281
100
AcDbEntity
100
AcDbBlockReference
  8
corners
 62
256
370
-1
  6
ByLayer
  2
corner
 10
226.3476056338126341
 20
322.5476056338181934
 30
0.0
 41
1.0
 42
-1.0
 43
1.0
  0
INSERT
  5
282
100
AcDbEntity
100
AcDbBlockReference
  8
corners
 62
256
370
-1
  6
ByLayer
  2
corner
 10
226.3476056338125773
 20
182.5476056338181934
 30
0.0
  0
INSERT
  5
283
100
AcDbEntity
100
AcDbBlockReference
  8
corners
 62
256
370
-1
  6
ByLayer
  2
corner
 10
281.3476056338125204
 20
444.5476056338181365
 30
0.0
 50
180.0000000000000284
 44
1.0
 45
1.0
  0
INSERT
  5
284
100
AcDbEntity
100
AcDbBlockReference
  8
corners
 62
256
370
-1
  6
ByLayer
  2
corner
 10
281.3476056338125204
 20
304.5476056338181365
 30
0.0
 41
1.0
 42
-1.0
 43
1.0
 50
179.9999999999999716
 44
1.0
 45
1.0
  0
ENDSEC
  0
SECTION
  2
OBJECTS
  0
DICTIONARY
  5
C
100
AcDbDictionary
280
0
281
1
  3
ACAD_GROUP
350
D
  3
ACAD_LAYOUT
350
1A
  3
ACAD_MLINESTYLE
350
17
  3
ACAD_PLOTSETTINGS
350
19
  3
ACAD_PLOTSTYLENAME
350
E
  3
AcDbVariableDictionary
350
285
  0
DICTIONARY
  5
D
100
AcDbDictionary
280
0
281
1
  0
ACDBDICTIONARYWDFLT
  5
E
100
AcDbDictionary
281
1
  3
Normal
350
F
100
AcDbDictionaryWithDefault
340
F
  0
ACDBPLACEHOLDER
  5
F
  0
DICTIONARY
  5
17
100
AcDbDictionary
280
0
281
1
  3
Standard
350
18
  0
MLINESTYLE
  5
18
100
AcDbMlineStyle
  2
STANDARD
 70
0
  3

 62
256
 51
90.0
 52
90.0
 71
2
 49
0.5
 62
256
  6
BYLAYER
 49
-0.5
 62
256
  6
BYLAYER
  0
DICTIONARY
  5
19
100
AcDbDictionary
280
0
281
1
  0
DICTIONARY
  5
1A
100
AcDbDictionary
281
1
  3
Layout1
350
1E
  3
Layout2
350
26
  3
Model
350
22
  0
LAYOUT
  5
1E
100
AcDbPlotSettings
  1

  2
C:\Program Files\AutoCAD 2002\plotters\DWF ePlot (optimized for plotting).pc3
  4

  6

 40
0.0
 41
0.0
 42
0.0
 43
0.0
 44
0.0
 45
0.0
 46
0.0
 47
0.0
 48
0.0
 49
0.0
140
0.0
141
0.0
142
1.0
143
1.0
 70
688
 72
0
 73
0
 74
5
  7

 75
16
147
1.0
148
0.0
149
0.0
100
AcDbLayout
  1
Layout1
 70
1
 71
1
 10
0.0
 20
0.0
 11
420.0
 21
297.0
 12
0.0
 22
0.0
 32
0.0
 14
100000000000000000000.0
 24
100000000000000000000.0
 34
100000000000000000000.0
 15
-100000000000000000000.0
 25
-100000000000000000000.0
 35
-100000000000000000000.0
146
0.0
 13
0.0
 23
0.0
 33
0.0
 16
1.0
 26
0.0
 36
0.0
 17
0.0
 27
1.0
 37
0.0
 76
0
330
1B
  0
LAYOUT
  5
22
100
AcDbPlotSettings
  1

  2
C:\Program Files\AutoCAD 2002\plotters\DWF ePlot (optimized for plotting).pc3
  4

  6

 40
0.0
 41
0.0
 42
0.0
 43
0.0
 44
0.0
 45
0.0
 46
0.0
 47
0.0
 48
0.0
 49
0.0
140
0.0
141
0.0
142
1.0
143
1.0
 70
1712
 72
0
 73
0
 74
0
  7

 75
0
147
1.0
148
0.0
149
0.0
100
AcDbLayout
  1
Model
 70
1
 71
0
 10
0.0
 20
0.0
 11
12.0
 21
9.0
 12
0.0
 22
0.0
 32
0.0
 14
0.0
 24
0.0
 34
0.0
 15
0.0
 25
0.0
 35
0.0
146
0.0
 13
0.0
 23
0.0
 33
0.0
 16
1.0
 26
0.0
 36
0.0
 17
0.0
 27
1.0
 37
0.0
 76
0
330
1F
  0
LAYOUT
  5
26
100
AcDbPlotSettings
  1

  2
C:\Program Files\AutoCAD 2002\plotters\DWF ePlot (optimized for plotting).pc3
  4

  6

 40
0.0
 41
0.0
 42
0.0
 43
0.0
 44
0.0
 45
0.0
 46
0.0
 47
0.0
 48
0.0
 49
0.0
140
0.0
141
0.0
142
1.0
143
1.0
 70
688
 72
0
 73
0
 74
5
  7

 75
16
147
1.0
148
0.0
149
0.0
100
AcDbLayout
  1
Layout2
 70
1
 71
2
 10
0.0
 20
0.0
 11
12.0
 21
9.0
 12
0.0
 22
0.0
 32
0.0
 14
0.0
 24
0.0
 34
0.0
 15
0.0
 25
0.0
 35
0.0
146
0.0
 13
0.0
 23
0.0
 33
0.0
 16
1.0
 26
0.0
 36
0.0
 17
0.0
 27
1.0
 37
0.0
 76
0
330
23
  0
DICTIONARY
  5
285
100
AcDbDictionary
281
1
  3
DIMASSOC
350
287
  3
HIDETEXT
350
286
  0
DICTIONARYVAR
  5
286
100
DictionaryVariables
280
0
  1
2
  0
DICTIONARYVAR
  5
287
100
DictionaryVariables
280
0
  1
1
  0
ENDSEC
  0
EOF
